<mxfile host="drawio-plugin" modified="2023-09-11T07:24:28.190Z" agent="5.0 (X11; Linux x86_64) AppleWebKit/537.36 (KHTML, like Gecko) Chrome/111.0.0.0 Safari/537.36" etag="-jl_wayFmvHA9Zbe-oAZ" version="20.5.3" type="embed"><diagram name="to_be" id="5f0bae14-7c28-e335-631c-24af17079c00"><mxGraphModel dx="2184" dy="1913" grid="0" gridSize="10" guides="1" tooltips="1" connect="1" arrows="1" fold="1" page="0" pageScale="1" pageWidth="1100" pageHeight="850" math="0" shadow="0"><root><mxCell id="0"/><mxCell id="1" parent="0"/><mxCell id="41" value="search" style="swimlane;whiteSpace=wrap;html=1;labelBackgroundColor=#030303;strokeColor=default;strokeWidth=2;fontSize=19;fontColor=#FAFAFA;fillColor=#030303;" parent="1" vertex="1"><mxGeometry x="-1020" y="-597" width="584" height="529" as="geometry"><mxRectangle x="-320" y="175" width="140" height="40" as="alternateBounds"/></mxGeometry></mxCell><mxCell id="110" value="" style="group" parent="41" vertex="1" connectable="0"><mxGeometry x="223" y="380" width="150" height="145" as="geometry"/></mxCell><mxCell id="111" value="&lt;div style=&quot;&quot;&gt;&lt;br&gt;&lt;/div&gt;" style="text;html=1;align=left;verticalAlign=middle;resizable=0;points=[];autosize=1;strokeColor=none;fillColor=none;fontSize=14;fontColor=none;" parent="110" vertex="1"><mxGeometry x="26" y="89.95238095238096" width="18" height="29" as="geometry"/></mxCell><mxCell id="243" value="" style="group" parent="110" vertex="1" connectable="0"><mxGeometry x="10.689999999999998" y="-2" width="130" height="134" as="geometry"/></mxCell><mxCell id="244" value="" style="rounded=1;whiteSpace=wrap;html=1;fontSize=15;" parent="243" vertex="1"><mxGeometry width="130.00000000000003" height="134" as="geometry"/></mxCell><mxCell id="245" value="&lt;div style=&quot;text-align: center;&quot;&gt;&lt;br&gt;&lt;/div&gt;" style="text;html=1;align=left;verticalAlign=middle;resizable=0;points=[];autosize=1;strokeColor=none;fillColor=none;fontSize=14;fontColor=none;" parent="243" vertex="1"><mxGeometry x="25.351453941571194" y="88.09636363636366" width="18" height="29" as="geometry"/></mxCell><mxCell id="246" value="&lt;div style=&quot;font-size: 14px;&quot;&gt;&lt;div style=&quot;&quot;&gt;&lt;div style=&quot;&quot;&gt;&lt;span style=&quot;background-color: initial;&quot;&gt;nginx_search&lt;/span&gt;&lt;/div&gt;&lt;div style=&quot;&quot;&gt;&lt;span style=&quot;background-color: initial;&quot;&gt;:80&lt;/span&gt;&lt;/div&gt;&lt;/div&gt;&lt;/div&gt;" style="text;html=1;align=center;verticalAlign=middle;resizable=0;points=[];autosize=1;strokeColor=none;fillColor=none;fontSize=15;" parent="243" vertex="1"><mxGeometry x="15.673219006303793" y="80.60000000000002" width="101" height="46" as="geometry"/></mxCell><mxCell id="248" value="" style="shape=image;verticalLabelPosition=bottom;labelBackgroundColor=default;verticalAlign=top;aspect=fixed;imageAspect=0;image=data:image/svg+xml,PHN2ZyB4bWxuczp4bGluaz0iaHR0cDovL3d3dy53My5vcmcvMTk5OS94bGluayIgeG1sbnM9Imh0dHA6Ly93d3cudzMub3JnLzIwMDAvc3ZnIiB4bWw6c3BhY2U9InByZXNlcnZlIiBzdHlsZT0iZW5hYmxlLWJhY2tncm91bmQ6bmV3IDAgMCA4ODIuNyA2ODguNjsiIHZpZXdCb3g9IjAgMCA4ODIuNyA2ODguNiIgeT0iMHB4IiB4PSIwcHgiIGlkPSJMYXllcl8xIiB2ZXJzaW9uPSIxLjEiPiYjeGE7PHN0eWxlIHR5cGU9InRleHQvY3NzIj4mI3hhOwkuc3Qwe2ZpbGw6I0ZGRkZGRjt9JiN4YTsJLnN0MXtmaWxsOiMwMDk5MDA7fSYjeGE7PC9zdHlsZT4mI3hhOzxwYXRoIGQ9Ik01MDYsNjg4LjZjLTExLjMsMC0yMS43LTQuNC0yOS40LTExLjVjLTgsNy4xLTE4LjEsMTEtMjguNSwxMWgtMC41Yy0xMS4yLTAuMi0yMi4yLTUtMzAuMi0xMy4zJiMxMDsmIzk7Yy04LjEtOC4yLTEyLjYtMTkuMy0xMi41LTMwLjR2LTQuNWwtMTEuOCwyMy44bC01LDEwLjFjLTQuMiw4LjYtMTMsMTQuMS0yMi43LDE0LjFIMjY0LjljLTkuMSwwLTE3LjUtNS0yMi0xMi44bC01LjEtOS4yJiMxMDsmIzk7bC0xMy42LTIzLjl2M2MwLDIzLjgtMTkuNCw0My4yLTQzLjIsNDMuMmMtMTEuNiwwLTIyLjQtNC41LTMwLjYtMTIuN2wtNjMuOS02My45VjY0NWMwLDIzLjgtMTkuNCw0My4yLTQzLjIsNDMuMlMwLDY2OC45LDAsNjQ1VjUwNyYjMTA7JiM5O2MwLTE3LjUsMTAuNS0zMy4yLDI2LjctNDBjNS4zLTIuMiwxMC44LTMuMywxNi41LTMuM2MxMS42LDAsMjIuNCw0LjUsMzAuNiwxMi43bDY0LDY0VjUwN2MwLTIzLjgsMTkuNC00My4yLDQzLjItNDMuMiYjMTA7JiM5O3M0My4yLDE5LjQsNDMuMiw0My4ydjMuN2wxMy40LTI0LjNsNC45LTkuMWM0LjQtOC4xLDEyLjktMTMuMywyMi4yLTEzLjNoMTA0LjdjOS43LDAsMTguNCw1LjUsMjIuNiwxNC4xbDUsMTAuMiYjMTA7JiM5O2MwLjMsMC40LDAuNCwwLjksMC42LDEuM2w3LjMsMTcuNWMwLTExLDQuNS0yMS45LDEyLjUtMzBjOC4xLTguMywxOS4xLTEzLjEsMzAuMi0xMy4zaDAuNWMxMC41LDAsMjAuOSw0LjEsMjksMTEuNSYjMTA7JiM5O2M3LjYtNi45LDE3LjgtMTEuMSwyOC45LTExLjFjMjMuOCwwLDQzLjIsMTkuNCw0My4yLDQzLjJ2MzMuNWw2NC02NGM4LjEtOC4xLDE5LjEtMTIuNywzMC42LTEyLjdjNS43LDAsMTEuMiwxLjEsMTYuNSwzLjMmIzEwOyYjOTtjNC41LDEuOCw4LjYsNC40LDEyLjEsNy42YzcuOS03LjEsMTgtMTAuOSwyOC43LTEwLjljMTEuNSwwLDIyLjMsNC40LDMwLjYsMTIuNmwzOC42LDM4LjRsMzguNi0zOC40YzguMi04LjEsMTkuMS0xMi42LDMwLjYtMTIuNiYjMTA7JiM5O2MxMS42LDAsMjIuNSw0LjUsMzAuNiwxMi44YzE2LjksMTYuOSwxNi44LDQ0LjQtMC4xLDYxLjJsLTM4LjQsMzguMmwzOC4yLDM4LjFjMTYuOSwxNi45LDE3LDQ0LjMsMC4xLDYxLjImIzEwOyYjOTtjLTguMSw4LjItMTkuMSwxMi44LTMwLjYsMTIuOGMtMTEuNiwwLTIyLjQtNC41LTMwLjYtMTIuN2wtMzguNC0zOC4zTDczMiw2NzUuNmMtOC4xLDguMS0xOSwxMi42LTMwLjYsMTIuNiYjMTA7JiM5O2MtMTAuNCwwLTIwLjYtMy45LTI4LjUtMTAuN2MtNy42LDYuOS0xNy44LDExLjItMjksMTEuMmMtMjMuOCwwLTQzLjItMTkuNC00My4yLTQzLjJ2LTMzLjVsLTY0LDY0JiMxMDsmIzk7QzUyOC41LDY4NC4xLDUxNy43LDY4OC42LDUwNiw2ODguNkw1MDYsNjg4LjZ6IE02ODcuMiw1OThsMjEuOS0yMS44bC0yMS45LTIxLjhWNTk4eiIgY2xhc3M9InN0MCIvPiYjeGE7PHBhdGggZD0iTTE4MS4xLDY2My4xYy00LjcsMC05LjMtMS44LTEyLjgtNS4zTDYxLjMsNTUwLjd2OTQuM2MwLDEwLTguMSwxOC0xOCwxOHMtMTgtOC4xLTE4LTE4VjUwNyYjMTA7JiM5O2MwLTcuMyw0LjQtMTMuOSwxMS4yLTE2LjdjNi44LTIuOCwxNC41LTEuMywxOS43LDMuOWwxMDYuOSwxMDdWNTA3YzAtMTAsOC4xLTE4LDE4LTE4YzEwLDAsMTgsOC4xLDE4LDE4djEzNy45JiMxMDsmIzk7QzE5OS4yLDY1NC45LDE5MS4xLDY2My4xLDE4MS4xLDY2My4xIE0yNjQuOSw0ODkuMmwtNSw5LjNsLTM4LjQsNjkuOGwtNSw4LjhsNSw4LjhsMzguNCw2Ny42bDUuMiw5LjJoMTAwLjZsNS0xMC4ybDI4LjctNTcuOSYjMTA7JiM5O2wxMi45LTI2LjJoLTI5LjFsLTczLjQsMC4zYy05LjYtMC4yLTE4LjQsOC42LTE4LjQsMThjMCw5LjYsOC44LDE4LjIsMTguNCwxOGw0NC4zLTAuM2wtMTAuOCwyMS45aC01N0wyNTgsNTc2LjdsMjguNS01MS41aDYwLjYmIzEwOyYjOTtsMTQuMSwyOWgzNi40bC0yMi45LTU1bC01LTEwLjJIMjY0LjkgTTQ0OC4xLDQ4OC45Yy05LjUsMC4xLTE4LDguOC0xNy45LDE4LjN2NDcuMmgzNi4ydi00Ny4yQzQ2Ni41LDQ5Ny42LDQ1Ny43LDQ4OC43LDQ0OC4xLDQ4OC45JiMxMDsmIzk7IE01MDYuMSw2NjMuNGMtMTAsMC0xOC04LjEtMTgtMTh2LTEzOGMwLTEwLDguMS0xOCwxOC0xOGMxMCwwLDE4LDguMSwxOCwxOHY5NC4zbDEwNy0xMDdjNS4yLTUuMiwxMi45LTYuNywxOS43LTMuOSYjMTA7JiM5O3MxMS4yLDkuNCwxMS4yLDE2Ljd2MTM3LjljMCwxMC04LjEsMTgtMTgsMThjLTEwLDAtMTgtOC4xLTE4LTE4VjU1MUw1MTguOSw2NTguMUM1MTUuNSw2NjEuNSw1MTAuOSw2NjMuNCw1MDYuMSw2NjMuNCBNNzk2LjEsNTc2LjImIzEwOyYjOTtsNTYuMi01Ni4xYzcuMS03LjEsNy4xLTE4LjUsMC4xLTI1LjZjLTcuMS03LjEtMTguNS03LjEtMjUuNi0wLjFsLTU2LjMsNTYuMmwtNTYuMy01Ni4yYy03LjEtNy4xLTE4LjUtNy4xLTI1LjYsMC4xJiMxMDsmIzk7Yy03LjEsNy4xLTcuMSwxOC41LDAsMjUuNmw1Ni4yLDU2LjFsLTU2LjEsNTUuOWMtNy4xLDcuMS03LjEsMTguNS0wLjEsMjUuNmMzLjQsMy40LDgsNS40LDEyLjgsNS4zYzQuNiwwLDkuMi0xLjgsMTIuOC01LjNsNTYuMi01NiYjMTA7JiM5O2w1Ni4yLDU2YzMuNCwzLjQsOCw1LjMsMTIuOCw1LjNjNC42LDAsOS4zLTEuOCwxMi44LTUuM2M3LjEtNy4xLDcuMS0xOC41LTAuMS0yNS42TDc5Ni4xLDU3Ni4yeiBNNDQ4LjEsNjYyLjkmIzEwOyYjOTtjLTkuNS0wLjEtMTgtOC44LTE3LjktMTguM3YtNzUuN2gzNi4ydjc1LjdDNDY2LjUsNjU0LjIsNDU3LjcsNjYzLDQ0OC4xLDY2Mi45IiBjbGFzcz0ic3QxIi8+JiN4YTs8cGF0aCBkPSJNNjE0LjEsNDg4LjRjLTE4LjctMC4yLTM2LjMtNy41LTQ5LjQtMjAuN0wzMzguMiwyNDEuM3YxNzYuNGMwLDM4LjktMzEuNyw3MC43LTcwLjcsNzAuN3MtNzAuNy0zMS43LTcwLjctNzAuNyYjMTA7JiM5O1Y3MC43YzAtMjguNywxNy4xLTU0LjMsNDMuNi02NS4zYzguNi0zLjYsMTcuNy01LjQsMjctNS40YzE4LjksMCwzNi43LDcuNCw1MCwyMC43TDU0NCwyNDcuMVY3MC43QzU0NCwzMS43LDU3NS43LDAsNjE0LjYsMCYjMTA7JiM5O3M3MC43LDMxLjcsNzAuNyw3MC43djM0Ny4xYzAsMzguOS0zMS43LDcwLjctNzAuNyw3MC43SDYxNC4xTDYxNC4xLDQ4OC40eiIgY2xhc3M9InN0MCIvPiYjeGE7PHBhdGggZD0iTTYxNC42LDQ2My4yYy0xMS44LDAtMjMuNS00LjYtMzIuMi0xMy4zTDMxMy4xLDE4MC41djIzNy4yYzAsMjUuMi0yMC40LDQ1LjUtNDUuNSw0NS41cy00NS41LTIwLjQtNDUuNS00NS41JiMxMDsmIzk7di0zNDdjMC0xOC41LDExLjEtMzUsMjguMS00Mi4xczM2LjYtMy4yLDQ5LjYsOS45bDI2OS4zLDI2OS40VjcwLjdjMC0yNS4yLDIwLjQtNDUuNSw0NS41LTQ1LjVjMjUuMiwwLDQ1LjUsMjAuNCw0NS41LDQ1LjV2MzQ3LjEmIzEwOyYjOTtDNjYwLjEsNDQyLjksNjM5LjgsNDYzLjIsNjE0LjYsNDYzLjIiIGNsYXNzPSJzdDEiLz4mI3hhOzwvc3ZnPg==;imageBackground=default;" parent="243" vertex="1"><mxGeometry x="32.200000000000045" y="19" width="67.95" height="53.05" as="geometry"/></mxCell><mxCell id="204" value="" style="endArrow=classic;startArrow=classic;html=1;rounded=0;exitX=0;exitY=0.5;exitDx=0;exitDy=0;entryX=0.5;entryY=1;entryDx=0;entryDy=0;" parent="41" source="220" target="256" edge="1"><mxGeometry width="50" height="50" relative="1" as="geometry"><mxPoint x="258.75999999999976" y="298.89636363636373" as="sourcePoint"/><mxPoint x="77.11400000000003" y="227.27436363636366" as="targetPoint"/><Array as="points"/></mxGeometry></mxCell><mxCell id="206" value="" style="endArrow=classic;startArrow=classic;html=1;rounded=0;exitX=0.5;exitY=0;exitDx=0;exitDy=0;entryX=0.5;entryY=1;entryDx=0;entryDy=0;" parent="41" source="244" target="220" edge="1"><mxGeometry width="50" height="50" relative="1" as="geometry"><mxPoint x="258.75999999999976" y="307.8963636363635" as="sourcePoint"/><mxPoint x="297.00999999999976" y="354.5463636363636" as="targetPoint"/><Array as="points"/></mxGeometry></mxCell><mxCell id="236" value="" style="group" parent="41" vertex="1" connectable="0"><mxGeometry x="233" y="-176" width="130" height="134" as="geometry"/></mxCell><mxCell id="237" value="" style="rounded=1;whiteSpace=wrap;html=1;fontSize=15;" parent="236" vertex="1"><mxGeometry width="130.00000000000003" height="134" as="geometry"/></mxCell><mxCell id="239" value="&lt;div style=&quot;text-align: center;&quot;&gt;&lt;br&gt;&lt;/div&gt;" style="text;html=1;align=left;verticalAlign=middle;resizable=0;points=[];autosize=1;strokeColor=none;fillColor=none;fontSize=14;fontColor=none;" parent="236" vertex="1"><mxGeometry x="25.351453941571194" y="88.09636363636366" width="18" height="29" as="geometry"/></mxCell><mxCell id="240" value="&lt;div style=&quot;font-size: 14px;&quot;&gt;&lt;div style=&quot;&quot;&gt;&lt;span style=&quot;background-color: initial;&quot;&gt;postgres_search&lt;/span&gt;&lt;/div&gt;&lt;div style=&quot;&quot;&gt;&lt;span style=&quot;background-color: initial;&quot;&gt;:5434&lt;/span&gt;&lt;/div&gt;&lt;/div&gt;" style="text;html=1;align=center;verticalAlign=middle;resizable=0;points=[];autosize=1;strokeColor=none;fillColor=none;fontSize=15;" parent="236" vertex="1"><mxGeometry x="4.673219006303793" y="80.60000000000002" width="122" height="46" as="geometry"/></mxCell><mxCell id="242" value="" style="shape=image;verticalLabelPosition=bottom;labelBackgroundColor=default;verticalAlign=top;aspect=fixed;imageAspect=0;image=data:image/svg+xml,PHN2ZyB4bWxucz0iaHR0cDovL3d3dy53My5vcmcvMjAwMC9zdmciIHByZXNlcnZlQXNwZWN0UmF0aW89InhNaW5ZTWluIG1lZXQiIHZpZXdCb3g9IjAuMjk3MjU0NTYyMzc3OTI5NyAwLjM2NDQ3MDMwMzA1ODYyNDI3IDI1NS4zODY2MTE5Mzg0NzY1NiAyNjMuMjk4NTIyOTQ5MjE4NzUiIGhlaWdodD0iMjQ5My4zNTcyMjQ4OTc5MDUiIHdpZHRoPSIyNDE4LjE5MTk4MTc5MjQ1Ij48cGF0aCBkPSJNMjU1LjAwOCAxNTguMDg2Yy0xLjUzNS00LjY0OS01LjU1Ni03Ljg4Ny0xMC43NTYtOC42NjQtMi40NTItLjM2Ni01LjI2LS4yMS04LjU4My40NzUtNS43OTIgMS4xOTUtMTAuMDg5IDEuNjUtMTMuMjI1IDEuNzM4IDExLjgzNy0xOS45ODUgMjEuNDYyLTQyLjc3NSAyNy4wMDMtNjQuMjI4IDguOTYtMzQuNjg5IDQuMTcyLTUwLjQ5Mi0xLjQyMy01Ny42NEMyMzMuMjE3IDEwLjg0NyAyMTEuNjE0LjY4MyAxODUuNTUyLjM3MmMtMTMuOTAzLS4xNy0yNi4xMDggMi41NzUtMzIuNDc1IDQuNTQ5LTUuOTI4LTEuMDQ2LTEyLjMwMi0xLjYzLTE4Ljk5LTEuNzM4LTEyLjUzNy0uMi0yMy42MTQgMi41MzMtMzMuMDc5IDguMTUtNS4yNC0xLjc3Mi0xMy42NS00LjI3LTIzLjM2Mi01Ljg2NC0yMi44NDItMy43NS00MS4yNTItLjgyOC01NC43MTggOC42ODVDNi42MjIgMjUuNjcyLS45MzcgNDUuNjg0LjQ2MSA3My42MzRjLjQ0NCA4Ljg3NCA1LjQwOCAzNS44NzQgMTMuMjI0IDYxLjQ4IDQuNDkyIDE0LjcxOCA5LjI4MiAyNi45NCAxNC4yMzcgMzYuMzMgNy4wMjcgMTMuMzE1IDE0LjU0NiAyMS4xNTYgMjIuOTg3IDIzLjk3MiA0LjczMSAxLjU3NiAxMy4zMjcgMi42OCAyMi4zNjgtNC44NSAxLjE0NiAxLjM4OCAyLjY3NSAyLjc2NyA0LjcwNCA0LjA0OCAyLjU3NyAxLjYyNSA1LjcyOCAyLjk1MyA4Ljg3NSAzLjc0IDExLjM0MSAyLjgzNSAyMS45NjQgMi4xMjYgMzEuMDI3LTEuODQ4LjA1NiAxLjYxMi4wOTkgMy4xNTIuMTM1IDQuNDgyLjA2IDIuMTU3LjEyIDQuMjcyLjE5OSA2LjI1LjUzNyAxMy4zNzQgMS40NDcgMjMuNzczIDQuMTQzIDMxLjA0OS4xNDguNC4zNDcgMS4wMS41NTcgMS42NTcgMS4zNDUgNC4xMTggMy41OTQgMTEuMDEyIDkuMzE2IDE2LjQxMSA1LjkyNSA1LjU5MyAxMy4wOTIgNy4zMDggMTkuNjU2IDcuMzA4IDMuMjkyIDAgNi40MzMtLjQzMiA5LjE4OC0xLjAyMiA5LjgyLTIuMTA1IDIwLjk3My01LjMxMSAyOS4wNDEtMTYuNzk5IDcuNjI4LTEwLjg2IDExLjMzNi0yNy4yMTcgMTIuMDA3LTUyLjk5LjA4Ny0uNzI5LjE2Ny0xLjQyNS4yNDQtMi4wODhsLjE2LTEuMzYyIDEuNzk3LjE1OC40NjMuMDMxYzEwLjAwMi40NTYgMjIuMjMyLTEuNjY1IDI5Ljc0My01LjE1NCA1LjkzNS0yLjc1NCAyNC45NTQtMTIuNzk1IDIwLjQ3Ni0yNi4zNTEiLz48cGF0aCBmaWxsPSIjMzM2NzkxIiBkPSJNMjM3LjkwNiAxNjAuNzIyYy0yOS43NCA2LjEzNS0zMS43ODUtMy45MzQtMzEuNzg1LTMuOTM0IDMxLjQtNDYuNTkzIDQ0LjUyNy0xMDUuNzM2IDMzLjItMTIwLjIxMS0zMC45MDQtMzkuNDg1LTg0LjM5OS0yMC44MTEtODUuMjkyLTIwLjMyN2wtLjI4Ny4wNTJjLTUuODc2LTEuMjItMTIuNDUxLTEuOTQ2LTE5Ljg0Mi0yLjA2Ny0xMy40NTYtLjIyLTIzLjY2NCAzLjUyOC0zMS40MSA5LjQwMiAwIDAtOTUuNDMtMzkuMzE0LTkwLjk5MSA0OS40NDQuOTQ0IDE4Ljg4MiAyNy4wNjQgMTQyLjg3MyA1OC4yMTggMTA1LjQyMiAxMS4zODctMTMuNjk1IDIyLjM5LTI1LjI3NCAyMi4zOS0yNS4yNzQgNS40NjQgMy42MyAxMi4wMDYgNS40ODIgMTguODY0IDQuODE3bC41MzMtLjQ1MmMtLjE2NiAxLjctLjA5IDMuMzYzLjIxMyA1LjMzMi04LjAyNiA4Ljk2Ny01LjY2NyAxMC41NDEtMjEuNzExIDEzLjg0NC0xNi4yMzUgMy4zNDYtNi42OTggOS4zMDItLjQ3MSAxMC44NiA3LjU0OSAxLjg4NyAyNS4wMTMgNC41NjEgMzYuODEzLTExLjk1OGwtLjQ3IDEuODg1YzMuMTQ0IDIuNTE5IDUuMzUyIDE2LjM4MyA0Ljk4MiAyOC45NTItLjM3IDEyLjU2OC0uNjE3IDIxLjE5NyAxLjg2IDI3LjkzNyAyLjQ3OSA2Ljc0IDQuOTQ4IDIxLjkwNSAyNi4wNCAxNy4zODYgMTcuNjIzLTMuNzc3IDI2Ljc1Ni0xMy41NjQgMjguMDI3LTI5Ljg5LjkwMS0xMS42MDYgMi45NDItOS44OSAzLjA3LTIwLjI2N2wxLjYzNy00LjkxMmMxLjg4Ny0xNS43MzMuMy0yMC44MDkgMTEuMTU3LTE4LjQ0OGwyLjY0LjIzMmM3Ljk5LjM2MyAxOC40NS0xLjI4NiAyNC41ODktNC4xMzkgMTMuMjE4LTYuMTM0IDIxLjA1OC0xNi4zNzcgOC4wMjQtMTMuNjg2aC4wMDIiLz48cGF0aCBmaWxsPSIjRkZGIiBkPSJNMTA4LjA3NiA4MS41MjVjLTIuNjgtLjM3My01LjEwNy0uMDI4LTYuMzM1LjkwMi0uNjkuNTIzLS45MDQgMS4xMjktLjk2MiAxLjU0Ni0uMTU0IDEuMTA1LjYyIDIuMzI3IDEuMDk2IDIuOTU3IDEuMzQ2IDEuNzg0IDMuMzEyIDMuMDEgNS4yNTggMy4yOC4yODIuMDQuNTYzLjA1OC44NDIuMDU4IDMuMjQ1IDAgNi4xOTYtMi41MjcgNi40NTYtNC4zOTIuMzI1LTIuMzM2LTMuMDY2LTMuODkzLTYuMzU1LTQuMzVNMTk2Ljg2IDgxLjU5OWMtLjI1Ni0xLjgzMS0zLjUxNC0yLjM1My02LjYwNi0xLjkyMy0zLjA4OC40My02LjA4MiAxLjgyNC01LjgzMiAzLjY1OS4yIDEuNDI3IDIuNzc3IDMuODYzIDUuODI3IDMuODYzLjI1OCAwIC41MTgtLjAxNy43OC0uMDU0IDIuMDM2LS4yODIgMy41My0xLjU3NSA0LjI0LTIuMzIgMS4wOC0xLjEzNiAxLjcwNi0yLjQwMiAxLjU5MS0zLjIyNSIvPjxwYXRoIGZpbGw9IiNGRkYiIGQ9Ik0yNDcuODAyIDE2MC4wMjVjLTEuMTM0LTMuNDI5LTQuNzg0LTQuNTMyLTEwLjg0OC0zLjI4LTE4LjAwNSAzLjcxNi0yNC40NTMgMS4xNDItMjYuNTctLjQxNyAxMy45OTUtMjEuMzIgMjUuNTA4LTQ3LjA5MiAzMS43MTktNzEuMTM3IDIuOTQyLTExLjM5IDQuNTY3LTIxLjk2OCA0LjctMzAuNTkuMTQ3LTkuNDYzLTEuNDY1LTE2LjQxNy00Ljc4OS0yMC42NjUtMTMuNDAyLTE3LjEyNS0zMy4wNzItMjYuMzExLTU2Ljg4Mi0yNi41NjMtMTYuMzY5LS4xODQtMzAuMTk5IDQuMDA1LTMyLjg4IDUuMTgzLTUuNjQ2LTEuNDA0LTExLjgwMS0yLjI2Ni0xOC41MDItMi4zNzYtMTIuMjg4LS4xOTktMjIuOTEgMi43NDMtMzEuNzA0IDguNzQtMy44Mi0xLjQyMi0xMy42OTItNC44MTEtMjUuNzY1LTYuNzU2LTIwLjg3Mi0zLjM2LTM3LjQ1OC0uODE0LTQ5LjI5NCA3LjU3MS0xNC4xMjMgMTAuMDA2LTIwLjY0MyAyNy44OTItMTkuMzggNTMuMTYuNDI1IDguNTAxIDUuMjY5IDM0LjY1MyAxMi45MTMgNTkuNjk4IDEwLjA2MiAzMi45NjQgMjEgNTEuNjI1IDMyLjUwOCA1NS40NjQgMS4zNDcuNDQ5IDIuOS43NjMgNC42MTMuNzYzIDQuMTk4IDAgOS4zNDUtMS44OTIgMTQuNy04LjMzYTUyOS44MzIgNTI5LjgzMiAwIDAgMSAyMC4yNjEtMjIuOTI2YzQuNTI0IDIuNDI4IDkuNDk0IDMuNzg0IDE0LjU3NyAzLjkyLjAxLjEzMy4wMjMuMjY2LjAzNS4zOThhMTE3LjY2IDExNy42NiAwIDAgMC0yLjU3IDMuMTc1Yy0zLjUyMiA0LjQ3MS00LjI1NSA1LjQwMi0xNS41OTIgNy43MzYtMy4yMjUuNjY2LTExLjc5IDIuNDMxLTExLjkxNiA4LjQzNS0uMTM2IDYuNTYgMTAuMTI1IDkuMzE1IDExLjI5NCA5LjYwNyA0LjA3NCAxLjAyIDcuOTk5IDEuNTIzIDExLjc0MiAxLjUyMyA5LjEwMyAwIDE3LjExNC0yLjk5MiAyMy41MTYtOC43ODEtLjE5NyAyMy4zODYuNzc4IDQ2LjQzIDMuNTg2IDUzLjQ1MSAyLjMgNS43NDggNy45MTggMTkuNzk1IDI1LjY2NCAxOS43OTQgMi42MDQgMCA1LjQ3LS4zMDMgOC42MjMtLjk3OSAxOC41MjEtMy45NyAyNi41NjQtMTIuMTU2IDI5LjY3NS0zMC4yMDMgMS42NjUtOS42NDUgNC41MjItMzIuNjc2IDUuODY2LTQ1LjAzIDIuODM2Ljg4NSA2LjQ4NyAxLjI5IDEwLjQzNCAxLjI4OSA4LjIzMiAwIDE3LjczMS0xLjc0OSAyMy42ODgtNC41MTQgNi42OTItMy4xMDggMTguNzY4LTEwLjczNCAxNi41NzgtMTcuMzZ6bS00NC4xMDYtODMuNDhjLS4wNjEgMy42NDctLjU2MyA2Ljk1OC0xLjA5NSAxMC40MTQtLjU3MyAzLjcxNy0xLjE2NSA3LjU2LTEuMzE0IDEyLjIyNS0uMTQ3IDQuNTQuNDIgOS4yNi45NjggMTMuODI1IDEuMTA4IDkuMjIgMi4yNDUgMTguNzEyLTIuMTU2IDI4LjA3OGEzNi41MDggMzYuNTA4IDAgMCAxLTEuOTUtNC4wMDljLS41NDctMS4zMjYtMS43MzUtMy40NTYtMy4zOC02LjQwNC02LjM5OS0xMS40NzYtMjEuMzg0LTM4LjM1LTEzLjcxMy00OS4zMTYgMi4yODUtMy4yNjQgOC4wODQtNi42MiAyMi42NC00LjgxM3ptLTE3LjY0NC02MS43ODdjMjEuMzM0LjQ3MSAzOC4yMSA4LjQ1MiA1MC4xNTggMjMuNzIgOS4xNjQgMTEuNzExLS45MjcgNjQuOTk4LTMwLjE0IDExMC45NjlhMTcxLjMzIDE3MS4zMyAwIDAgMC0uODg2LTEuMTE3bC0uMzctLjQ2MmM3LjU0OS0xMi40NjcgNi4wNzMtMjQuODAyIDQuNzU5LTM1LjczOC0uNTQtNC40ODgtMS4wNS04LjcyNy0uOTItMTIuNzA5LjEzNC00LjIyLjY5Mi03Ljg0IDEuMjMyLTExLjM0LjY2My00LjMxMyAxLjMzOC04Ljc3NiAxLjE1Mi0xNC4wMzcuMTM5LS41NTIuMTk1LTEuMjA0LjEyMi0xLjk3OC0uNDc1LTUuMDQ1LTYuMjM1LTIwLjE0NC0xNy45NzUtMzMuODEtNi40MjItNy40NzUtMTUuNzg3LTE1Ljg0LTI4LjU3NC0yMS40ODIgNS41LTEuMTQgMTMuMDIxLTIuMjAzIDIxLjQ0Mi0yLjAxNnpNNjYuNjc0IDE3NS43NzhjLTUuOSA3LjA5NC05Ljk3NCA1LjczNC0xMS4zMTQgNS4yODgtOC43My0yLjkxMi0xOC44Ni0yMS4zNjQtMjcuNzkxLTUwLjYyNC03LjcyOC0yNS4zMTgtMTIuMjQ0LTUwLjc3Ny0xMi42MDItNTcuOTE2LTEuMTI4LTIyLjU3OCA0LjM0NS0zOC4zMTMgMTYuMjY4LTQ2Ljc2OSAxOS40MDQtMTMuNzYgNTEuMzA2LTUuNTI0IDY0LjEyNS0xLjM0Ny0uMTg0LjE4Mi0uMzc2LjM1Mi0uNTU4LjUzNy0yMS4wMzYgMjEuMjQ0LTIwLjUzNyA1Ny41NC0yMC40ODUgNTkuNzU5LS4wMDIuODU2LjA3IDIuMDY4LjE2OCAzLjczNS4zNjIgNi4xMDUgMS4wMzYgMTcuNDY3LS43NjQgMzAuMzM0LTEuNjcyIDExLjk1NyAyLjAxNCAyMy42NiAxMC4xMTEgMzIuMTA5YTM2LjI3NSAzNi4yNzUgMCAwIDAgMi42MTcgMi40NjhjLTMuNjA0IDMuODYtMTEuNDM3IDEyLjM5Ni0xOS43NzUgMjIuNDI2em0yMi40NzktMjkuOTkzYy02LjUyNi02LjgxLTkuNDktMTYuMjgyLTguMTMzLTI1Ljk5IDEuOS0xMy41OTIgMS4xOTktMjUuNDMuODIyLTMxLjc5LS4wNTMtLjg5LS4xLTEuNjctLjEyNy0yLjI4NSAzLjA3My0yLjcyNSAxNy4zMTQtMTAuMzU1IDI3LjQ3LTguMDI4IDQuNjM0IDEuMDYxIDcuNDU4IDQuMjE3IDguNjMyIDkuNjQ1IDYuMDc2IDI4LjEwMy44MDQgMzkuODE2LTMuNDMyIDQ5LjIyOS0uODczIDEuOTM5LTEuNjk4IDMuNzcyLTIuNDAyIDUuNjY4bC0uNTQ2IDEuNDY2Yy0xLjM4MiAzLjcwNi0yLjY2OCA3LjE1Mi0zLjQ2NSAxMC40MjQtNi45MzgtLjAyLTEzLjY4Ny0yLjk4NC0xOC44MTktOC4zNHptMS4wNjUgMzcuOWMtMi4wMjYtLjUwNi0zLjg0OC0xLjM4NS00LjkxNy0yLjExNC44OTMtLjQyIDIuNDgyLS45OTIgNS4yMzgtMS41NiAxMy4zMzctMi43NDUgMTUuMzk3LTQuNjgzIDE5Ljg5NS0xMC4zOTQgMS4wMzEtMS4zMSAyLjItMi43OTQgMy44MTktNC42MDJsLjAwMi0uMDAyYzIuNDExLTIuNyAzLjUxNC0yLjI0MiA1LjUxNC0xLjQxMiAxLjYyMS42NyAzLjIgMi43MDIgMy44NCA0LjkzOC4zMDMgMS4wNTYuNjQzIDMuMDYtLjQ3IDQuNjItOS4zOTYgMTMuMTU2LTIzLjA4OCAxMi45ODctMzIuOTIxIDEwLjUyNnptNjkuNzk5IDY0Ljk1MmMtMTYuMzE2IDMuNDk2LTIyLjA5My00LjgyOS0yNS45LTE0LjM0Ni0yLjQ1Ny02LjE0NC0zLjY2NS0zMy44NS0yLjgwOC02NC40NDcuMDExLS40MDctLjA0Ny0uOC0uMTU5LTEuMTdhMTUuNDQ0IDE1LjQ0NCAwIDAgMC0uNDU2LTIuMTYyYy0xLjI3NC00LjQ1Mi00LjM3OS04LjE3Ni04LjEwNC05LjcyLTEuNDgtLjYxMy00LjE5Ni0xLjczOC03LjQ2LS45MDMuNjk2LTIuODY4IDEuOTAzLTYuMTA3IDMuMjEyLTkuNjE0bC41NDktMS40NzVjLjYxOC0xLjY2MyAxLjM5NC0zLjM4NiAyLjIxNC01LjIxIDQuNDMzLTkuODQ4IDEwLjUwNC0yMy4zMzcgMy45MTUtNTMuODEtMi40NjgtMTEuNDE0LTEwLjcxLTE2Ljk4OC0yMy4yMDQtMTUuNjkzLTcuNDkuNzc1LTE0LjM0MyAzLjc5Ny0xNy43NjEgNS41My0uNzM1LjM3Mi0xLjQwNy43MzItMi4wMzUgMS4wODIuOTU0LTExLjUgNC41NTgtMzIuOTkyIDE4LjA0LTQ2LjU5IDguNDg5LTguNTYgMTkuNzk0LTEyLjc4OCAzMy41NjgtMTIuNTYgMjcuMTQuNDQ0IDQ0LjU0NCAxNC4zNzIgNTQuMzY2IDI1Ljk3OSA4LjQ2NCAxMC4wMDEgMTMuMDQ3IDIwLjA3NiAxNC44NzYgMjUuNTEtMTMuNzU1LTEuMzk5LTIzLjExIDEuMzE2LTI3Ljg1MiA4LjA5Ni0xMC4zMTcgMTQuNzQ4IDUuNjQ0IDQzLjM3MiAxMy4zMTUgNTcuMTI5IDEuNDA3IDIuNTIxIDIuNjIxIDQuNyAzLjAwMyA1LjYyNiAyLjQ5OCA2LjA1NCA1LjczMiAxMC4wOTYgOC4wOTMgMTMuMDQ2LjcyNC45MDQgMS40MjYgMS43ODEgMS45NiAyLjU0Ny00LjE2NiAxLjIwMS0xMS42NDkgMy45NzYtMTAuOTY3IDE3Ljg0Ny0uNTUgNi45Ni00LjQ2MSAzOS41NDYtNi40NDggNTEuMDU5LTIuNjIzIDE1LjIxLTguMjIgMjAuODc1LTIzLjk1NyAyNC4yNXptNjguMTA0LTc3LjkzNmMtNC4yNiAxLjk3Ny0xMS4zODkgMy40Ni0xOC4xNjEgMy43NzktNy40OC4zNS0xMS4yODgtLjgzOC0xMi4xODQtMS41NjktLjQyLTguNjQ0IDIuNzk3LTkuNTQ3IDYuMjAyLTEwLjUwMy41MzUtLjE1IDEuMDU3LS4yOTcgMS41NjEtLjQ3My4zMTMuMjU1LjY1Ni41MDggMS4wMzIuNzU2IDYuMDEyIDMuOTY4IDE2LjczNSA0LjM5NiAzMS44NzQgMS4yNzFsLjE2Ni0uMDMzYy0yLjA0MiAxLjkwOS01LjUzNiA0LjQ3MS0xMC40OSA2Ljc3MnoiLz48L3N2Zz4=;" parent="236" vertex="1"><mxGeometry x="28.54709090909091" y="9" width="73.25810101010102" height="75.57575757575758" as="geometry"/></mxCell><mxCell id="235" value="" style="group" parent="41" vertex="1" connectable="0"><mxGeometry x="234" y="216" width="130" height="134" as="geometry"/></mxCell><mxCell id="220" value="" style="rounded=1;whiteSpace=wrap;html=1;fontSize=15;" parent="235" vertex="1"><mxGeometry width="130.00000000000003" height="134" as="geometry"/></mxCell><mxCell id="230" value="" style="shape=image;verticalLabelPosition=bottom;labelBackgroundColor=default;verticalAlign=top;aspect=fixed;imageAspect=0;image=data:image/svg+xml,PHN2ZyB4bWxucz0iaHR0cDovL3d3dy53My5vcmcvMjAwMC9zdmciIHZpZXdCb3g9IjAgMCAxNTQgMTU0IiB3aWR0aD0iMjUwMCIgaGVpZ2h0PSIyNTAwIiBmaWxsPSJub25lIj48Y2lyY2xlIHI9Ijc3IiBmaWxsPSIjMDU5OThiIiBjeT0iNzciIGN4PSI3NyIvPjxwYXRoIGZpbGw9IiNmZmYiIGQ9Ik04MS4zNzUgMTguNjY3bC0zOC43NSA3MEg3Ny41bC0zLjg3NSA0Ni42NjYgMzguNzUtNzBINzcuNXoiLz48L3N2Zz4=;imageBackground=default;" parent="235" vertex="1"><mxGeometry x="33.48471497322579" y="11" width="64.41401748796855" height="64.41401748796855" as="geometry"/></mxCell><mxCell id="232" value="&lt;div style=&quot;text-align: center;&quot;&gt;&lt;br&gt;&lt;/div&gt;" style="text;html=1;align=left;verticalAlign=middle;resizable=0;points=[];autosize=1;strokeColor=none;fillColor=none;fontSize=14;fontColor=none;" parent="235" vertex="1"><mxGeometry x="25.351453941571194" y="88.09636363636366" width="18" height="29" as="geometry"/></mxCell><mxCell id="234" value="&lt;div style=&quot;font-size: 14px;&quot;&gt;&lt;span style=&quot;background-color: initial;&quot;&gt;api_search&lt;/span&gt;&lt;/div&gt;&lt;div style=&quot;font-size: 14px;&quot;&gt;&lt;span style=&quot;background-color: initial;&quot;&gt;:8081&lt;/span&gt;&lt;/div&gt;" style="text;html=1;align=center;verticalAlign=middle;resizable=0;points=[];autosize=1;strokeColor=none;fillColor=none;fontSize=15;" parent="235" vertex="1"><mxGeometry x="21.673219006303793" y="80.60000000000002" width="87" height="46" as="geometry"/></mxCell><mxCell id="249" value="" style="group" parent="41" vertex="1" connectable="0"><mxGeometry x="233" y="49" width="130" height="134" as="geometry"/></mxCell><mxCell id="250" value="" style="rounded=1;whiteSpace=wrap;html=1;fontSize=15;" parent="249" vertex="1"><mxGeometry width="130.00000000000003" height="134" as="geometry"/></mxCell><mxCell id="252" value="&lt;div style=&quot;text-align: center;&quot;&gt;&lt;br&gt;&lt;/div&gt;" style="text;html=1;align=left;verticalAlign=middle;resizable=0;points=[];autosize=1;strokeColor=none;fillColor=none;fontSize=14;fontColor=none;" parent="249" vertex="1"><mxGeometry x="25.351453941571194" y="88.09636363636366" width="18" height="29" as="geometry"/></mxCell><mxCell id="253" value="&lt;div style=&quot;font-size: 14px;&quot;&gt;&lt;div style=&quot;&quot;&gt;&lt;span style=&quot;background-color: initial;&quot;&gt;elastic_search&lt;/span&gt;&lt;/div&gt;&lt;div style=&quot;&quot;&gt;&lt;span style=&quot;background-color: initial;&quot;&gt;:9200&lt;/span&gt;&lt;/div&gt;&lt;/div&gt;" style="text;html=1;align=center;verticalAlign=middle;resizable=0;points=[];autosize=1;strokeColor=none;fillColor=none;fontSize=15;" parent="249" vertex="1"><mxGeometry x="11.673219006303793" y="80.60000000000002" width="108" height="46" as="geometry"/></mxCell><mxCell id="254" value="" style="shape=image;verticalLabelPosition=bottom;labelBackgroundColor=default;verticalAlign=top;aspect=fixed;imageAspect=0;image=data:image/svg+xml,PHN2ZyB4bWxucz0iaHR0cDovL3d3dy53My5vcmcvMjAwMC9zdmciIHByZXNlcnZlQXNwZWN0UmF0aW89InhNaW5ZTWluIG1lZXQiIHZpZXdCb3g9IjAgMC44NzcwMDY1MzA3NjE3MTg4IDI1NS45NjAwMDY3MTM4NjcyIDI1NC45MTM5NzA5NDcyNjU2MiIgaGVpZ2h0PSIyNDg5LjM5NDI0NzUzMTg5MSIgd2lkdGg9IjI0OTkuNjA5NDQwNTY1MTA5MyI+PHBhdGggZmlsbD0iI0ZGRiIgZD0iTTI1NS45NiAxMzQuMzkzYzAtMjEuNTIxLTEzLjM3My00MC4xMTctMzMuMjIzLTQ3LjQzYTc1LjIzOSA3NS4yMzkgMCAwIDAgMS4yNTMtMTMuNzkxYzAtMzkuOTA5LTMyLjM4Ni03Mi4yOTUtNzIuMjk1LTcyLjI5NS0yMy4xOTMgMC00NC45MjMgMTEuMDc0LTU4LjUwNSAzMC4wODgtNi42ODYtNS4yMjQtMTQuODM1LTcuOTQtMjMuNDAyLTcuOTQtMjEuMTA0IDAtMzguNDQ2IDE3LjEzMy0zOC40NDYgMzguNDQ2IDAgNC41OTcuODM2IDkuMTk0IDIuMjk4IDEzLjM3M0MxMy41ODIgODEuNzM5IDAgMTAwLjk2MiAwIDEyMi4yNzRjMCAyMS41MjIgMTMuMzczIDQwLjMyNyAzMy40MzEgNDcuNjQtLjgzNSA0LjM4OC0xLjI1MyA4Ljk4NS0xLjI1MyAxMy43OSAwIDM5LjcgMzIuMzg2IDcyLjA4NyA3Mi4wODYgNzIuMDg3IDIzLjQwMiAwIDQ0LjkyNC0xMS4yODMgNTguNTA1LTMwLjA4OCA2LjY4NiA1LjIyMyAxNS4wNDQgOC4xNDkgMjMuNjExIDguMTQ5IDIxLjEwNCAwIDM4LjQ0Ni0xNy4xMzQgMzguNDQ2LTM4LjQ0NiAwLTQuNTk3LS44MzYtOS4xOTQtMi4yOTgtMTMuMzczIDE5LjY0LTcuMTA0IDMzLjQzMS0yNi4zMjcgMzMuNDMxLTQ3LjY0eiIvPjxwYXRoIGZpbGw9IiNGNEJEMTkiIGQ9Ik0xMDAuMDg1IDExMC4zNjRsNTcuMDQzIDI2LjExOSA1Ny42NjktNTAuNTY1YTY0LjMxMiA2NC4zMTIgMCAwIDAgMS4yNTMtMTIuNzQ2YzAtMzUuNTItMjguODM0LTY0LjM1NS02NC4zNTUtNjQuMzU1LTIxLjMxMyAwLTQxLjE2MiAxMC40NDctNTMuMDcyIDI3Ljk5OGwtOS42MTIgNDkuNzMgMTEuMDc0IDIzLjgyeiIvPjxwYXRoIGZpbGw9IiMzQ0JFQjEiIGQ9Ik00MC45NTMgMTcwLjc1Yy0uODM1IDQuMTc5LTEuMjUzIDguNTY3LTEuMjUzIDEyLjk1NSAwIDM1LjUyIDI5LjA0MyA2NC41NjQgNjQuNTY0IDY0LjU2NCAyMS41MjIgMCA0MS4zNzItMTAuNjU2IDUzLjQ5LTI4LjIwOGw5LjQwMy00OS43MjktMTIuNzQ2LTI0LjIzOC01Ny4yNTEtMjYuMTE4LTU2LjIwNyA1MC43NzR6Ii8+PHBhdGggZmlsbD0iI0U5NDc4QyIgZD0iTTQwLjUzNiA3MS45MThsMzkuMDczIDkuMTk0IDguNzc1LTQ0LjUwNmMtNS40MzItNC4xNzktMTEuOTEtNi4yNjgtMTguODA1LTYuMjY4LTE2LjkyNSAwLTMwLjkyNCAxMy43OS0zMC45MjQgMzAuOTI0IDAgMy41NTIuNjI3IDcuMzEzIDEuODggMTAuNjU2eiIvPjxwYXRoIGZpbGw9IiMyQzQ1OEYiIGQ9Ik0zNy4xOTIgODEuMzJjLTE3LjU1MSA1LjY0Mi0yOS42NyAyMi41NjctMjkuNjcgNDAuOTU0IDAgMTcuOTcgMTEuMDc0IDM0LjA1OSAyNy43OSA0MC4zMjdsNTQuOTUzLTQ5LjczLTEwLjAzLTIxLjUyLTQzLjA0My0xMC4wM3oiLz48cGF0aCBmaWxsPSIjOTVDNjNEIiBkPSJNMTY3Ljc4NCAyMTkuODUyYzUuNDMyIDQuMTggMTEuOTEgNi40NzggMTguNTk2IDYuNDc4IDE2LjkyNSAwIDMwLjkyNC0xMy43OSAzMC45MjQtMzAuOTI0IDAtMy43NjEtLjYyNy03LjMxNC0xLjg4LTEwLjY1N2wtMzkuMDczLTkuMTkzLTguNTY3IDQ0LjI5NnoiLz48cGF0aCBmaWxsPSIjMTc2NjU1IiBkPSJNMTc1LjcyNCAxNjUuMzE3bDQzLjA0MyAxMC4wM2MxNy41NTEtNS44NSAyOS42Ny0yMi41NjYgMjkuNjctNDAuOTU0IDAtMTcuOTctMTEuMDc0LTMzLjg0OS0yNy43OS00MC4zMjZsLTU2LjQxNSA0OS4zMTEgMTEuNDkyIDIxLjk0eiIvPjwvc3ZnPg==;" parent="249" vertex="1"><mxGeometry x="27.029999999999973" y="4.6000000000000085" width="76.29" height="76" as="geometry"/></mxCell><mxCell id="209" value="" style="endArrow=classic;html=1;rounded=0;strokeWidth=1;exitX=0.5;exitY=1;exitDx=0;exitDy=0;entryX=0.5;entryY=0;entryDx=0;entryDy=0;" parent="41" source="237" target="250" edge="1"><mxGeometry width="50" height="50" relative="1" as="geometry"><mxPoint x="430.96399999999994" y="165.104380952381" as="sourcePoint"/><mxPoint x="255.86400000000003" y="165.7873636363638" as="targetPoint"/></mxGeometry></mxCell><mxCell id="205" value="" style="endArrow=classic;startArrow=classic;html=1;rounded=0;exitX=0.5;exitY=0;exitDx=0;exitDy=0;entryX=0.5;entryY=1;entryDx=0;entryDy=0;" parent="41" source="220" target="250" edge="1"><mxGeometry width="50" height="50" relative="1" as="geometry"><mxPoint x="268.3899999999994" y="298.19636363636346" as="sourcePoint"/><mxPoint x="239.34000000000015" y="182.52036363636398" as="targetPoint"/><Array as="points"/></mxGeometry></mxCell><mxCell id="255" value="" style="group" parent="41" vertex="1" connectable="0"><mxGeometry x="41" y="49" width="130" height="134" as="geometry"/></mxCell><mxCell id="256" value="" style="rounded=1;whiteSpace=wrap;html=1;fontSize=15;" parent="255" vertex="1"><mxGeometry width="130.00000000000003" height="134" as="geometry"/></mxCell><mxCell id="257" value="&lt;div style=&quot;text-align: center;&quot;&gt;&lt;br&gt;&lt;/div&gt;" style="text;html=1;align=left;verticalAlign=middle;resizable=0;points=[];autosize=1;strokeColor=none;fillColor=none;fontSize=14;fontColor=none;" parent="255" vertex="1"><mxGeometry x="25.351453941571194" y="88.09636363636366" width="18" height="29" as="geometry"/></mxCell><mxCell id="258" value="&lt;div style=&quot;font-size: 14px;&quot;&gt;&lt;div style=&quot;&quot;&gt;&lt;div style=&quot;&quot;&gt;&lt;span style=&quot;background-color: initial;&quot;&gt;redis_search&lt;/span&gt;&lt;/div&gt;&lt;div style=&quot;&quot;&gt;&lt;span style=&quot;background-color: initial;&quot;&gt;:6380&lt;/span&gt;&lt;/div&gt;&lt;/div&gt;&lt;/div&gt;" style="text;html=1;align=center;verticalAlign=middle;resizable=0;points=[];autosize=1;strokeColor=none;fillColor=none;fontSize=15;" parent="255" vertex="1"><mxGeometry x="16.673219006303793" y="80.60000000000002" width="98" height="46" as="geometry"/></mxCell><mxCell id="261" value="" style="shape=image;verticalLabelPosition=bottom;labelBackgroundColor=default;verticalAlign=top;aspect=fixed;imageAspect=0;image=data:image/svg+xml,PHN2ZyB4bWxucz0iaHR0cDovL3d3dy53My5vcmcvMjAwMC9zdmciIHByZXNlcnZlQXNwZWN0UmF0aW89InhNaW5ZTWluIG1lZXQiIHZpZXdCb3g9IjAgMC41ODQwMjI1MjE5NzI2NTYyIDI1NiAyMTguNTg2OTE0MDYyNSIgaGVpZ2h0PSIyMTM0LjIwMzE0Mjc1NTY4MTciIHdpZHRoPSIyNTAwIj48cGF0aCBmaWxsPSIjOTEyNjI2IiBkPSJNMjQ1Ljk3IDE2OC45NDNjLTEzLjY2MiA3LjEyMS04NC40MzQgMzYuMjItOTkuNTAxIDQ0LjA3NS0xNS4wNjcgNy44NTYtMjMuNDM3IDcuNzgtMzUuMzQgMi4wOS0xMS45MDItNS42OS04Ny4yMTYtMzYuMTEyLTEwMC43ODMtNDIuNTk3QzMuNTY2IDE2OS4yNzEgMCAxNjYuNTM1IDAgMTYzLjk1MXYtMjUuODc2czk4LjA1LTIxLjM0NSAxMTMuODc5LTI3LjAyNGMxNS44MjgtNS42NzkgMjEuMzItNS44ODQgMzQuNzktLjk1IDEzLjQ3MiA0LjkzNiA5NC4wMTggMTkuNDY4IDEwNy4zMzEgMjQuMzQ0bC0uMDA2IDI1LjUxYy4wMDIgMi41NTgtMy4wNyA1LjM2NC0xMC4wMjQgOC45ODgiLz48cGF0aCBmaWxsPSIjQzYzMDJCIiBkPSJNMjQ1Ljk2NSAxNDMuMjJjLTEzLjY2MSA3LjExOC04NC40MzEgMzYuMjE4LTk5LjQ5OCA0NC4wNzItMTUuMDY2IDcuODU3LTIzLjQzNiA3Ljc4LTM1LjMzOCAyLjA5LTExLjkwMy01LjY4Ni04Ny4yMTQtMzYuMTEzLTEwMC43OC00Mi41OTQtMTMuNTY2LTYuNDg1LTEzLjg1LTEwLjk0OC0uNTI0LTE2LjE2NiAxMy4zMjYtNS4yMiA4OC4yMjQtMzQuNjA1IDEwNC4wNTUtNDAuMjg0IDE1LjgyOC01LjY3NyAyMS4zMTktNS44ODQgMzQuNzg5LS45NDggMTMuNDcxIDQuOTM0IDgzLjgxOSAzMi45MzUgOTcuMTMgMzcuODEgMTMuMzE2IDQuODgxIDEzLjgyNyA4LjkuMTY2IDE2LjAyIi8+PHBhdGggZmlsbD0iIzkxMjYyNiIgZD0iTTI0NS45NyAxMjcuMDc0Yy0xMy42NjIgNy4xMjItODQuNDM0IDM2LjIyLTk5LjUwMSA0NC4wNzgtMTUuMDY3IDcuODUzLTIzLjQzNyA3Ljc3Ny0zNS4zNCAyLjA4Ny0xMS45MDMtNS42ODctODcuMjE2LTM2LjExMi0xMDAuNzgzLTQyLjU5N0MzLjU2NiAxMjcuNDAyIDAgMTI0LjY3IDAgMTIyLjA4NVY5Ni4yMDZzOTguMDUtMjEuMzQ0IDExMy44NzktMjcuMDIzYzE1LjgyOC01LjY3OSAyMS4zMi01Ljg4NSAzNC43OS0uOTVDMTYyLjE0MiA3My4xNjggMjQyLjY4OCA4Ny42OTcgMjU2IDkyLjU3NGwtLjAwNiAyNS41MTNjLjAwMiAyLjU1Ny0zLjA3IDUuMzYzLTEwLjAyNCA4Ljk4NyIvPjxwYXRoIGZpbGw9IiNDNjMwMkIiIGQ9Ik0yNDUuOTY1IDEwMS4zNTFjLTEzLjY2MSA3LjEyLTg0LjQzMSAzNi4yMTgtOTkuNDk4IDQ0LjA3NS0xNS4wNjYgNy44NTQtMjMuNDM2IDcuNzc3LTM1LjMzOCAyLjA4Ny0xMS45MDMtNS42ODYtODcuMjE0LTM2LjExMi0xMDAuNzgtNDIuNTk0LTEzLjU2Ni02LjQ4My0xMy44NS0xMC45NDctLjUyNC0xNi4xNjdDMjMuMTUxIDgzLjUzNSA5OC4wNSA1NC4xNDggMTEzLjg4IDQ4LjQ3YzE1LjgyOC01LjY3OCAyMS4zMTktNS44ODQgMzQuNzg5LS45NDkgMTMuNDcxIDQuOTM0IDgzLjgxOSAzMi45MzMgOTcuMTMgMzcuODEgMTMuMzE2IDQuODggMTMuODI3IDguOS4xNjYgMTYuMDIiLz48cGF0aCBmaWxsPSIjOTEyNjI2IiBkPSJNMjQ1Ljk3IDgzLjY1M2MtMTMuNjYyIDcuMTItODQuNDM0IDM2LjIyLTk5LjUwMSA0NC4wNzgtMTUuMDY3IDcuODU0LTIzLjQzNyA3Ljc3Ny0zNS4zNCAyLjA4Ny0xMS45MDMtNS42ODctODcuMjE2LTM2LjExMy0xMDAuNzgzLTQyLjU5NUMzLjU2NiA4My45OCAwIDgxLjI0NyAwIDc4LjY2NXYtMjUuODhzOTguMDUtMjEuMzQzIDExMy44NzktMjcuMDIxYzE1LjgyOC01LjY4IDIxLjMyLTUuODg0IDM0Ljc5LS45NUMxNjIuMTQyIDI5Ljc0OSAyNDIuNjg4IDQ0LjI3OCAyNTYgNDkuMTU1bC0uMDA2IDI1LjUxMmMuMDAyIDIuNTU1LTMuMDcgNS4zNjEtMTAuMDI0IDguOTg2Ii8+PHBhdGggZmlsbD0iI0M2MzAyQiIgZD0iTTI0NS45NjUgNTcuOTNjLTEzLjY2MSA3LjEyLTg0LjQzMSAzNi4yMi05OS40OTggNDQuMDc0LTE1LjA2NiA3Ljg1NC0yMy40MzYgNy43NzctMzUuMzM4IDIuMDlDOTkuMjI3IDk4LjQwNCAyMy45MTUgNjcuOTggMTAuMzUgNjEuNDk3LTMuMjE3IDU1LjAxNS0zLjUgNTAuNTUgOS44MjUgNDUuMzMxIDIzLjE1MSA0MC4xMTMgOTguMDUgMTAuNzMgMTEzLjg4IDUuMDVjMTUuODI4LTUuNjc5IDIxLjMxOS01Ljg4MyAzNC43ODktLjk0OCAxMy40NzEgNC45MzUgODMuODE5IDMyLjkzNCA5Ny4xMyAzNy44MTEgMTMuMzE2IDQuODc2IDEzLjgyNyA4Ljg5Ny4xNjYgMTYuMDE3Ii8+PHBhdGggZmlsbD0iI0ZGRiIgZD0iTTE1OS4yODMgMzIuNzU3bC0yMi4wMSAyLjI4NS00LjkyNyAxMS44NTYtNy45NTgtMTMuMjMtMjUuNDE1LTIuMjg0IDE4Ljk2NC02LjgzOS01LjY5LTEwLjQ5OCAxNy43NTUgNi45NDQgMTYuNzM4LTUuNDgtNC41MjQgMTAuODU1IDE3LjA2NyA2LjM5MU0xMzEuMDMyIDkwLjI3NUw4OS45NTUgNzMuMjM4bDU4Ljg2LTkuMDM1LTE3Ljc4MyAyNi4wNzJNNzQuMDgyIDM5LjM0N2MxNy4zNzUgMCAzMS40NiA1LjQ2IDMxLjQ2IDEyLjE5NCAwIDYuNzM2LTE0LjA4NSAxMi4xOTUtMzEuNDYgMTIuMTk1cy0zMS40Ni01LjQ2LTMxLjQ2LTEyLjE5NWMwLTYuNzM0IDE0LjA4NS0xMi4xOTQgMzEuNDYtMTIuMTk0Ii8+PHBhdGggZmlsbD0iIzYyMUIxQyIgZD0iTTE4NS4yOTUgMzUuOTk4bDM0LjgzNiAxMy43NjYtMzQuODA2IDEzLjc1My0uMDMtMjcuNTIiLz48cGF0aCBmaWxsPSIjOUEyOTI4IiBkPSJNMTQ2Ljc1NSA1MS4yNDNsMzguNTQtMTUuMjQ1LjAzIDI3LjUxOS0zLjc3OSAxLjQ3OC0zNC43OTEtMTMuNzUyIi8+PC9zdmc+;" parent="255" vertex="1"><mxGeometry x="25.349999999999998" y="8" width="81.65" height="69.71" as="geometry"/></mxCell><mxCell id="175" value="ugc" style="swimlane;whiteSpace=wrap;html=1;labelBackgroundColor=#030303;strokeColor=default;strokeWidth=2;fontSize=19;fontColor=#FAFAFA;fillColor=#030303;" parent="1" vertex="1"><mxGeometry x="-70" y="-596" width="587" height="533" as="geometry"><mxRectangle x="-320" y="175" width="140" height="40" as="alternateBounds"/></mxGeometry></mxCell><mxCell id="218" value="" style="endArrow=classic;startArrow=classic;html=1;rounded=0;exitX=0.75;exitY=1;exitDx=0;exitDy=0;entryX=0;entryY=0.25;entryDx=0;entryDy=0;" parent="175" source="285" target="399" edge="1"><mxGeometry width="50" height="50" relative="1" as="geometry"><mxPoint x="278.97399999999993" y="316.79336363636367" as="sourcePoint"/><mxPoint x="290" y="210" as="targetPoint"/><Array as="points"/></mxGeometry></mxCell><mxCell id="398" value="" style="group" parent="175" vertex="1" connectable="0"><mxGeometry x="204" y="191" width="130" height="134" as="geometry"/></mxCell><mxCell id="399" value="" style="rounded=1;whiteSpace=wrap;html=1;fontSize=15;" parent="398" vertex="1"><mxGeometry width="130.00000000000003" height="134" as="geometry"/></mxCell><mxCell id="400" value="" style="shape=image;verticalLabelPosition=bottom;labelBackgroundColor=default;verticalAlign=top;aspect=fixed;imageAspect=0;image=data:image/svg+xml,PHN2ZyB4bWxucz0iaHR0cDovL3d3dy53My5vcmcvMjAwMC9zdmciIHZpZXdCb3g9IjAgMCAxNTQgMTU0IiB3aWR0aD0iMjUwMCIgaGVpZ2h0PSIyNTAwIiBmaWxsPSJub25lIj48Y2lyY2xlIHI9Ijc3IiBmaWxsPSIjMDU5OThiIiBjeT0iNzciIGN4PSI3NyIvPjxwYXRoIGZpbGw9IiNmZmYiIGQ9Ik04MS4zNzUgMTguNjY3bC0zOC43NSA3MEg3Ny41bC0zLjg3NSA0Ni42NjYgMzguNzUtNzBINzcuNXoiLz48L3N2Zz4=;imageBackground=default;" parent="398" vertex="1"><mxGeometry x="33.48471497322579" y="11" width="64.41401748796855" height="64.41401748796855" as="geometry"/></mxCell><mxCell id="401" value="&lt;div style=&quot;text-align: center;&quot;&gt;&lt;br&gt;&lt;/div&gt;" style="text;html=1;align=left;verticalAlign=middle;resizable=0;points=[];autosize=1;strokeColor=none;fillColor=none;fontSize=14;fontColor=none;" parent="398" vertex="1"><mxGeometry x="25.351453941571194" y="88.09636363636366" width="18" height="29" as="geometry"/></mxCell><mxCell id="402" value="&lt;div style=&quot;font-size: 14px; text-align: left;&quot;&gt;&lt;span style=&quot;background-color: initial;&quot;&gt;api_ugc&lt;/span&gt;&lt;/div&gt;&lt;div style=&quot;font-size: 14px;&quot;&gt;&lt;span style=&quot;background-color: initial;&quot;&gt;:8084&lt;/span&gt;&lt;br&gt;&lt;/div&gt;" style="text;html=1;align=center;verticalAlign=middle;resizable=0;points=[];autosize=1;strokeColor=none;fillColor=none;fontSize=15;" parent="398" vertex="1"><mxGeometry x="32.673219006303796" y="80.60000000000002" width="67" height="46" as="geometry"/></mxCell><mxCell id="403" value="" style="group" parent="175" vertex="1" connectable="0"><mxGeometry x="194" y="360" width="150" height="145" as="geometry"/></mxCell><mxCell id="404" value="&lt;div style=&quot;&quot;&gt;&lt;br&gt;&lt;/div&gt;" style="text;html=1;align=left;verticalAlign=middle;resizable=0;points=[];autosize=1;strokeColor=none;fillColor=none;fontSize=14;fontColor=none;" parent="403" vertex="1"><mxGeometry x="26" y="89.95238095238096" width="18" height="29" as="geometry"/></mxCell><mxCell id="405" value="" style="group" parent="403" vertex="1" connectable="0"><mxGeometry x="10.689999999999998" y="-2" width="130" height="134" as="geometry"/></mxCell><mxCell id="406" value="" style="rounded=1;whiteSpace=wrap;html=1;fontSize=15;" parent="405" vertex="1"><mxGeometry width="130.00000000000003" height="134" as="geometry"/></mxCell><mxCell id="407" value="&lt;div style=&quot;text-align: center;&quot;&gt;&lt;br&gt;&lt;/div&gt;" style="text;html=1;align=left;verticalAlign=middle;resizable=0;points=[];autosize=1;strokeColor=none;fillColor=none;fontSize=14;fontColor=none;" parent="405" vertex="1"><mxGeometry x="25.351453941571194" y="88.09636363636366" width="18" height="29" as="geometry"/></mxCell><mxCell id="408" value="&lt;div style=&quot;font-size: 14px;&quot;&gt;&lt;div style=&quot;&quot;&gt;&lt;div style=&quot;&quot;&gt;&lt;div style=&quot;&quot;&gt;&lt;span style=&quot;background-color: initial;&quot;&gt;nginx_ugc&lt;/span&gt;&lt;/div&gt;&lt;div style=&quot;&quot;&gt;&lt;span style=&quot;background-color: initial;&quot;&gt;:82&lt;/span&gt;&lt;/div&gt;&lt;/div&gt;&lt;/div&gt;&lt;/div&gt;" style="text;html=1;align=center;verticalAlign=middle;resizable=0;points=[];autosize=1;strokeColor=none;fillColor=none;fontSize=15;" parent="405" vertex="1"><mxGeometry x="26.673219006303793" y="80.60000000000002" width="82" height="46" as="geometry"/></mxCell><mxCell id="409" value="" style="shape=image;verticalLabelPosition=bottom;labelBackgroundColor=default;verticalAlign=top;aspect=fixed;imageAspect=0;image=data:image/svg+xml,PHN2ZyB4bWxuczp4bGluaz0iaHR0cDovL3d3dy53My5vcmcvMTk5OS94bGluayIgeG1sbnM9Imh0dHA6Ly93d3cudzMub3JnLzIwMDAvc3ZnIiB4bWw6c3BhY2U9InByZXNlcnZlIiBzdHlsZT0iZW5hYmxlLWJhY2tncm91bmQ6bmV3IDAgMCA4ODIuNyA2ODguNjsiIHZpZXdCb3g9IjAgMCA4ODIuNyA2ODguNiIgeT0iMHB4IiB4PSIwcHgiIGlkPSJMYXllcl8xIiB2ZXJzaW9uPSIxLjEiPiYjeGE7PHN0eWxlIHR5cGU9InRleHQvY3NzIj4mI3hhOwkuc3Qwe2ZpbGw6I0ZGRkZGRjt9JiN4YTsJLnN0MXtmaWxsOiMwMDk5MDA7fSYjeGE7PC9zdHlsZT4mI3hhOzxwYXRoIGQ9Ik01MDYsNjg4LjZjLTExLjMsMC0yMS43LTQuNC0yOS40LTExLjVjLTgsNy4xLTE4LjEsMTEtMjguNSwxMWgtMC41Yy0xMS4yLTAuMi0yMi4yLTUtMzAuMi0xMy4zJiMxMDsmIzk7Yy04LjEtOC4yLTEyLjYtMTkuMy0xMi41LTMwLjR2LTQuNWwtMTEuOCwyMy44bC01LDEwLjFjLTQuMiw4LjYtMTMsMTQuMS0yMi43LDE0LjFIMjY0LjljLTkuMSwwLTE3LjUtNS0yMi0xMi44bC01LjEtOS4yJiMxMDsmIzk7bC0xMy42LTIzLjl2M2MwLDIzLjgtMTkuNCw0My4yLTQzLjIsNDMuMmMtMTEuNiwwLTIyLjQtNC41LTMwLjYtMTIuN2wtNjMuOS02My45VjY0NWMwLDIzLjgtMTkuNCw0My4yLTQzLjIsNDMuMlMwLDY2OC45LDAsNjQ1VjUwNyYjMTA7JiM5O2MwLTE3LjUsMTAuNS0zMy4yLDI2LjctNDBjNS4zLTIuMiwxMC44LTMuMywxNi41LTMuM2MxMS42LDAsMjIuNCw0LjUsMzAuNiwxMi43bDY0LDY0VjUwN2MwLTIzLjgsMTkuNC00My4yLDQzLjItNDMuMiYjMTA7JiM5O3M0My4yLDE5LjQsNDMuMiw0My4ydjMuN2wxMy40LTI0LjNsNC45LTkuMWM0LjQtOC4xLDEyLjktMTMuMywyMi4yLTEzLjNoMTA0LjdjOS43LDAsMTguNCw1LjUsMjIuNiwxNC4xbDUsMTAuMiYjMTA7JiM5O2MwLjMsMC40LDAuNCwwLjksMC42LDEuM2w3LjMsMTcuNWMwLTExLDQuNS0yMS45LDEyLjUtMzBjOC4xLTguMywxOS4xLTEzLjEsMzAuMi0xMy4zaDAuNWMxMC41LDAsMjAuOSw0LjEsMjksMTEuNSYjMTA7JiM5O2M3LjYtNi45LDE3LjgtMTEuMSwyOC45LTExLjFjMjMuOCwwLDQzLjIsMTkuNCw0My4yLDQzLjJ2MzMuNWw2NC02NGM4LjEtOC4xLDE5LjEtMTIuNywzMC42LTEyLjdjNS43LDAsMTEuMiwxLjEsMTYuNSwzLjMmIzEwOyYjOTtjNC41LDEuOCw4LjYsNC40LDEyLjEsNy42YzcuOS03LjEsMTgtMTAuOSwyOC43LTEwLjljMTEuNSwwLDIyLjMsNC40LDMwLjYsMTIuNmwzOC42LDM4LjRsMzguNi0zOC40YzguMi04LjEsMTkuMS0xMi42LDMwLjYtMTIuNiYjMTA7JiM5O2MxMS42LDAsMjIuNSw0LjUsMzAuNiwxMi44YzE2LjksMTYuOSwxNi44LDQ0LjQtMC4xLDYxLjJsLTM4LjQsMzguMmwzOC4yLDM4LjFjMTYuOSwxNi45LDE3LDQ0LjMsMC4xLDYxLjImIzEwOyYjOTtjLTguMSw4LjItMTkuMSwxMi44LTMwLjYsMTIuOGMtMTEuNiwwLTIyLjQtNC41LTMwLjYtMTIuN2wtMzguNC0zOC4zTDczMiw2NzUuNmMtOC4xLDguMS0xOSwxMi42LTMwLjYsMTIuNiYjMTA7JiM5O2MtMTAuNCwwLTIwLjYtMy45LTI4LjUtMTAuN2MtNy42LDYuOS0xNy44LDExLjItMjksMTEuMmMtMjMuOCwwLTQzLjItMTkuNC00My4yLTQzLjJ2LTMzLjVsLTY0LDY0JiMxMDsmIzk7QzUyOC41LDY4NC4xLDUxNy43LDY4OC42LDUwNiw2ODguNkw1MDYsNjg4LjZ6IE02ODcuMiw1OThsMjEuOS0yMS44bC0yMS45LTIxLjhWNTk4eiIgY2xhc3M9InN0MCIvPiYjeGE7PHBhdGggZD0iTTE4MS4xLDY2My4xYy00LjcsMC05LjMtMS44LTEyLjgtNS4zTDYxLjMsNTUwLjd2OTQuM2MwLDEwLTguMSwxOC0xOCwxOHMtMTgtOC4xLTE4LTE4VjUwNyYjMTA7JiM5O2MwLTcuMyw0LjQtMTMuOSwxMS4yLTE2LjdjNi44LTIuOCwxNC41LTEuMywxOS43LDMuOWwxMDYuOSwxMDdWNTA3YzAtMTAsOC4xLTE4LDE4LTE4YzEwLDAsMTgsOC4xLDE4LDE4djEzNy45JiMxMDsmIzk7QzE5OS4yLDY1NC45LDE5MS4xLDY2My4xLDE4MS4xLDY2My4xIE0yNjQuOSw0ODkuMmwtNSw5LjNsLTM4LjQsNjkuOGwtNSw4LjhsNSw4LjhsMzguNCw2Ny42bDUuMiw5LjJoMTAwLjZsNS0xMC4ybDI4LjctNTcuOSYjMTA7JiM5O2wxMi45LTI2LjJoLTI5LjFsLTczLjQsMC4zYy05LjYtMC4yLTE4LjQsOC42LTE4LjQsMThjMCw5LjYsOC44LDE4LjIsMTguNCwxOGw0NC4zLTAuM2wtMTAuOCwyMS45aC01N0wyNTgsNTc2LjdsMjguNS01MS41aDYwLjYmIzEwOyYjOTtsMTQuMSwyOWgzNi40bC0yMi45LTU1bC01LTEwLjJIMjY0LjkgTTQ0OC4xLDQ4OC45Yy05LjUsMC4xLTE4LDguOC0xNy45LDE4LjN2NDcuMmgzNi4ydi00Ny4yQzQ2Ni41LDQ5Ny42LDQ1Ny43LDQ4OC43LDQ0OC4xLDQ4OC45JiMxMDsmIzk7IE01MDYuMSw2NjMuNGMtMTAsMC0xOC04LjEtMTgtMTh2LTEzOGMwLTEwLDguMS0xOCwxOC0xOGMxMCwwLDE4LDguMSwxOCwxOHY5NC4zbDEwNy0xMDdjNS4yLTUuMiwxMi45LTYuNywxOS43LTMuOSYjMTA7JiM5O3MxMS4yLDkuNCwxMS4yLDE2Ljd2MTM3LjljMCwxMC04LjEsMTgtMTgsMThjLTEwLDAtMTgtOC4xLTE4LTE4VjU1MUw1MTguOSw2NTguMUM1MTUuNSw2NjEuNSw1MTAuOSw2NjMuNCw1MDYuMSw2NjMuNCBNNzk2LjEsNTc2LjImIzEwOyYjOTtsNTYuMi01Ni4xYzcuMS03LjEsNy4xLTE4LjUsMC4xLTI1LjZjLTcuMS03LjEtMTguNS03LjEtMjUuNi0wLjFsLTU2LjMsNTYuMmwtNTYuMy01Ni4yYy03LjEtNy4xLTE4LjUtNy4xLTI1LjYsMC4xJiMxMDsmIzk7Yy03LjEsNy4xLTcuMSwxOC41LDAsMjUuNmw1Ni4yLDU2LjFsLTU2LjEsNTUuOWMtNy4xLDcuMS03LjEsMTguNS0wLjEsMjUuNmMzLjQsMy40LDgsNS40LDEyLjgsNS4zYzQuNiwwLDkuMi0xLjgsMTIuOC01LjNsNTYuMi01NiYjMTA7JiM5O2w1Ni4yLDU2YzMuNCwzLjQsOCw1LjMsMTIuOCw1LjNjNC42LDAsOS4zLTEuOCwxMi44LTUuM2M3LjEtNy4xLDcuMS0xOC41LTAuMS0yNS42TDc5Ni4xLDU3Ni4yeiBNNDQ4LjEsNjYyLjkmIzEwOyYjOTtjLTkuNS0wLjEtMTgtOC44LTE3LjktMTguM3YtNzUuN2gzNi4ydjc1LjdDNDY2LjUsNjU0LjIsNDU3LjcsNjYzLDQ0OC4xLDY2Mi45IiBjbGFzcz0ic3QxIi8+JiN4YTs8cGF0aCBkPSJNNjE0LjEsNDg4LjRjLTE4LjctMC4yLTM2LjMtNy41LTQ5LjQtMjAuN0wzMzguMiwyNDEuM3YxNzYuNGMwLDM4LjktMzEuNyw3MC43LTcwLjcsNzAuN3MtNzAuNy0zMS43LTcwLjctNzAuNyYjMTA7JiM5O1Y3MC43YzAtMjguNywxNy4xLTU0LjMsNDMuNi02NS4zYzguNi0zLjYsMTcuNy01LjQsMjctNS40YzE4LjksMCwzNi43LDcuNCw1MCwyMC43TDU0NCwyNDcuMVY3MC43QzU0NCwzMS43LDU3NS43LDAsNjE0LjYsMCYjMTA7JiM5O3M3MC43LDMxLjcsNzAuNyw3MC43djM0Ny4xYzAsMzguOS0zMS43LDcwLjctNzAuNyw3MC43SDYxNC4xTDYxNC4xLDQ4OC40eiIgY2xhc3M9InN0MCIvPiYjeGE7PHBhdGggZD0iTTYxNC42LDQ2My4yYy0xMS44LDAtMjMuNS00LjYtMzIuMi0xMy4zTDMxMy4xLDE4MC41djIzNy4yYzAsMjUuMi0yMC40LDQ1LjUtNDUuNSw0NS41cy00NS41LTIwLjQtNDUuNS00NS41JiMxMDsmIzk7di0zNDdjMC0xOC41LDExLjEtMzUsMjguMS00Mi4xczM2LjYtMy4yLDQ5LjYsOS45bDI2OS4zLDI2OS40VjcwLjdjMC0yNS4yLDIwLjQtNDUuNSw0NS41LTQ1LjVjMjUuMiwwLDQ1LjUsMjAuNCw0NS41LDQ1LjV2MzQ3LjEmIzEwOyYjOTtDNjYwLjEsNDQyLjksNjM5LjgsNDYzLjIsNjE0LjYsNDYzLjIiIGNsYXNzPSJzdDEiLz4mI3hhOzwvc3ZnPg==;imageBackground=default;" parent="405" vertex="1"><mxGeometry x="32.200000000000045" y="19" width="67.95" height="53.05" as="geometry"/></mxCell><mxCell id="410" value="" style="endArrow=classic;startArrow=classic;html=1;rounded=0;entryX=0.5;entryY=0;entryDx=0;entryDy=0;exitX=0.5;exitY=1;exitDx=0;exitDy=0;" parent="175" source="399" target="406" edge="1"><mxGeometry width="50" height="50" relative="1" as="geometry"><mxPoint x="-139" y="485" as="sourcePoint"/><mxPoint x="-139.30999999999995" y="536" as="targetPoint"/><Array as="points"/></mxGeometry></mxCell><mxCell id="284" value="" style="group" parent="175" vertex="1" connectable="0"><mxGeometry x="29" y="47" width="133" height="134" as="geometry"/></mxCell><mxCell id="285" value="" style="rounded=1;whiteSpace=wrap;html=1;fontSize=15;" parent="284" vertex="1"><mxGeometry width="130.00000000000003" height="134" as="geometry"/></mxCell><mxCell id="286" value="&lt;div style=&quot;text-align: center;&quot;&gt;&lt;br&gt;&lt;/div&gt;" style="text;html=1;align=left;verticalAlign=middle;resizable=0;points=[];autosize=1;strokeColor=none;fillColor=none;fontSize=14;fontColor=none;" parent="284" vertex="1"><mxGeometry x="25.351453941571194" y="88.09636363636366" width="18" height="29" as="geometry"/></mxCell><mxCell id="287" value="&lt;div style=&quot;font-size: 14px;&quot;&gt;&lt;div style=&quot;&quot;&gt;&lt;div style=&quot;&quot;&gt;&lt;span style=&quot;background-color: initial;&quot;&gt;redis_ugc&lt;/span&gt;&lt;/div&gt;&lt;div style=&quot;&quot;&gt;&lt;span style=&quot;background-color: initial;&quot;&gt;:6382&lt;/span&gt;&lt;/div&gt;&lt;/div&gt;&lt;/div&gt;" style="text;html=1;align=center;verticalAlign=middle;resizable=0;points=[];autosize=1;strokeColor=none;fillColor=none;fontSize=15;" parent="284" vertex="1"><mxGeometry x="26.673219006303793" y="80.60000000000002" width="79" height="46" as="geometry"/></mxCell><mxCell id="288" value="" style="shape=image;verticalLabelPosition=bottom;labelBackgroundColor=default;verticalAlign=top;aspect=fixed;imageAspect=0;image=data:image/svg+xml,PHN2ZyB4bWxucz0iaHR0cDovL3d3dy53My5vcmcvMjAwMC9zdmciIHByZXNlcnZlQXNwZWN0UmF0aW89InhNaW5ZTWluIG1lZXQiIHZpZXdCb3g9IjAgMC41ODQwMjI1MjE5NzI2NTYyIDI1NiAyMTguNTg2OTE0MDYyNSIgaGVpZ2h0PSIyMTM0LjIwMzE0Mjc1NTY4MTciIHdpZHRoPSIyNTAwIj48cGF0aCBmaWxsPSIjOTEyNjI2IiBkPSJNMjQ1Ljk3IDE2OC45NDNjLTEzLjY2MiA3LjEyMS04NC40MzQgMzYuMjItOTkuNTAxIDQ0LjA3NS0xNS4wNjcgNy44NTYtMjMuNDM3IDcuNzgtMzUuMzQgMi4wOS0xMS45MDItNS42OS04Ny4yMTYtMzYuMTEyLTEwMC43ODMtNDIuNTk3QzMuNTY2IDE2OS4yNzEgMCAxNjYuNTM1IDAgMTYzLjk1MXYtMjUuODc2czk4LjA1LTIxLjM0NSAxMTMuODc5LTI3LjAyNGMxNS44MjgtNS42NzkgMjEuMzItNS44ODQgMzQuNzktLjk1IDEzLjQ3MiA0LjkzNiA5NC4wMTggMTkuNDY4IDEwNy4zMzEgMjQuMzQ0bC0uMDA2IDI1LjUxYy4wMDIgMi41NTgtMy4wNyA1LjM2NC0xMC4wMjQgOC45ODgiLz48cGF0aCBmaWxsPSIjQzYzMDJCIiBkPSJNMjQ1Ljk2NSAxNDMuMjJjLTEzLjY2MSA3LjExOC04NC40MzEgMzYuMjE4LTk5LjQ5OCA0NC4wNzItMTUuMDY2IDcuODU3LTIzLjQzNiA3Ljc4LTM1LjMzOCAyLjA5LTExLjkwMy01LjY4Ni04Ny4yMTQtMzYuMTEzLTEwMC43OC00Mi41OTQtMTMuNTY2LTYuNDg1LTEzLjg1LTEwLjk0OC0uNTI0LTE2LjE2NiAxMy4zMjYtNS4yMiA4OC4yMjQtMzQuNjA1IDEwNC4wNTUtNDAuMjg0IDE1LjgyOC01LjY3NyAyMS4zMTktNS44ODQgMzQuNzg5LS45NDggMTMuNDcxIDQuOTM0IDgzLjgxOSAzMi45MzUgOTcuMTMgMzcuODEgMTMuMzE2IDQuODgxIDEzLjgyNyA4LjkuMTY2IDE2LjAyIi8+PHBhdGggZmlsbD0iIzkxMjYyNiIgZD0iTTI0NS45NyAxMjcuMDc0Yy0xMy42NjIgNy4xMjItODQuNDM0IDM2LjIyLTk5LjUwMSA0NC4wNzgtMTUuMDY3IDcuODUzLTIzLjQzNyA3Ljc3Ny0zNS4zNCAyLjA4Ny0xMS45MDMtNS42ODctODcuMjE2LTM2LjExMi0xMDAuNzgzLTQyLjU5N0MzLjU2NiAxMjcuNDAyIDAgMTI0LjY3IDAgMTIyLjA4NVY5Ni4yMDZzOTguMDUtMjEuMzQ0IDExMy44NzktMjcuMDIzYzE1LjgyOC01LjY3OSAyMS4zMi01Ljg4NSAzNC43OS0uOTVDMTYyLjE0MiA3My4xNjggMjQyLjY4OCA4Ny42OTcgMjU2IDkyLjU3NGwtLjAwNiAyNS41MTNjLjAwMiAyLjU1Ny0zLjA3IDUuMzYzLTEwLjAyNCA4Ljk4NyIvPjxwYXRoIGZpbGw9IiNDNjMwMkIiIGQ9Ik0yNDUuOTY1IDEwMS4zNTFjLTEzLjY2MSA3LjEyLTg0LjQzMSAzNi4yMTgtOTkuNDk4IDQ0LjA3NS0xNS4wNjYgNy44NTQtMjMuNDM2IDcuNzc3LTM1LjMzOCAyLjA4Ny0xMS45MDMtNS42ODYtODcuMjE0LTM2LjExMi0xMDAuNzgtNDIuNTk0LTEzLjU2Ni02LjQ4My0xMy44NS0xMC45NDctLjUyNC0xNi4xNjdDMjMuMTUxIDgzLjUzNSA5OC4wNSA1NC4xNDggMTEzLjg4IDQ4LjQ3YzE1LjgyOC01LjY3OCAyMS4zMTktNS44ODQgMzQuNzg5LS45NDkgMTMuNDcxIDQuOTM0IDgzLjgxOSAzMi45MzMgOTcuMTMgMzcuODEgMTMuMzE2IDQuODggMTMuODI3IDguOS4xNjYgMTYuMDIiLz48cGF0aCBmaWxsPSIjOTEyNjI2IiBkPSJNMjQ1Ljk3IDgzLjY1M2MtMTMuNjYyIDcuMTItODQuNDM0IDM2LjIyLTk5LjUwMSA0NC4wNzgtMTUuMDY3IDcuODU0LTIzLjQzNyA3Ljc3Ny0zNS4zNCAyLjA4Ny0xMS45MDMtNS42ODctODcuMjE2LTM2LjExMy0xMDAuNzgzLTQyLjU5NUMzLjU2NiA4My45OCAwIDgxLjI0NyAwIDc4LjY2NXYtMjUuODhzOTguMDUtMjEuMzQzIDExMy44NzktMjcuMDIxYzE1LjgyOC01LjY4IDIxLjMyLTUuODg0IDM0Ljc5LS45NUMxNjIuMTQyIDI5Ljc0OSAyNDIuNjg4IDQ0LjI3OCAyNTYgNDkuMTU1bC0uMDA2IDI1LjUxMmMuMDAyIDIuNTU1LTMuMDcgNS4zNjEtMTAuMDI0IDguOTg2Ii8+PHBhdGggZmlsbD0iI0M2MzAyQiIgZD0iTTI0NS45NjUgNTcuOTNjLTEzLjY2MSA3LjEyLTg0LjQzMSAzNi4yMi05OS40OTggNDQuMDc0LTE1LjA2NiA3Ljg1NC0yMy40MzYgNy43NzctMzUuMzM4IDIuMDlDOTkuMjI3IDk4LjQwNCAyMy45MTUgNjcuOTggMTAuMzUgNjEuNDk3LTMuMjE3IDU1LjAxNS0zLjUgNTAuNTUgOS44MjUgNDUuMzMxIDIzLjE1MSA0MC4xMTMgOTguMDUgMTAuNzMgMTEzLjg4IDUuMDVjMTUuODI4LTUuNjc5IDIxLjMxOS01Ljg4MyAzNC43ODktLjk0OCAxMy40NzEgNC45MzUgODMuODE5IDMyLjkzNCA5Ny4xMyAzNy44MTEgMTMuMzE2IDQuODc2IDEzLjgyNyA4Ljg5Ny4xNjYgMTYuMDE3Ii8+PHBhdGggZmlsbD0iI0ZGRiIgZD0iTTE1OS4yODMgMzIuNzU3bC0yMi4wMSAyLjI4NS00LjkyNyAxMS44NTYtNy45NTgtMTMuMjMtMjUuNDE1LTIuMjg0IDE4Ljk2NC02LjgzOS01LjY5LTEwLjQ5OCAxNy43NTUgNi45NDQgMTYuNzM4LTUuNDgtNC41MjQgMTAuODU1IDE3LjA2NyA2LjM5MU0xMzEuMDMyIDkwLjI3NUw4OS45NTUgNzMuMjM4bDU4Ljg2LTkuMDM1LTE3Ljc4MyAyNi4wNzJNNzQuMDgyIDM5LjM0N2MxNy4zNzUgMCAzMS40NiA1LjQ2IDMxLjQ2IDEyLjE5NCAwIDYuNzM2LTE0LjA4NSAxMi4xOTUtMzEuNDYgMTIuMTk1cy0zMS40Ni01LjQ2LTMxLjQ2LTEyLjE5NWMwLTYuNzM0IDE0LjA4NS0xMi4xOTQgMzEuNDYtMTIuMTk0Ii8+PHBhdGggZmlsbD0iIzYyMUIxQyIgZD0iTTE4NS4yOTUgMzUuOTk4bDM0LjgzNiAxMy43NjYtMzQuODA2IDEzLjc1My0uMDMtMjcuNTIiLz48cGF0aCBmaWxsPSIjOUEyOTI4IiBkPSJNMTQ2Ljc1NSA1MS4yNDNsMzguNTQtMTUuMjQ1LjAzIDI3LjUxOS0zLjc3OSAxLjQ3OC0zNC43OTEtMTMuNzUyIi8+PC9zdmc+;" parent="284" vertex="1"><mxGeometry x="25.349999999999998" y="8" width="81.65" height="69.71" as="geometry"/></mxCell><mxCell id="1d_qB0QXYS2EEvc3A-e--437" value="" style="endArrow=classic;startArrow=classic;html=1;rounded=0;exitX=0;exitY=0.5;exitDx=0;exitDy=0;entryX=1;entryY=0.75;entryDx=0;entryDy=0;" parent="175" source="344" target="399" edge="1"><mxGeometry width="50" height="50" relative="1" as="geometry"><mxPoint x="350.69000000000005" y="234" as="sourcePoint"/><mxPoint x="337" y="307" as="targetPoint"/><Array as="points"/></mxGeometry></mxCell><mxCell id="1d_qB0QXYS2EEvc3A-e--413" value="" style="group" parent="175" vertex="1" connectable="0"><mxGeometry x="412" y="36" width="150" height="145" as="geometry"/></mxCell><mxCell id="1d_qB0QXYS2EEvc3A-e--414" value="&lt;div style=&quot;&quot;&gt;&lt;br&gt;&lt;/div&gt;" style="text;html=1;align=left;verticalAlign=middle;resizable=0;points=[];autosize=1;strokeColor=none;fillColor=none;fontSize=14;fontColor=none;" parent="1d_qB0QXYS2EEvc3A-e--413" vertex="1"><mxGeometry x="26" y="89.95238095238096" width="18" height="29" as="geometry"/></mxCell><mxCell id="1d_qB0QXYS2EEvc3A-e--415" value="" style="group" parent="1d_qB0QXYS2EEvc3A-e--413" vertex="1" connectable="0"><mxGeometry x="10.689999999999998" y="-2" width="130" height="134" as="geometry"/></mxCell><mxCell id="1d_qB0QXYS2EEvc3A-e--416" value="" style="rounded=1;whiteSpace=wrap;html=1;fontSize=15;" parent="1d_qB0QXYS2EEvc3A-e--415" vertex="1"><mxGeometry width="130.00000000000003" height="134" as="geometry"/></mxCell><mxCell id="1d_qB0QXYS2EEvc3A-e--417" value="&lt;div style=&quot;text-align: center;&quot;&gt;&lt;br&gt;&lt;/div&gt;" style="text;html=1;align=left;verticalAlign=middle;resizable=0;points=[];autosize=1;strokeColor=none;fillColor=none;fontSize=14;fontColor=none;" parent="1d_qB0QXYS2EEvc3A-e--415" vertex="1"><mxGeometry x="25.351453941571194" y="88.09636363636366" width="18" height="29" as="geometry"/></mxCell><mxCell id="1d_qB0QXYS2EEvc3A-e--418" value="&lt;div style=&quot;font-size: 14px;&quot;&gt;&lt;div style=&quot;&quot;&gt;&lt;div style=&quot;&quot;&gt;&lt;div style=&quot;&quot;&gt;&lt;span style=&quot;background-color: initial;&quot;&gt;kafka_ugc&lt;/span&gt;&lt;/div&gt;&lt;div style=&quot;&quot;&gt;&lt;span style=&quot;background-color: initial;&quot;&gt;:9092&lt;/span&gt;&lt;/div&gt;&lt;/div&gt;&lt;/div&gt;&lt;/div&gt;" style="text;html=1;align=center;verticalAlign=middle;resizable=0;points=[];autosize=1;strokeColor=none;fillColor=none;fontSize=15;" parent="1d_qB0QXYS2EEvc3A-e--415" vertex="1"><mxGeometry x="26.673219006303793" y="80.60000000000002" width="82" height="46" as="geometry"/></mxCell><mxCell id="1d_qB0QXYS2EEvc3A-e--421" value="" style="shape=image;verticalLabelPosition=bottom;labelBackgroundColor=default;verticalAlign=top;aspect=fixed;imageAspect=0;image=data:image/svg+xml,PHN2ZyB4bWxucz0iaHR0cDovL3d3dy53My5vcmcvMjAwMC9zdmciIGZpbGw9IiMyMzFmMjAiIHByZXNlcnZlQXNwZWN0UmF0aW89InhNaWRZTWlkIiBoZWlnaHQ9IjUyIiB3aWR0aD0iMTExLjk5NjAwMjE5NzI2NTYyIiB2aWV3Qm94PSI0IDQgMTExLjk5NjAwMjE5NzI2NTYyIDUyIj48cGF0aCBkPSJNMTQuOSA4LjYyN2MtLjU2NS0uNTc4LTEuMzUtLjkzMy0yLjIyNC0uOTMzYTMuMDUgMy4wNSAwIDAgMC0yLjIwOC45MzNoLS4wMTVhMy4xOCAzLjE4IDAgMCAwLS45MjMgMi4yNTggMy4xOCAzLjE4IDAgMCAwIC45MTMgMi4yNTJsLjAxNS4wMTZhMy4wNiAzLjA2IDAgMCAwIDIuMjA4LjkyM2MuODc0IDAgMS42NTgtLjM1IDIuMjI0LS45MjNsLjAwNi0uMDE2Yy41NjYtLjU2OC45LTEuMzYzLjktMi4yNTJhMy4yIDMuMiAwIDAgMC0uOTExLTIuMjU3aC4wMDV6bS0yLjIyNCA0My42OGMuODc0IDAgMS42NTgtLjM2MiAyLjIyNC0uOTNsLjAwNi0uMDE2Yy41NjYtLjU2Ni45LTEuMzY2LjktMi4yNDUgMC0uOS0uMzQ1LTEuNjg2LS45LTIuMjYySDE0LjljLS41NjUtLjU4My0xLjM1LS45MzYtMi4yMjQtLjkzNmEzLjAzIDMuMDMgMCAwIDAtMi4yMDguOTM2aC0uMDE1YTMuMjIgMy4yMiAwIDAgMC0uOTEzIDIuMjYyIDMuMTggMy4xOCAwIDAgMCAuOTEzIDIuMjQ1bC4wMTUuMDE2YTMuMDkgMy4wOSAwIDAgMCAyLjIwOC45Mjl6TTI5Ljc2IDQyLjY0YTMuMSAzLjEgMCAwIDAgMS45MS0xLjQ4MmwuMDU4LS4xMTJhMy4xOSAzLjE5IDAgMCAwIC4yNDgtMi4zMTFjLS4yMDYtLjc5Ni0uNy0xLjUwMi0xLjQ2Mi0xLjk0bC0uMDQ0LS4wM2EzLjA4IDMuMDggMCAwIDAtMi4zMzQtLjI4NmMtLjc4LjE5OC0xLjQ4LjcyNy0xLjkwOCAxLjQ4N2EzLjI2IDMuMjYgMCAwIDAtLjMxNiAyLjQyNSAzLjIzIDMuMjMgMCAwIDAgMS40NjEgMS45NDJoLjAwNWMuNzUuNDQgMS41OTcuNTE3IDIuMzgzLjN6bS0xMy44NzctMTUuOWMtLjgyMy0uODM1LTEuOTYtMS4zNi0zLjIxNi0xLjM2YTQuNDkgNC40OSAwIDAgMC0zLjIxIDEuMzU5Yy0uODIuODM0LTEuMzI0IDEuOTg1LTEuMzI0IDMuMjY1YTQuNjkgNC42OSAwIDAgMCAxLjMyNCAzLjI3OWMuODIuODMgMS45NTQgMS4zNSAzLjIgMS4zNXMyLjM5My0uNTIgMy4yMTYtMS4zNWE0LjY5IDQuNjkgMCAwIDAgMS4zMjYtMy4yOCA0LjYzIDQuNjMgMCAwIDAtMS4zMjYtMy4yNjV6bS0xLjgtNS40MzhhOC41NyA4LjU3IDAgMCAxIDQuNzE2IDIuNDc5aC4wMWE4LjYyIDguNjIgMCAwIDEgLjU3My42NDdsMy4xMy0xLjg0M2E2LjkgNi45IDAgMCAxLS4xMDItMy45MTdjLjQ0Ni0xLjcgMS41My0zLjIyIDMuMTUyLTQuMTczbC4wNTMtLjAzNGE2LjYzIDYuNjMgMCAwIDEgNS4wNzctLjY2MyA2Ljc1IDYuNzUgMCAwIDEgNC4xIDMuMnYuMDA1Yy45MzIgMS42NCAxLjEyIDMuNTIyLjY3NyA1LjIxNi0uNDQ0IDEuNy0xLjUzIDMuMjMtMy4xNTIgNC4xNzhsLS40MjguMjU3aC0uMDQzYTYuNjkgNi42OSAwIDAgMS00LjY2My40MzUgNi43NiA2Ljc2IDAgMCAxLTMuMjc3LTIuMDQ0bC0zLjEyNiAxLjgzN2E4Ljg0IDguODQgMCAwIDEgLjU1OCAzLjExMmMwIDEuMDk2LS4xOTggMi4xNTQtLjU1OCAzLjEyNmwzLjEyNiAxLjgzM2MuODkzLTEuMDE4IDIuMDM0LTEuNyAzLjI3Ny0yLjA0NSAxLjY3LS40NjQgMy41MTgtLjI2NyA1LjEzNC42OTJsLjEwNC4wNXYuMDA1YTYuODYgNi44NiAwIDAgMSAzLjA0OCA0LjEyOSA2Ljk3IDYuOTcgMCAwIDEtLjY3NyA1LjIxMWwtLjA1Ni4xMTVoLS4wMDdhNi44MiA2LjgyIDAgMCAxLTQuMDQyIDMuMTEyYy0xLjY3LjQ0OC0zLjUyLjI1Ny01LjEzNS0uNjg4di0uMDEzYTYuODQgNi44NCAwIDAgMS0zLjE1Mi00LjE3NSA2Ljg3IDYuODcgMCAwIDEgLjEwMi0zLjkxMWwtMy4xMy0xLjgzOGE4LjczIDguNzMgMCAwIDEtLjU3My42MzdsLS4wMS4wMWMtMS4yNTIgMS4yOC0yLjkgMi4xNy00LjcxNiAyLjQ2NXYzLjY4YTYuNjkgNi42OSAwIDAgMSAzLjM3NyAxLjg2N2wuMDA1LjAxYzEuMjIzIDEuMjM4IDEuOTggMi45NjQgMS45OCA0Ljg2YTYuOSA2LjkgMCAwIDEtMS45OCA0Ljg1bC0uMDA1LjAyQzE2LjIyIDU1LjIzIDE0LjUzIDU2IDEyLjY2NyA1NmMtMS44NTQgMC0zLjU0OC0uNzctNC43NzYtMi4wMTVoLS4wMDV2LS4wMmE2LjkgNi45IDAgMCAxLTEuOTgzLTQuODUxYzAtMS44OTcuNzYtMy42MjIgMS45ODMtNC44NnYtLjAxaC4wMDVhNi41OCA2LjU4IDAgMCAxIDMuMzc0LTEuODY3di0zLjY4Yy0xLjgyNS0uMjk2LTMuNDYtMS4xODUtNC43LTIuNDY1bC0uMDEzLS4wMUE4Ljg4IDguODggMCAwIDEgNCAyOS45OTVjMC0yLjQzLjk3OC00LjYyOCAyLjU0LTYuMjIzaC4wMTNhOC41NSA4LjU1IDAgMCAxIDQuNzExLTIuNDc5di0zLjY2NWE2LjgxIDYuODEgMCAwIDEtMy4zNzQtMS44NzJoLS4wMDV2LS4wMWE2LjkyIDYuOTIgMCAwIDEtMS45ODMtNC44NjEgNi45MyA2LjkzIDAgMCAxIDEuOTgzLTQuODZMNy45IDYuMDJBNi42NSA2LjY1IDAgMCAxIDEyLjY2NyA0YzEuODY0IDAgMy41NTMuNzcgNC43ODQgMi4wMnYuMDA1aC4wMDVjMS4yMjMgMS4yNDUgMS45OCAyLjk3MyAxLjk4IDQuODZhNi45NCA2Ljk0IDAgMCAxLTEuOTggNC44NmwtLjAwNS4wMWMtLjkxMi45MjQtMi4wNzYgMS41ODUtMy4zNzcgMS44NzJ2My42NjV6bTE3LjU4NS0yLjQ0NWwtLjAyNi0uMDRhMy4xNSAzLjE1IDAgMCAwLTEuODgzLTEuNDQ3IDMuMDkgMy4wOSAwIDAgMC0yLjM4OC4zMTdoLjAwNWMtLjc1Mi40MzQtMS4yNTUgMS4xNDUtMS40NjYgMS45NGEzLjI0IDMuMjQgMCAwIDAgLjMxNiAyLjQyNWwuMDE0LjAyYy40MzMuNzUgMS4xMjMgMS4yNTUgMS44OTMgMS40NTguNzczLjIyMiAxLjYzNi4xMjggMi4zNzgtLjMxMmwuMDQtLjAyYy43My0uNDQ0IDEuMjItMS4xNDYgMS40MjItMS45MTYuMjA3LS43OTUuMTI1LTEuNjY0LS4zMDUtMi40MjVtMTMuODkyIDEuMDc3aDMuNDkzdjEwLjg1Mmw1LjAzOC01LjY3aDQuMmwtNi4wODIgNi41N0w1OC4yOTYgNDBoLTRsLTUuMjUyLTcuNDM4VjQwSDQ1LjU1VjE5LjkyNG0xNi43NzggMTIuNjkzYzAgMS44NDggMS4zMDYgNC41MzQgNC40NTMgNC41MzQgMS45NDcgMCAzLjIyOC0xLjAzMiAzLjg5My0yLjM4NS4zNDgtLjY1Ny41MDgtMS4zNi41NjItMi4xYTQuNzUgNC43NSAwIDAgMC0uNDAyLTIuMDk1Yy0uNjEyLTEuNDA3LTEuOTcyLTIuNjI3LTQuMDc4LTIuNjI3LTIuODI1IDAtNC40MjcgMi4zMy00LjQyNyA0LjYzOHYuMDI1ek03NC43IDQwaC0zLjQ5NXYtMi4xNDNjLS45MyAxLjczMy0yLjg3OCAyLjYwMy00LjkzMiAyLjYwMy00LjY5MyAwLTcuNDQtMy43Mi03LjQ0LTcuOTIyIDAtNC42OTMgMy4zMzMtNy44OTQgNy40NC03Ljg5NCAyLjY2NiAwIDQuMjkyIDEuNDM4IDQuOTMyIDIuNjMzdi0yLjE3M0g3NC43VjQwbTMuOTU3LTEyLjE1NGgtMS44di0yLjc0aDEuOHYtLjg0YzAtNC40MjYgMy4zMDctNC42OTMgNS44MTUtNC43MjJ2Mi43MzZjLS44ODIgMC0yLjMyIDAtMi4zMiAyLjA5NHYuNzNoMi4zMnYyLjc0aC0yLjMyVjQwaC0zLjQ5NVYyNy44NDZtOC4yLTcuOTIyaDMuNDkydjEwLjg1Mmw1LjA0LTUuNjdoNC4ybC02LjA4MiA2LjU3TDk5LjYgNDBoLTRsLTUuMjUyLTcuNDM4VjQwaC0zLjQ5MlYxOS45MjRtMTYuNzggMTIuNjkzYzAgMS44NDggMS4zMDUgNC41MzQgNC40NTMgNC41MzQgMS45NDQgMCAzLjIyNi0xLjAzMiAzLjktMi4zODUuMzUtLjY1Ny41LTEuMzYuNTYyLTIuMS4wMjQtLjcwNy0uMTA3LTEuNDQyLS40MDMtMi4wOTUtLjYtMS40MDctMS45Ny0yLjYyNy00LjA3Ny0yLjYyNy0yLjgyNiAwLTQuNDI3IDIuMzMtNC40MjcgNC42Mzh2LjAyNXpNMTE1Ljk5NiA0MGgtMy40OTR2LTIuMTQzYy0uOTMzIDEuNzMzLTIuODggMi42MDMtNC45MzIgMi42MDMtNC42OTMgMC03LjQzNy0zLjcyLTcuNDM3LTcuOTIyIDAtNC42OTMgMy4zMy03Ljg5NCA3LjQzNy03Ljg5NCAyLjY2NSAwIDQuMjkyIDEuNDM4IDQuOTMyIDIuNjMzdi0yLjE3M2gzLjQ5NFY0MCIvPjwvc3ZnPg==;" parent="1d_qB0QXYS2EEvc3A-e--415" vertex="1"><mxGeometry x="18.22" y="28" width="90.45" height="42" as="geometry"/></mxCell><mxCell id="1d_qB0QXYS2EEvc3A-e--447" value="" style="group" parent="175" vertex="1" connectable="0"><mxGeometry x="412" y="217" width="150" height="145" as="geometry"/></mxCell><mxCell id="1d_qB0QXYS2EEvc3A-e--448" value="&lt;div style=&quot;&quot;&gt;&lt;br&gt;&lt;/div&gt;" style="text;html=1;align=left;verticalAlign=middle;resizable=0;points=[];autosize=1;strokeColor=none;fillColor=none;fontSize=14;fontColor=none;" parent="1d_qB0QXYS2EEvc3A-e--447" vertex="1"><mxGeometry x="26" y="89.95238095238096" width="18" height="29" as="geometry"/></mxCell><mxCell id="1d_qB0QXYS2EEvc3A-e--449" value="" style="group" parent="1d_qB0QXYS2EEvc3A-e--447" vertex="1" connectable="0"><mxGeometry x="10.689999999999998" y="-2" width="130" height="134" as="geometry"/></mxCell><mxCell id="1d_qB0QXYS2EEvc3A-e--450" value="" style="rounded=1;whiteSpace=wrap;html=1;fontSize=15;" parent="1d_qB0QXYS2EEvc3A-e--449" vertex="1"><mxGeometry width="130.00000000000003" height="134" as="geometry"/></mxCell><mxCell id="1d_qB0QXYS2EEvc3A-e--451" value="&lt;div style=&quot;text-align: center;&quot;&gt;&lt;br&gt;&lt;/div&gt;" style="text;html=1;align=left;verticalAlign=middle;resizable=0;points=[];autosize=1;strokeColor=none;fillColor=none;fontSize=14;fontColor=none;" parent="1d_qB0QXYS2EEvc3A-e--449" vertex="1"><mxGeometry x="25.351453941571194" y="88.09636363636366" width="18" height="29" as="geometry"/></mxCell><mxCell id="1d_qB0QXYS2EEvc3A-e--452" value="&lt;div style=&quot;font-size: 14px;&quot;&gt;&lt;div style=&quot;&quot;&gt;&lt;div style=&quot;&quot;&gt;&lt;div style=&quot;&quot;&gt;&lt;span style=&quot;background-color: initial;&quot;&gt;clickhouse_ugc&lt;/span&gt;&lt;/div&gt;&lt;div style=&quot;&quot;&gt;&lt;span style=&quot;background-color: initial;&quot;&gt;:9000&lt;/span&gt;&lt;/div&gt;&lt;/div&gt;&lt;/div&gt;&lt;/div&gt;" style="text;html=1;align=center;verticalAlign=middle;resizable=0;points=[];autosize=1;strokeColor=none;fillColor=none;fontSize=15;" parent="1d_qB0QXYS2EEvc3A-e--449" vertex="1"><mxGeometry x="10.673219006303793" y="80.60000000000002" width="114" height="46" as="geometry"/></mxCell><mxCell id="1d_qB0QXYS2EEvc3A-e--453" value="" style="shape=image;verticalLabelPosition=bottom;labelBackgroundColor=default;verticalAlign=top;aspect=fixed;imageAspect=0;image=data:image/svg+xml,PHN2ZyB4bWxucz0iaHR0cDovL3d3dy53My5vcmcvMjAwMC9zdmciIHdpZHRoPSIyNTAwIiB2aWV3Qm94PSIwIDAgOSA4IiBoZWlnaHQ9IjIyMjIiPjxwYXRoIGZpbGw9IiNmMDAiIGQ9Im0wIDdoMXYxaC0xeiIvPjxwYXRoIGZpbGw9IiNmYzAiIGQ9Im0wIDBoMXY3aC0xem0yIDBoMXY4aC0xem0yIDBoMXY4aC0xem0yIDBoMXY4aC0xem0yIDMuMjVoMXYxLjVoLTF6Ii8+PC9zdmc+;" parent="1d_qB0QXYS2EEvc3A-e--449" vertex="1"><mxGeometry x="31.31" y="11.93" width="70.99" height="63.07" as="geometry"/></mxCell><mxCell id="gUMo3eNA8tKRfTmfy7Yu-415" value="" style="endArrow=classic;html=1;rounded=0;entryX=0;entryY=0.464;entryDx=0;entryDy=0;entryPerimeter=0;exitX=1;exitY=0.25;exitDx=0;exitDy=0;" parent="175" source="399" target="1d_qB0QXYS2EEvc3A-e--416" edge="1"><mxGeometry width="50" height="50" relative="1" as="geometry"><mxPoint x="337" y="217" as="sourcePoint"/><mxPoint x="268" y="335" as="targetPoint"/></mxGeometry></mxCell><mxCell id="gUMo3eNA8tKRfTmfy7Yu-416" value="" style="endArrow=classic;html=1;rounded=0;entryX=0.5;entryY=0;entryDx=0;entryDy=0;exitX=0.5;exitY=1;exitDx=0;exitDy=0;" parent="175" source="1d_qB0QXYS2EEvc3A-e--416" target="1d_qB0QXYS2EEvc3A-e--450" edge="1"><mxGeometry width="50" height="50" relative="1" as="geometry"><mxPoint x="344.00000000000045" y="268" as="sourcePoint"/><mxPoint x="420.69000000000005" y="268.17599999999993" as="targetPoint"/></mxGeometry></mxCell><mxCell id="gUMo3eNA8tKRfTmfy7Yu-418" value="&lt;font style=&quot;font-size: 15px;&quot;&gt;ETL&lt;/font&gt;" style="text;html=1;align=center;verticalAlign=middle;resizable=0;points=[];autosize=1;strokeColor=none;fillColor=none;" parent="175" vertex="1"><mxGeometry x="492" y="176" width="46" height="30" as="geometry"/></mxCell><mxCell id="341" value="" style="group" parent="175" vertex="1" connectable="0"><mxGeometry x="412" y="379" width="150" height="145" as="geometry"/></mxCell><mxCell id="342" value="&lt;div style=&quot;&quot;&gt;&lt;br&gt;&lt;/div&gt;" style="text;html=1;align=left;verticalAlign=middle;resizable=0;points=[];autosize=1;strokeColor=none;fillColor=none;fontSize=14;fontColor=none;" parent="341" vertex="1"><mxGeometry x="26" y="89.95238095238096" width="18" height="29" as="geometry"/></mxCell><mxCell id="343" value="" style="group" parent="341" vertex="1" connectable="0"><mxGeometry x="10.689999999999998" y="-2" width="130" height="134" as="geometry"/></mxCell><mxCell id="344" value="" style="rounded=1;whiteSpace=wrap;html=1;fontSize=15;" parent="343" vertex="1"><mxGeometry width="130.00000000000003" height="134" as="geometry"/></mxCell><mxCell id="345" value="&lt;div style=&quot;text-align: center;&quot;&gt;&lt;br&gt;&lt;/div&gt;" style="text;html=1;align=left;verticalAlign=middle;resizable=0;points=[];autosize=1;strokeColor=none;fillColor=none;fontSize=14;fontColor=none;" parent="343" vertex="1"><mxGeometry x="25.351453941571194" y="88.09636363636366" width="18" height="29" as="geometry"/></mxCell><mxCell id="346" value="&lt;div style=&quot;font-size: 14px;&quot;&gt;&lt;div style=&quot;&quot;&gt;&lt;div style=&quot;&quot;&gt;&lt;div style=&quot;&quot;&gt;&lt;span style=&quot;background-color: initial;&quot;&gt;mongo_ugc&lt;/span&gt;&lt;/div&gt;&lt;div style=&quot;&quot;&gt;&lt;span style=&quot;background-color: initial;&quot;&gt;:27017&lt;/span&gt;&lt;/div&gt;&lt;/div&gt;&lt;/div&gt;&lt;/div&gt;" style="text;html=1;align=center;verticalAlign=middle;resizable=0;points=[];autosize=1;strokeColor=none;fillColor=none;fontSize=15;" parent="343" vertex="1"><mxGeometry x="21.673219006303793" y="80.60000000000002" width="91" height="46" as="geometry"/></mxCell><mxCell id="348" value="" style="shape=image;verticalLabelPosition=bottom;labelBackgroundColor=default;verticalAlign=top;aspect=fixed;imageAspect=0;image=data:image/svg+xml,PHN2ZyB4bWxucz0iaHR0cDovL3d3dy53My5vcmcvMjAwMC9zdmciIHZpZXdCb3g9IjAgMCAzMiAzMiIgaGVpZ2h0PSI2NCIgd2lkdGg9IjY0Ij48cGF0aCBmaWxsPSIjNTk5NjM2IiBkPSJNMTUuOS4wODdsLjg1NCAxLjYwNGMuMTkyLjI5Ni40LjU1OC42NDUuODAyLjcxNS43MTUgMS4zOTQgMS40NjQgMi4wMDQgMi4yNjYgMS40NDcgMS45IDIuNDIzIDQuMDEgMy4xMiA2LjI5Mi40MTggMS4zOTQuNjQ1IDIuODI0LjY2MiA0LjI3LjA3IDQuMzIzLTEuNDEyIDguMDM1LTQuNCAxMS4xMi0uNDg4LjQ4OC0xLjAxLjk0LTEuNTcgMS4zNDItLjI5NiAwLS40MzYtLjIyNy0uNTU4LS40MzYtLjIyNy0uMzgzLS4zNjYtLjgyLS40MzYtMS4yNTUtLjEwNS0uNTIzLS4xNzQtMS4wNDYtLjE0LTEuNTg2di0uMjQ0QzE2LjA1NyAyNC4yMSAxNS43OTYuMjEgMTUuOS4wODd6Ii8+PHBhdGggZmlsbD0iIzZjYWM0OCIgZD0iTTE1LjkuMDM0Yy0uMDM1LS4wNy0uMDctLjAxNy0uMTA1LjAxNy4wMTcuMzUtLjEwNS42NjItLjI5Ni45Ni0uMjEuMjk2LS40ODguNTIzLS43NjcuNzY3LTEuNTUgMS4zNDItMi43NyAyLjk2My0zLjc0NyA0Ljc3Ni0xLjMgMi40NC0xLjk3IDUuMDU1LTIuMTYgNy44MDgtLjA4Ny45OTMuMzE0IDQuNDk3LjYyNyA1LjUwOC44NTQgMi42ODQgMi4zODggNC45MzMgNC4zNzUgNi44ODUuNDg4LjQ3IDEuMDEuOTA2IDEuNTUgMS4zMjUuMTU3IDAgLjE3NC0uMTQuMjEtLjI0NGE0Ljc4IDQuNzggMCAwIDAgLjE1Ny0uNjhsLjM1LTIuNjE0TDE1LjkuMDM0eiIvPjxwYXRoIGZpbGw9IiNjMmJmYmYiIGQ9Ik0xNi43NTQgMjguODQ1Yy4wMzUtLjQuMjI3LS43MzIuNDM2LTEuMDYzLS4yMS0uMDg3LS4zNjYtLjI2LS40ODgtLjQ1My0uMTA1LS4xNzQtLjE5Mi0uMzgzLS4yNi0uNTc1LS4yNDQtLjczMi0uMjk2LTEuNS0uMzY2LTIuMjQ4di0uNDUzYy0uMDg3LjA3LS4xMDUuNjYyLS4xMDUuNzVhMTcuMzcgMTcuMzcgMCAwIDEtLjMxNCAyLjM1M2MtLjA1Mi4zMTQtLjA4Ny42MjctLjI4LjkwNiAwIC4wMzUgMCAuMDcuMDE3LjEyMi4zMTQuOTI0LjQgMS44NjUuNDUzIDIuODI0di4zNWMwIC40MTgtLjAxNy4zMy4zMy40Ny4xNC4wNTIuMjk2LjA3LjQzNi4xNzQuMTA1IDAgLjEyMi0uMDg3LjEyMi0uMTU3bC0uMDUyLS41NzV2LTEuNjA0Yy0uMDE3LS4yOC4wMzUtLjU1OC4wNy0uODJ6Ii8+PC9zdmc+;" parent="343" vertex="1"><mxGeometry x="30.30857142857144" y="10.0042857142858" width="64" height="64" as="geometry"/></mxCell><mxCell id="424" value="" style="endArrow=classic;startArrow=classic;html=1;rounded=0;exitX=0;exitY=0.5;exitDx=0;exitDy=0;entryX=1;entryY=0.5;entryDx=0;entryDy=0;" edge="1" parent="175" source="1d_qB0QXYS2EEvc3A-e--450" target="399"><mxGeometry width="50" height="50" relative="1" as="geometry"><mxPoint x="456.69000000000005" y="414.5" as="sourcePoint"/><mxPoint x="368" y="262" as="targetPoint"/><Array as="points"/></mxGeometry></mxCell><mxCell id="198" value="" style="endArrow=classic;startArrow=classic;html=1;rounded=0;exitX=1;exitY=0.5;exitDx=0;exitDy=0;entryX=0.25;entryY=1;entryDx=0;entryDy=0;" parent="1" source="220" target="309" edge="1"><mxGeometry width="50" height="50" relative="1" as="geometry"><mxPoint x="-310" y="-198" as="sourcePoint"/><mxPoint x="590.202666666667" y="-120.28898198891625" as="targetPoint"/><Array as="points"><mxPoint x="-284" y="-445"/></Array></mxGeometry></mxCell><mxCell id="369" value="" style="endArrow=classic;startArrow=classic;html=1;rounded=0;exitX=0.25;exitY=0;exitDx=0;exitDy=0;entryX=0.5;entryY=1;entryDx=0;entryDy=0;" parent="1" source="351" target="244" edge="1"><mxGeometry width="50" height="50" relative="1" as="geometry"><mxPoint x="-5.309999999999945" y="257" as="sourcePoint"/><mxPoint x="-5" y="229" as="targetPoint"/><Array as="points"/></mxGeometry></mxCell><mxCell id="382" value="" style="endArrow=classic;startArrow=classic;html=1;rounded=0;exitX=0.75;exitY=0;exitDx=0;exitDy=0;entryX=0.5;entryY=1;entryDx=0;entryDy=0;" parent="1" source="351" target="406" edge="1"><mxGeometry width="50" height="50" relative="1" as="geometry"><mxPoint x="-4.000000000000455" y="476" as="sourcePoint"/><mxPoint x="348" y="-85" as="targetPoint"/><Array as="points"/></mxGeometry></mxCell><mxCell id="383" value="" style="endArrow=classic;startArrow=classic;html=1;rounded=0;exitX=0.5;exitY=0;exitDx=0;exitDy=0;entryX=0.5;entryY=1;entryDx=0;entryDy=0;" parent="1" source="351" target="309" edge="1"><mxGeometry width="50" height="50" relative="1" as="geometry"><mxPoint x="87" y="-98.00000000000023" as="sourcePoint"/><mxPoint x="663" y="-155" as="targetPoint"/><Array as="points"/></mxGeometry></mxCell><mxCell id="396" value="" style="group" parent="1" vertex="1" connectable="0"><mxGeometry x="-552" y="-1176" width="743" height="527" as="geometry"/></mxCell><mxCell id="143" value="auth" style="swimlane;whiteSpace=wrap;html=1;labelBackgroundColor=#030303;strokeColor=default;strokeWidth=2;fontSize=19;fontColor=#FAFAFA;fillColor=#030303;startSize=23;" parent="396" vertex="1"><mxGeometry width="584" height="527" as="geometry"><mxRectangle x="-320" y="175" width="140" height="40" as="alternateBounds"/></mxGeometry></mxCell><mxCell id="200" value="" style="endArrow=classic;startArrow=classic;html=1;rounded=0;exitX=0.5;exitY=0;exitDx=0;exitDy=0;entryX=0.5;entryY=1;entryDx=0;entryDy=0;" parent="143" source="314" target="330" edge="1"><mxGeometry width="50" height="50" relative="1" as="geometry"><mxPoint x="486.37800000000016" y="337.31736363636355" as="sourcePoint"/><mxPoint x="452.672" y="168.80838095238096" as="targetPoint"/><Array as="points"/></mxGeometry></mxCell><mxCell id="201" value="" style="endArrow=classic;startArrow=classic;html=1;rounded=0;exitX=0;exitY=0.25;exitDx=0;exitDy=0;entryX=0.5;entryY=1;entryDx=0;entryDy=0;" parent="143" source="314" target="325" edge="1"><mxGeometry width="50" height="50" relative="1" as="geometry"><mxPoint x="486" y="330.09636363636355" as="sourcePoint"/><mxPoint x="331.19799999999987" y="173.17436363636375" as="targetPoint"/><Array as="points"/></mxGeometry></mxCell><mxCell id="202" value="" style="endArrow=classic;startArrow=classic;html=1;rounded=0;exitX=0.5;exitY=0;exitDx=0;exitDy=0;entryX=0.5;entryY=1;entryDx=0;entryDy=0;" parent="143" source="309" target="314" edge="1"><mxGeometry width="50" height="50" relative="1" as="geometry"><mxPoint x="265.80266666666694" y="441.3910180110838" as="sourcePoint"/><mxPoint x="477.6120000000001" y="363.4463636363637" as="targetPoint"/><Array as="points"/></mxGeometry></mxCell><mxCell id="306" value="" style="group" parent="143" vertex="1" connectable="0"><mxGeometry x="231" y="382" width="150" height="145" as="geometry"/></mxCell><mxCell id="307" value="&lt;div style=&quot;&quot;&gt;&lt;br&gt;&lt;/div&gt;" style="text;html=1;align=left;verticalAlign=middle;resizable=0;points=[];autosize=1;strokeColor=none;fillColor=none;fontSize=14;fontColor=none;" parent="306" vertex="1"><mxGeometry x="26" y="89.95238095238096" width="18" height="29" as="geometry"/></mxCell><mxCell id="308" value="" style="group" parent="306" vertex="1" connectable="0"><mxGeometry x="10.689999999999998" y="-2" width="130" height="134" as="geometry"/></mxCell><mxCell id="309" value="" style="rounded=1;whiteSpace=wrap;html=1;fontSize=15;" parent="308" vertex="1"><mxGeometry width="130.00000000000003" height="134" as="geometry"/></mxCell><mxCell id="310" value="&lt;div style=&quot;text-align: center;&quot;&gt;&lt;br&gt;&lt;/div&gt;" style="text;html=1;align=left;verticalAlign=middle;resizable=0;points=[];autosize=1;strokeColor=none;fillColor=none;fontSize=14;fontColor=none;" parent="308" vertex="1"><mxGeometry x="25.351453941571194" y="88.09636363636366" width="18" height="29" as="geometry"/></mxCell><mxCell id="311" value="&lt;div style=&quot;font-size: 14px;&quot;&gt;&lt;div style=&quot;&quot;&gt;&lt;div style=&quot;&quot;&gt;&lt;div style=&quot;&quot;&gt;&lt;div style=&quot;&quot;&gt;&lt;span style=&quot;background-color: initial;&quot;&gt;nginx_auth&lt;/span&gt;&lt;/div&gt;&lt;div style=&quot;&quot;&gt;&lt;span style=&quot;background-color: initial;&quot;&gt;:81&lt;/span&gt;&lt;/div&gt;&lt;/div&gt;&lt;/div&gt;&lt;/div&gt;&lt;/div&gt;" style="text;html=1;align=center;verticalAlign=middle;resizable=0;points=[];autosize=1;strokeColor=none;fillColor=none;fontSize=15;" parent="308" vertex="1"><mxGeometry x="23.673219006303793" y="80.60000000000002" width="87" height="46" as="geometry"/></mxCell><mxCell id="312" value="" style="shape=image;verticalLabelPosition=bottom;labelBackgroundColor=default;verticalAlign=top;aspect=fixed;imageAspect=0;image=data:image/svg+xml,PHN2ZyB4bWxuczp4bGluaz0iaHR0cDovL3d3dy53My5vcmcvMTk5OS94bGluayIgeG1sbnM9Imh0dHA6Ly93d3cudzMub3JnLzIwMDAvc3ZnIiB4bWw6c3BhY2U9InByZXNlcnZlIiBzdHlsZT0iZW5hYmxlLWJhY2tncm91bmQ6bmV3IDAgMCA4ODIuNyA2ODguNjsiIHZpZXdCb3g9IjAgMCA4ODIuNyA2ODguNiIgeT0iMHB4IiB4PSIwcHgiIGlkPSJMYXllcl8xIiB2ZXJzaW9uPSIxLjEiPiYjeGE7PHN0eWxlIHR5cGU9InRleHQvY3NzIj4mI3hhOwkuc3Qwe2ZpbGw6I0ZGRkZGRjt9JiN4YTsJLnN0MXtmaWxsOiMwMDk5MDA7fSYjeGE7PC9zdHlsZT4mI3hhOzxwYXRoIGQ9Ik01MDYsNjg4LjZjLTExLjMsMC0yMS43LTQuNC0yOS40LTExLjVjLTgsNy4xLTE4LjEsMTEtMjguNSwxMWgtMC41Yy0xMS4yLTAuMi0yMi4yLTUtMzAuMi0xMy4zJiMxMDsmIzk7Yy04LjEtOC4yLTEyLjYtMTkuMy0xMi41LTMwLjR2LTQuNWwtMTEuOCwyMy44bC01LDEwLjFjLTQuMiw4LjYtMTMsMTQuMS0yMi43LDE0LjFIMjY0LjljLTkuMSwwLTE3LjUtNS0yMi0xMi44bC01LjEtOS4yJiMxMDsmIzk7bC0xMy42LTIzLjl2M2MwLDIzLjgtMTkuNCw0My4yLTQzLjIsNDMuMmMtMTEuNiwwLTIyLjQtNC41LTMwLjYtMTIuN2wtNjMuOS02My45VjY0NWMwLDIzLjgtMTkuNCw0My4yLTQzLjIsNDMuMlMwLDY2OC45LDAsNjQ1VjUwNyYjMTA7JiM5O2MwLTE3LjUsMTAuNS0zMy4yLDI2LjctNDBjNS4zLTIuMiwxMC44LTMuMywxNi41LTMuM2MxMS42LDAsMjIuNCw0LjUsMzAuNiwxMi43bDY0LDY0VjUwN2MwLTIzLjgsMTkuNC00My4yLDQzLjItNDMuMiYjMTA7JiM5O3M0My4yLDE5LjQsNDMuMiw0My4ydjMuN2wxMy40LTI0LjNsNC45LTkuMWM0LjQtOC4xLDEyLjktMTMuMywyMi4yLTEzLjNoMTA0LjdjOS43LDAsMTguNCw1LjUsMjIuNiwxNC4xbDUsMTAuMiYjMTA7JiM5O2MwLjMsMC40LDAuNCwwLjksMC42LDEuM2w3LjMsMTcuNWMwLTExLDQuNS0yMS45LDEyLjUtMzBjOC4xLTguMywxOS4xLTEzLjEsMzAuMi0xMy4zaDAuNWMxMC41LDAsMjAuOSw0LjEsMjksMTEuNSYjMTA7JiM5O2M3LjYtNi45LDE3LjgtMTEuMSwyOC45LTExLjFjMjMuOCwwLDQzLjIsMTkuNCw0My4yLDQzLjJ2MzMuNWw2NC02NGM4LjEtOC4xLDE5LjEtMTIuNywzMC42LTEyLjdjNS43LDAsMTEuMiwxLjEsMTYuNSwzLjMmIzEwOyYjOTtjNC41LDEuOCw4LjYsNC40LDEyLjEsNy42YzcuOS03LjEsMTgtMTAuOSwyOC43LTEwLjljMTEuNSwwLDIyLjMsNC40LDMwLjYsMTIuNmwzOC42LDM4LjRsMzguNi0zOC40YzguMi04LjEsMTkuMS0xMi42LDMwLjYtMTIuNiYjMTA7JiM5O2MxMS42LDAsMjIuNSw0LjUsMzAuNiwxMi44YzE2LjksMTYuOSwxNi44LDQ0LjQtMC4xLDYxLjJsLTM4LjQsMzguMmwzOC4yLDM4LjFjMTYuOSwxNi45LDE3LDQ0LjMsMC4xLDYxLjImIzEwOyYjOTtjLTguMSw4LjItMTkuMSwxMi44LTMwLjYsMTIuOGMtMTEuNiwwLTIyLjQtNC41LTMwLjYtMTIuN2wtMzguNC0zOC4zTDczMiw2NzUuNmMtOC4xLDguMS0xOSwxMi42LTMwLjYsMTIuNiYjMTA7JiM5O2MtMTAuNCwwLTIwLjYtMy45LTI4LjUtMTAuN2MtNy42LDYuOS0xNy44LDExLjItMjksMTEuMmMtMjMuOCwwLTQzLjItMTkuNC00My4yLTQzLjJ2LTMzLjVsLTY0LDY0JiMxMDsmIzk7QzUyOC41LDY4NC4xLDUxNy43LDY4OC42LDUwNiw2ODguNkw1MDYsNjg4LjZ6IE02ODcuMiw1OThsMjEuOS0yMS44bC0yMS45LTIxLjhWNTk4eiIgY2xhc3M9InN0MCIvPiYjeGE7PHBhdGggZD0iTTE4MS4xLDY2My4xYy00LjcsMC05LjMtMS44LTEyLjgtNS4zTDYxLjMsNTUwLjd2OTQuM2MwLDEwLTguMSwxOC0xOCwxOHMtMTgtOC4xLTE4LTE4VjUwNyYjMTA7JiM5O2MwLTcuMyw0LjQtMTMuOSwxMS4yLTE2LjdjNi44LTIuOCwxNC41LTEuMywxOS43LDMuOWwxMDYuOSwxMDdWNTA3YzAtMTAsOC4xLTE4LDE4LTE4YzEwLDAsMTgsOC4xLDE4LDE4djEzNy45JiMxMDsmIzk7QzE5OS4yLDY1NC45LDE5MS4xLDY2My4xLDE4MS4xLDY2My4xIE0yNjQuOSw0ODkuMmwtNSw5LjNsLTM4LjQsNjkuOGwtNSw4LjhsNSw4LjhsMzguNCw2Ny42bDUuMiw5LjJoMTAwLjZsNS0xMC4ybDI4LjctNTcuOSYjMTA7JiM5O2wxMi45LTI2LjJoLTI5LjFsLTczLjQsMC4zYy05LjYtMC4yLTE4LjQsOC42LTE4LjQsMThjMCw5LjYsOC44LDE4LjIsMTguNCwxOGw0NC4zLTAuM2wtMTAuOCwyMS45aC01N0wyNTgsNTc2LjdsMjguNS01MS41aDYwLjYmIzEwOyYjOTtsMTQuMSwyOWgzNi40bC0yMi45LTU1bC01LTEwLjJIMjY0LjkgTTQ0OC4xLDQ4OC45Yy05LjUsMC4xLTE4LDguOC0xNy45LDE4LjN2NDcuMmgzNi4ydi00Ny4yQzQ2Ni41LDQ5Ny42LDQ1Ny43LDQ4OC43LDQ0OC4xLDQ4OC45JiMxMDsmIzk7IE01MDYuMSw2NjMuNGMtMTAsMC0xOC04LjEtMTgtMTh2LTEzOGMwLTEwLDguMS0xOCwxOC0xOGMxMCwwLDE4LDguMSwxOCwxOHY5NC4zbDEwNy0xMDdjNS4yLTUuMiwxMi45LTYuNywxOS43LTMuOSYjMTA7JiM5O3MxMS4yLDkuNCwxMS4yLDE2Ljd2MTM3LjljMCwxMC04LjEsMTgtMTgsMThjLTEwLDAtMTgtOC4xLTE4LTE4VjU1MUw1MTguOSw2NTguMUM1MTUuNSw2NjEuNSw1MTAuOSw2NjMuNCw1MDYuMSw2NjMuNCBNNzk2LjEsNTc2LjImIzEwOyYjOTtsNTYuMi01Ni4xYzcuMS03LjEsNy4xLTE4LjUsMC4xLTI1LjZjLTcuMS03LjEtMTguNS03LjEtMjUuNi0wLjFsLTU2LjMsNTYuMmwtNTYuMy01Ni4yYy03LjEtNy4xLTE4LjUtNy4xLTI1LjYsMC4xJiMxMDsmIzk7Yy03LjEsNy4xLTcuMSwxOC41LDAsMjUuNmw1Ni4yLDU2LjFsLTU2LjEsNTUuOWMtNy4xLDcuMS03LjEsMTguNS0wLjEsMjUuNmMzLjQsMy40LDgsNS40LDEyLjgsNS4zYzQuNiwwLDkuMi0xLjgsMTIuOC01LjNsNTYuMi01NiYjMTA7JiM5O2w1Ni4yLDU2YzMuNCwzLjQsOCw1LjMsMTIuOCw1LjNjNC42LDAsOS4zLTEuOCwxMi44LTUuM2M3LjEtNy4xLDcuMS0xOC41LTAuMS0yNS42TDc5Ni4xLDU3Ni4yeiBNNDQ4LjEsNjYyLjkmIzEwOyYjOTtjLTkuNS0wLjEtMTgtOC44LTE3LjktMTguM3YtNzUuN2gzNi4ydjc1LjdDNDY2LjUsNjU0LjIsNDU3LjcsNjYzLDQ0OC4xLDY2Mi45IiBjbGFzcz0ic3QxIi8+JiN4YTs8cGF0aCBkPSJNNjE0LjEsNDg4LjRjLTE4LjctMC4yLTM2LjMtNy41LTQ5LjQtMjAuN0wzMzguMiwyNDEuM3YxNzYuNGMwLDM4LjktMzEuNyw3MC43LTcwLjcsNzAuN3MtNzAuNy0zMS43LTcwLjctNzAuNyYjMTA7JiM5O1Y3MC43YzAtMjguNywxNy4xLTU0LjMsNDMuNi02NS4zYzguNi0zLjYsMTcuNy01LjQsMjctNS40YzE4LjksMCwzNi43LDcuNCw1MCwyMC43TDU0NCwyNDcuMVY3MC43QzU0NCwzMS43LDU3NS43LDAsNjE0LjYsMCYjMTA7JiM5O3M3MC43LDMxLjcsNzAuNyw3MC43djM0Ny4xYzAsMzguOS0zMS43LDcwLjctNzAuNyw3MC43SDYxNC4xTDYxNC4xLDQ4OC40eiIgY2xhc3M9InN0MCIvPiYjeGE7PHBhdGggZD0iTTYxNC42LDQ2My4yYy0xMS44LDAtMjMuNS00LjYtMzIuMi0xMy4zTDMxMy4xLDE4MC41djIzNy4yYzAsMjUuMi0yMC40LDQ1LjUtNDUuNSw0NS41cy00NS41LTIwLjQtNDUuNS00NS41JiMxMDsmIzk7di0zNDdjMC0xOC41LDExLjEtMzUsMjguMS00Mi4xczM2LjYtMy4yLDQ5LjYsOS45bDI2OS4zLDI2OS40VjcwLjdjMC0yNS4yLDIwLjQtNDUuNSw0NS41LTQ1LjVjMjUuMiwwLDQ1LjUsMjAuNCw0NS41LDQ1LjV2MzQ3LjEmIzEwOyYjOTtDNjYwLjEsNDQyLjksNjM5LjgsNDYzLjIsNjE0LjYsNDYzLjIiIGNsYXNzPSJzdDEiLz4mI3hhOzwvc3ZnPg==;imageBackground=default;" parent="308" vertex="1"><mxGeometry x="32.200000000000045" y="19" width="67.95" height="53.05" as="geometry"/></mxCell><mxCell id="313" value="" style="group" parent="143" vertex="1" connectable="0"><mxGeometry x="241" y="208" width="130" height="134" as="geometry"/></mxCell><mxCell id="314" value="" style="rounded=1;whiteSpace=wrap;html=1;fontSize=15;" parent="313" vertex="1"><mxGeometry width="130.00000000000003" height="134" as="geometry"/></mxCell><mxCell id="315" value="" style="shape=image;verticalLabelPosition=bottom;labelBackgroundColor=default;verticalAlign=top;aspect=fixed;imageAspect=0;image=data:image/svg+xml,PHN2ZyB4bWxucz0iaHR0cDovL3d3dy53My5vcmcvMjAwMC9zdmciIHZpZXdCb3g9IjAgMCAxNTQgMTU0IiB3aWR0aD0iMjUwMCIgaGVpZ2h0PSIyNTAwIiBmaWxsPSJub25lIj48Y2lyY2xlIHI9Ijc3IiBmaWxsPSIjMDU5OThiIiBjeT0iNzciIGN4PSI3NyIvPjxwYXRoIGZpbGw9IiNmZmYiIGQ9Ik04MS4zNzUgMTguNjY3bC0zOC43NSA3MEg3Ny41bC0zLjg3NSA0Ni42NjYgMzguNzUtNzBINzcuNXoiLz48L3N2Zz4=;imageBackground=default;" parent="313" vertex="1"><mxGeometry x="33.48471497322579" y="11" width="64.41401748796855" height="64.41401748796855" as="geometry"/></mxCell><mxCell id="316" value="&lt;div style=&quot;text-align: center;&quot;&gt;&lt;br&gt;&lt;/div&gt;" style="text;html=1;align=left;verticalAlign=middle;resizable=0;points=[];autosize=1;strokeColor=none;fillColor=none;fontSize=14;fontColor=none;" parent="313" vertex="1"><mxGeometry x="25.351453941571194" y="88.09636363636366" width="18" height="29" as="geometry"/></mxCell><mxCell id="317" value="&lt;div style=&quot;font-size: 14px;&quot;&gt;&lt;div&gt;&lt;span style=&quot;background-color: initial;&quot;&gt;api_auth&lt;/span&gt;&lt;/div&gt;&lt;div&gt;&lt;span style=&quot;background-color: initial;&quot;&gt;:8080&lt;/span&gt;&lt;/div&gt;&lt;/div&gt;" style="text;html=1;align=center;verticalAlign=middle;resizable=0;points=[];autosize=1;strokeColor=none;fillColor=none;fontSize=15;" parent="313" vertex="1"><mxGeometry x="29.673219006303793" y="80.60000000000002" width="72" height="46" as="geometry"/></mxCell><mxCell id="324" value="" style="group" parent="143" vertex="1" connectable="0"><mxGeometry x="26" y="45.5" width="130" height="134" as="geometry"/></mxCell><mxCell id="325" value="" style="rounded=1;whiteSpace=wrap;html=1;fontSize=15;" parent="324" vertex="1"><mxGeometry width="130.00000000000003" height="134" as="geometry"/></mxCell><mxCell id="326" value="&lt;div style=&quot;text-align: center;&quot;&gt;&lt;br&gt;&lt;/div&gt;" style="text;html=1;align=left;verticalAlign=middle;resizable=0;points=[];autosize=1;strokeColor=none;fillColor=none;fontSize=14;fontColor=none;" parent="324" vertex="1"><mxGeometry x="25.351453941571194" y="88.09636363636366" width="18" height="29" as="geometry"/></mxCell><mxCell id="327" value="&lt;div style=&quot;font-size: 14px;&quot;&gt;&lt;div style=&quot;&quot;&gt;&lt;div style=&quot;&quot;&gt;&lt;div style=&quot;&quot;&gt;&lt;span style=&quot;background-color: initial;&quot;&gt;redis_search&lt;/span&gt;&lt;/div&gt;&lt;div style=&quot;&quot;&gt;&lt;span style=&quot;background-color: initial;&quot;&gt;:6379&lt;/span&gt;&lt;/div&gt;&lt;/div&gt;&lt;/div&gt;&lt;/div&gt;" style="text;html=1;align=center;verticalAlign=middle;resizable=0;points=[];autosize=1;strokeColor=none;fillColor=none;fontSize=15;" parent="324" vertex="1"><mxGeometry x="16.673219006303793" y="80.60000000000002" width="98" height="46" as="geometry"/></mxCell><mxCell id="328" value="" style="shape=image;verticalLabelPosition=bottom;labelBackgroundColor=default;verticalAlign=top;aspect=fixed;imageAspect=0;image=data:image/svg+xml,PHN2ZyB4bWxucz0iaHR0cDovL3d3dy53My5vcmcvMjAwMC9zdmciIHByZXNlcnZlQXNwZWN0UmF0aW89InhNaW5ZTWluIG1lZXQiIHZpZXdCb3g9IjAgMC41ODQwMjI1MjE5NzI2NTYyIDI1NiAyMTguNTg2OTE0MDYyNSIgaGVpZ2h0PSIyMTM0LjIwMzE0Mjc1NTY4MTciIHdpZHRoPSIyNTAwIj48cGF0aCBmaWxsPSIjOTEyNjI2IiBkPSJNMjQ1Ljk3IDE2OC45NDNjLTEzLjY2MiA3LjEyMS04NC40MzQgMzYuMjItOTkuNTAxIDQ0LjA3NS0xNS4wNjcgNy44NTYtMjMuNDM3IDcuNzgtMzUuMzQgMi4wOS0xMS45MDItNS42OS04Ny4yMTYtMzYuMTEyLTEwMC43ODMtNDIuNTk3QzMuNTY2IDE2OS4yNzEgMCAxNjYuNTM1IDAgMTYzLjk1MXYtMjUuODc2czk4LjA1LTIxLjM0NSAxMTMuODc5LTI3LjAyNGMxNS44MjgtNS42NzkgMjEuMzItNS44ODQgMzQuNzktLjk1IDEzLjQ3MiA0LjkzNiA5NC4wMTggMTkuNDY4IDEwNy4zMzEgMjQuMzQ0bC0uMDA2IDI1LjUxYy4wMDIgMi41NTgtMy4wNyA1LjM2NC0xMC4wMjQgOC45ODgiLz48cGF0aCBmaWxsPSIjQzYzMDJCIiBkPSJNMjQ1Ljk2NSAxNDMuMjJjLTEzLjY2MSA3LjExOC04NC40MzEgMzYuMjE4LTk5LjQ5OCA0NC4wNzItMTUuMDY2IDcuODU3LTIzLjQzNiA3Ljc4LTM1LjMzOCAyLjA5LTExLjkwMy01LjY4Ni04Ny4yMTQtMzYuMTEzLTEwMC43OC00Mi41OTQtMTMuNTY2LTYuNDg1LTEzLjg1LTEwLjk0OC0uNTI0LTE2LjE2NiAxMy4zMjYtNS4yMiA4OC4yMjQtMzQuNjA1IDEwNC4wNTUtNDAuMjg0IDE1LjgyOC01LjY3NyAyMS4zMTktNS44ODQgMzQuNzg5LS45NDggMTMuNDcxIDQuOTM0IDgzLjgxOSAzMi45MzUgOTcuMTMgMzcuODEgMTMuMzE2IDQuODgxIDEzLjgyNyA4LjkuMTY2IDE2LjAyIi8+PHBhdGggZmlsbD0iIzkxMjYyNiIgZD0iTTI0NS45NyAxMjcuMDc0Yy0xMy42NjIgNy4xMjItODQuNDM0IDM2LjIyLTk5LjUwMSA0NC4wNzgtMTUuMDY3IDcuODUzLTIzLjQzNyA3Ljc3Ny0zNS4zNCAyLjA4Ny0xMS45MDMtNS42ODctODcuMjE2LTM2LjExMi0xMDAuNzgzLTQyLjU5N0MzLjU2NiAxMjcuNDAyIDAgMTI0LjY3IDAgMTIyLjA4NVY5Ni4yMDZzOTguMDUtMjEuMzQ0IDExMy44NzktMjcuMDIzYzE1LjgyOC01LjY3OSAyMS4zMi01Ljg4NSAzNC43OS0uOTVDMTYyLjE0MiA3My4xNjggMjQyLjY4OCA4Ny42OTcgMjU2IDkyLjU3NGwtLjAwNiAyNS41MTNjLjAwMiAyLjU1Ny0zLjA3IDUuMzYzLTEwLjAyNCA4Ljk4NyIvPjxwYXRoIGZpbGw9IiNDNjMwMkIiIGQ9Ik0yNDUuOTY1IDEwMS4zNTFjLTEzLjY2MSA3LjEyLTg0LjQzMSAzNi4yMTgtOTkuNDk4IDQ0LjA3NS0xNS4wNjYgNy44NTQtMjMuNDM2IDcuNzc3LTM1LjMzOCAyLjA4Ny0xMS45MDMtNS42ODYtODcuMjE0LTM2LjExMi0xMDAuNzgtNDIuNTk0LTEzLjU2Ni02LjQ4My0xMy44NS0xMC45NDctLjUyNC0xNi4xNjdDMjMuMTUxIDgzLjUzNSA5OC4wNSA1NC4xNDggMTEzLjg4IDQ4LjQ3YzE1LjgyOC01LjY3OCAyMS4zMTktNS44ODQgMzQuNzg5LS45NDkgMTMuNDcxIDQuOTM0IDgzLjgxOSAzMi45MzMgOTcuMTMgMzcuODEgMTMuMzE2IDQuODggMTMuODI3IDguOS4xNjYgMTYuMDIiLz48cGF0aCBmaWxsPSIjOTEyNjI2IiBkPSJNMjQ1Ljk3IDgzLjY1M2MtMTMuNjYyIDcuMTItODQuNDM0IDM2LjIyLTk5LjUwMSA0NC4wNzgtMTUuMDY3IDcuODU0LTIzLjQzNyA3Ljc3Ny0zNS4zNCAyLjA4Ny0xMS45MDMtNS42ODctODcuMjE2LTM2LjExMy0xMDAuNzgzLTQyLjU5NUMzLjU2NiA4My45OCAwIDgxLjI0NyAwIDc4LjY2NXYtMjUuODhzOTguMDUtMjEuMzQzIDExMy44NzktMjcuMDIxYzE1LjgyOC01LjY4IDIxLjMyLTUuODg0IDM0Ljc5LS45NUMxNjIuMTQyIDI5Ljc0OSAyNDIuNjg4IDQ0LjI3OCAyNTYgNDkuMTU1bC0uMDA2IDI1LjUxMmMuMDAyIDIuNTU1LTMuMDcgNS4zNjEtMTAuMDI0IDguOTg2Ii8+PHBhdGggZmlsbD0iI0M2MzAyQiIgZD0iTTI0NS45NjUgNTcuOTNjLTEzLjY2MSA3LjEyLTg0LjQzMSAzNi4yMi05OS40OTggNDQuMDc0LTE1LjA2NiA3Ljg1NC0yMy40MzYgNy43NzctMzUuMzM4IDIuMDlDOTkuMjI3IDk4LjQwNCAyMy45MTUgNjcuOTggMTAuMzUgNjEuNDk3LTMuMjE3IDU1LjAxNS0zLjUgNTAuNTUgOS44MjUgNDUuMzMxIDIzLjE1MSA0MC4xMTMgOTguMDUgMTAuNzMgMTEzLjg4IDUuMDVjMTUuODI4LTUuNjc5IDIxLjMxOS01Ljg4MyAzNC43ODktLjk0OCAxMy40NzEgNC45MzUgODMuODE5IDMyLjkzNCA5Ny4xMyAzNy44MTEgMTMuMzE2IDQuODc2IDEzLjgyNyA4Ljg5Ny4xNjYgMTYuMDE3Ii8+PHBhdGggZmlsbD0iI0ZGRiIgZD0iTTE1OS4yODMgMzIuNzU3bC0yMi4wMSAyLjI4NS00LjkyNyAxMS44NTYtNy45NTgtMTMuMjMtMjUuNDE1LTIuMjg0IDE4Ljk2NC02LjgzOS01LjY5LTEwLjQ5OCAxNy43NTUgNi45NDQgMTYuNzM4LTUuNDgtNC41MjQgMTAuODU1IDE3LjA2NyA2LjM5MU0xMzEuMDMyIDkwLjI3NUw4OS45NTUgNzMuMjM4bDU4Ljg2LTkuMDM1LTE3Ljc4MyAyNi4wNzJNNzQuMDgyIDM5LjM0N2MxNy4zNzUgMCAzMS40NiA1LjQ2IDMxLjQ2IDEyLjE5NCAwIDYuNzM2LTE0LjA4NSAxMi4xOTUtMzEuNDYgMTIuMTk1cy0zMS40Ni01LjQ2LTMxLjQ2LTEyLjE5NWMwLTYuNzM0IDE0LjA4NS0xMi4xOTQgMzEuNDYtMTIuMTk0Ii8+PHBhdGggZmlsbD0iIzYyMUIxQyIgZD0iTTE4NS4yOTUgMzUuOTk4bDM0LjgzNiAxMy43NjYtMzQuODA2IDEzLjc1My0uMDMtMjcuNTIiLz48cGF0aCBmaWxsPSIjOUEyOTI4IiBkPSJNMTQ2Ljc1NSA1MS4yNDNsMzguNTQtMTUuMjQ1LjAzIDI3LjUxOS0zLjc3OSAxLjQ3OC0zNC43OTEtMTMuNzUyIi8+PC9zdmc+;" parent="324" vertex="1"><mxGeometry x="25.349999999999998" y="8" width="81.65" height="69.71" as="geometry"/></mxCell><mxCell id="329" value="" style="group" parent="143" vertex="1" connectable="0"><mxGeometry x="241" y="43" width="130" height="134" as="geometry"/></mxCell><mxCell id="330" value="" style="rounded=1;whiteSpace=wrap;html=1;fontSize=15;" parent="329" vertex="1"><mxGeometry width="130.00000000000003" height="134" as="geometry"/></mxCell><mxCell id="331" value="&lt;div style=&quot;text-align: center;&quot;&gt;&lt;br&gt;&lt;/div&gt;" style="text;html=1;align=left;verticalAlign=middle;resizable=0;points=[];autosize=1;strokeColor=none;fillColor=none;fontSize=14;fontColor=none;" parent="329" vertex="1"><mxGeometry x="25.351453941571194" y="88.09636363636366" width="18" height="29" as="geometry"/></mxCell><mxCell id="332" value="&lt;div style=&quot;font-size: 14px;&quot;&gt;&lt;div style=&quot;&quot;&gt;&lt;div style=&quot;&quot;&gt;&lt;span style=&quot;background-color: initial;&quot;&gt;postgres_auth&lt;/span&gt;&lt;/div&gt;&lt;div style=&quot;&quot;&gt;&lt;span style=&quot;background-color: initial;&quot;&gt;:5432&lt;/span&gt;&lt;/div&gt;&lt;/div&gt;&lt;/div&gt;" style="text;html=1;align=center;verticalAlign=middle;resizable=0;points=[];autosize=1;strokeColor=none;fillColor=none;fontSize=15;" parent="329" vertex="1"><mxGeometry x="12.673219006303793" y="80.60000000000002" width="107" height="46" as="geometry"/></mxCell><mxCell id="333" value="" style="shape=image;verticalLabelPosition=bottom;labelBackgroundColor=default;verticalAlign=top;aspect=fixed;imageAspect=0;image=data:image/svg+xml,PHN2ZyB4bWxucz0iaHR0cDovL3d3dy53My5vcmcvMjAwMC9zdmciIHByZXNlcnZlQXNwZWN0UmF0aW89InhNaW5ZTWluIG1lZXQiIHZpZXdCb3g9IjAuMjk3MjU0NTYyMzc3OTI5NyAwLjM2NDQ3MDMwMzA1ODYyNDI3IDI1NS4zODY2MTE5Mzg0NzY1NiAyNjMuMjk4NTIyOTQ5MjE4NzUiIGhlaWdodD0iMjQ5My4zNTcyMjQ4OTc5MDUiIHdpZHRoPSIyNDE4LjE5MTk4MTc5MjQ1Ij48cGF0aCBkPSJNMjU1LjAwOCAxNTguMDg2Yy0xLjUzNS00LjY0OS01LjU1Ni03Ljg4Ny0xMC43NTYtOC42NjQtMi40NTItLjM2Ni01LjI2LS4yMS04LjU4My40NzUtNS43OTIgMS4xOTUtMTAuMDg5IDEuNjUtMTMuMjI1IDEuNzM4IDExLjgzNy0xOS45ODUgMjEuNDYyLTQyLjc3NSAyNy4wMDMtNjQuMjI4IDguOTYtMzQuNjg5IDQuMTcyLTUwLjQ5Mi0xLjQyMy01Ny42NEMyMzMuMjE3IDEwLjg0NyAyMTEuNjE0LjY4MyAxODUuNTUyLjM3MmMtMTMuOTAzLS4xNy0yNi4xMDggMi41NzUtMzIuNDc1IDQuNTQ5LTUuOTI4LTEuMDQ2LTEyLjMwMi0xLjYzLTE4Ljk5LTEuNzM4LTEyLjUzNy0uMi0yMy42MTQgMi41MzMtMzMuMDc5IDguMTUtNS4yNC0xLjc3Mi0xMy42NS00LjI3LTIzLjM2Mi01Ljg2NC0yMi44NDItMy43NS00MS4yNTItLjgyOC01NC43MTggOC42ODVDNi42MjIgMjUuNjcyLS45MzcgNDUuNjg0LjQ2MSA3My42MzRjLjQ0NCA4Ljg3NCA1LjQwOCAzNS44NzQgMTMuMjI0IDYxLjQ4IDQuNDkyIDE0LjcxOCA5LjI4MiAyNi45NCAxNC4yMzcgMzYuMzMgNy4wMjcgMTMuMzE1IDE0LjU0NiAyMS4xNTYgMjIuOTg3IDIzLjk3MiA0LjczMSAxLjU3NiAxMy4zMjcgMi42OCAyMi4zNjgtNC44NSAxLjE0NiAxLjM4OCAyLjY3NSAyLjc2NyA0LjcwNCA0LjA0OCAyLjU3NyAxLjYyNSA1LjcyOCAyLjk1MyA4Ljg3NSAzLjc0IDExLjM0MSAyLjgzNSAyMS45NjQgMi4xMjYgMzEuMDI3LTEuODQ4LjA1NiAxLjYxMi4wOTkgMy4xNTIuMTM1IDQuNDgyLjA2IDIuMTU3LjEyIDQuMjcyLjE5OSA2LjI1LjUzNyAxMy4zNzQgMS40NDcgMjMuNzczIDQuMTQzIDMxLjA0OS4xNDguNC4zNDcgMS4wMS41NTcgMS42NTcgMS4zNDUgNC4xMTggMy41OTQgMTEuMDEyIDkuMzE2IDE2LjQxMSA1LjkyNSA1LjU5MyAxMy4wOTIgNy4zMDggMTkuNjU2IDcuMzA4IDMuMjkyIDAgNi40MzMtLjQzMiA5LjE4OC0xLjAyMiA5LjgyLTIuMTA1IDIwLjk3My01LjMxMSAyOS4wNDEtMTYuNzk5IDcuNjI4LTEwLjg2IDExLjMzNi0yNy4yMTcgMTIuMDA3LTUyLjk5LjA4Ny0uNzI5LjE2Ny0xLjQyNS4yNDQtMi4wODhsLjE2LTEuMzYyIDEuNzk3LjE1OC40NjMuMDMxYzEwLjAwMi40NTYgMjIuMjMyLTEuNjY1IDI5Ljc0My01LjE1NCA1LjkzNS0yLjc1NCAyNC45NTQtMTIuNzk1IDIwLjQ3Ni0yNi4zNTEiLz48cGF0aCBmaWxsPSIjMzM2NzkxIiBkPSJNMjM3LjkwNiAxNjAuNzIyYy0yOS43NCA2LjEzNS0zMS43ODUtMy45MzQtMzEuNzg1LTMuOTM0IDMxLjQtNDYuNTkzIDQ0LjUyNy0xMDUuNzM2IDMzLjItMTIwLjIxMS0zMC45MDQtMzkuNDg1LTg0LjM5OS0yMC44MTEtODUuMjkyLTIwLjMyN2wtLjI4Ny4wNTJjLTUuODc2LTEuMjItMTIuNDUxLTEuOTQ2LTE5Ljg0Mi0yLjA2Ny0xMy40NTYtLjIyLTIzLjY2NCAzLjUyOC0zMS40MSA5LjQwMiAwIDAtOTUuNDMtMzkuMzE0LTkwLjk5MSA0OS40NDQuOTQ0IDE4Ljg4MiAyNy4wNjQgMTQyLjg3MyA1OC4yMTggMTA1LjQyMiAxMS4zODctMTMuNjk1IDIyLjM5LTI1LjI3NCAyMi4zOS0yNS4yNzQgNS40NjQgMy42MyAxMi4wMDYgNS40ODIgMTguODY0IDQuODE3bC41MzMtLjQ1MmMtLjE2NiAxLjctLjA5IDMuMzYzLjIxMyA1LjMzMi04LjAyNiA4Ljk2Ny01LjY2NyAxMC41NDEtMjEuNzExIDEzLjg0NC0xNi4yMzUgMy4zNDYtNi42OTggOS4zMDItLjQ3MSAxMC44NiA3LjU0OSAxLjg4NyAyNS4wMTMgNC41NjEgMzYuODEzLTExLjk1OGwtLjQ3IDEuODg1YzMuMTQ0IDIuNTE5IDUuMzUyIDE2LjM4MyA0Ljk4MiAyOC45NTItLjM3IDEyLjU2OC0uNjE3IDIxLjE5NyAxLjg2IDI3LjkzNyAyLjQ3OSA2Ljc0IDQuOTQ4IDIxLjkwNSAyNi4wNCAxNy4zODYgMTcuNjIzLTMuNzc3IDI2Ljc1Ni0xMy41NjQgMjguMDI3LTI5Ljg5LjkwMS0xMS42MDYgMi45NDItOS44OSAzLjA3LTIwLjI2N2wxLjYzNy00LjkxMmMxLjg4Ny0xNS43MzMuMy0yMC44MDkgMTEuMTU3LTE4LjQ0OGwyLjY0LjIzMmM3Ljk5LjM2MyAxOC40NS0xLjI4NiAyNC41ODktNC4xMzkgMTMuMjE4LTYuMTM0IDIxLjA1OC0xNi4zNzcgOC4wMjQtMTMuNjg2aC4wMDIiLz48cGF0aCBmaWxsPSIjRkZGIiBkPSJNMTA4LjA3NiA4MS41MjVjLTIuNjgtLjM3My01LjEwNy0uMDI4LTYuMzM1LjkwMi0uNjkuNTIzLS45MDQgMS4xMjktLjk2MiAxLjU0Ni0uMTU0IDEuMTA1LjYyIDIuMzI3IDEuMDk2IDIuOTU3IDEuMzQ2IDEuNzg0IDMuMzEyIDMuMDEgNS4yNTggMy4yOC4yODIuMDQuNTYzLjA1OC44NDIuMDU4IDMuMjQ1IDAgNi4xOTYtMi41MjcgNi40NTYtNC4zOTIuMzI1LTIuMzM2LTMuMDY2LTMuODkzLTYuMzU1LTQuMzVNMTk2Ljg2IDgxLjU5OWMtLjI1Ni0xLjgzMS0zLjUxNC0yLjM1My02LjYwNi0xLjkyMy0zLjA4OC40My02LjA4MiAxLjgyNC01LjgzMiAzLjY1OS4yIDEuNDI3IDIuNzc3IDMuODYzIDUuODI3IDMuODYzLjI1OCAwIC41MTgtLjAxNy43OC0uMDU0IDIuMDM2LS4yODIgMy41My0xLjU3NSA0LjI0LTIuMzIgMS4wOC0xLjEzNiAxLjcwNi0yLjQwMiAxLjU5MS0zLjIyNSIvPjxwYXRoIGZpbGw9IiNGRkYiIGQ9Ik0yNDcuODAyIDE2MC4wMjVjLTEuMTM0LTMuNDI5LTQuNzg0LTQuNTMyLTEwLjg0OC0zLjI4LTE4LjAwNSAzLjcxNi0yNC40NTMgMS4xNDItMjYuNTctLjQxNyAxMy45OTUtMjEuMzIgMjUuNTA4LTQ3LjA5MiAzMS43MTktNzEuMTM3IDIuOTQyLTExLjM5IDQuNTY3LTIxLjk2OCA0LjctMzAuNTkuMTQ3LTkuNDYzLTEuNDY1LTE2LjQxNy00Ljc4OS0yMC42NjUtMTMuNDAyLTE3LjEyNS0zMy4wNzItMjYuMzExLTU2Ljg4Mi0yNi41NjMtMTYuMzY5LS4xODQtMzAuMTk5IDQuMDA1LTMyLjg4IDUuMTgzLTUuNjQ2LTEuNDA0LTExLjgwMS0yLjI2Ni0xOC41MDItMi4zNzYtMTIuMjg4LS4xOTktMjIuOTEgMi43NDMtMzEuNzA0IDguNzQtMy44Mi0xLjQyMi0xMy42OTItNC44MTEtMjUuNzY1LTYuNzU2LTIwLjg3Mi0zLjM2LTM3LjQ1OC0uODE0LTQ5LjI5NCA3LjU3MS0xNC4xMjMgMTAuMDA2LTIwLjY0MyAyNy44OTItMTkuMzggNTMuMTYuNDI1IDguNTAxIDUuMjY5IDM0LjY1MyAxMi45MTMgNTkuNjk4IDEwLjA2MiAzMi45NjQgMjEgNTEuNjI1IDMyLjUwOCA1NS40NjQgMS4zNDcuNDQ5IDIuOS43NjMgNC42MTMuNzYzIDQuMTk4IDAgOS4zNDUtMS44OTIgMTQuNy04LjMzYTUyOS44MzIgNTI5LjgzMiAwIDAgMSAyMC4yNjEtMjIuOTI2YzQuNTI0IDIuNDI4IDkuNDk0IDMuNzg0IDE0LjU3NyAzLjkyLjAxLjEzMy4wMjMuMjY2LjAzNS4zOThhMTE3LjY2IDExNy42NiAwIDAgMC0yLjU3IDMuMTc1Yy0zLjUyMiA0LjQ3MS00LjI1NSA1LjQwMi0xNS41OTIgNy43MzYtMy4yMjUuNjY2LTExLjc5IDIuNDMxLTExLjkxNiA4LjQzNS0uMTM2IDYuNTYgMTAuMTI1IDkuMzE1IDExLjI5NCA5LjYwNyA0LjA3NCAxLjAyIDcuOTk5IDEuNTIzIDExLjc0MiAxLjUyMyA5LjEwMyAwIDE3LjExNC0yLjk5MiAyMy41MTYtOC43ODEtLjE5NyAyMy4zODYuNzc4IDQ2LjQzIDMuNTg2IDUzLjQ1MSAyLjMgNS43NDggNy45MTggMTkuNzk1IDI1LjY2NCAxOS43OTQgMi42MDQgMCA1LjQ3LS4zMDMgOC42MjMtLjk3OSAxOC41MjEtMy45NyAyNi41NjQtMTIuMTU2IDI5LjY3NS0zMC4yMDMgMS42NjUtOS42NDUgNC41MjItMzIuNjc2IDUuODY2LTQ1LjAzIDIuODM2Ljg4NSA2LjQ4NyAxLjI5IDEwLjQzNCAxLjI4OSA4LjIzMiAwIDE3LjczMS0xLjc0OSAyMy42ODgtNC41MTQgNi42OTItMy4xMDggMTguNzY4LTEwLjczNCAxNi41NzgtMTcuMzZ6bS00NC4xMDYtODMuNDhjLS4wNjEgMy42NDctLjU2MyA2Ljk1OC0xLjA5NSAxMC40MTQtLjU3MyAzLjcxNy0xLjE2NSA3LjU2LTEuMzE0IDEyLjIyNS0uMTQ3IDQuNTQuNDIgOS4yNi45NjggMTMuODI1IDEuMTA4IDkuMjIgMi4yNDUgMTguNzEyLTIuMTU2IDI4LjA3OGEzNi41MDggMzYuNTA4IDAgMCAxLTEuOTUtNC4wMDljLS41NDctMS4zMjYtMS43MzUtMy40NTYtMy4zOC02LjQwNC02LjM5OS0xMS40NzYtMjEuMzg0LTM4LjM1LTEzLjcxMy00OS4zMTYgMi4yODUtMy4yNjQgOC4wODQtNi42MiAyMi42NC00LjgxM3ptLTE3LjY0NC02MS43ODdjMjEuMzM0LjQ3MSAzOC4yMSA4LjQ1MiA1MC4xNTggMjMuNzIgOS4xNjQgMTEuNzExLS45MjcgNjQuOTk4LTMwLjE0IDExMC45NjlhMTcxLjMzIDE3MS4zMyAwIDAgMC0uODg2LTEuMTE3bC0uMzctLjQ2MmM3LjU0OS0xMi40NjcgNi4wNzMtMjQuODAyIDQuNzU5LTM1LjczOC0uNTQtNC40ODgtMS4wNS04LjcyNy0uOTItMTIuNzA5LjEzNC00LjIyLjY5Mi03Ljg0IDEuMjMyLTExLjM0LjY2My00LjMxMyAxLjMzOC04Ljc3NiAxLjE1Mi0xNC4wMzcuMTM5LS41NTIuMTk1LTEuMjA0LjEyMi0xLjk3OC0uNDc1LTUuMDQ1LTYuMjM1LTIwLjE0NC0xNy45NzUtMzMuODEtNi40MjItNy40NzUtMTUuNzg3LTE1Ljg0LTI4LjU3NC0yMS40ODIgNS41LTEuMTQgMTMuMDIxLTIuMjAzIDIxLjQ0Mi0yLjAxNnpNNjYuNjc0IDE3NS43NzhjLTUuOSA3LjA5NC05Ljk3NCA1LjczNC0xMS4zMTQgNS4yODgtOC43My0yLjkxMi0xOC44Ni0yMS4zNjQtMjcuNzkxLTUwLjYyNC03LjcyOC0yNS4zMTgtMTIuMjQ0LTUwLjc3Ny0xMi42MDItNTcuOTE2LTEuMTI4LTIyLjU3OCA0LjM0NS0zOC4zMTMgMTYuMjY4LTQ2Ljc2OSAxOS40MDQtMTMuNzYgNTEuMzA2LTUuNTI0IDY0LjEyNS0xLjM0Ny0uMTg0LjE4Mi0uMzc2LjM1Mi0uNTU4LjUzNy0yMS4wMzYgMjEuMjQ0LTIwLjUzNyA1Ny41NC0yMC40ODUgNTkuNzU5LS4wMDIuODU2LjA3IDIuMDY4LjE2OCAzLjczNS4zNjIgNi4xMDUgMS4wMzYgMTcuNDY3LS43NjQgMzAuMzM0LTEuNjcyIDExLjk1NyAyLjAxNCAyMy42NiAxMC4xMTEgMzIuMTA5YTM2LjI3NSAzNi4yNzUgMCAwIDAgMi42MTcgMi40NjhjLTMuNjA0IDMuODYtMTEuNDM3IDEyLjM5Ni0xOS43NzUgMjIuNDI2em0yMi40NzktMjkuOTkzYy02LjUyNi02LjgxLTkuNDktMTYuMjgyLTguMTMzLTI1Ljk5IDEuOS0xMy41OTIgMS4xOTktMjUuNDMuODIyLTMxLjc5LS4wNTMtLjg5LS4xLTEuNjctLjEyNy0yLjI4NSAzLjA3My0yLjcyNSAxNy4zMTQtMTAuMzU1IDI3LjQ3LTguMDI4IDQuNjM0IDEuMDYxIDcuNDU4IDQuMjE3IDguNjMyIDkuNjQ1IDYuMDc2IDI4LjEwMy44MDQgMzkuODE2LTMuNDMyIDQ5LjIyOS0uODczIDEuOTM5LTEuNjk4IDMuNzcyLTIuNDAyIDUuNjY4bC0uNTQ2IDEuNDY2Yy0xLjM4MiAzLjcwNi0yLjY2OCA3LjE1Mi0zLjQ2NSAxMC40MjQtNi45MzgtLjAyLTEzLjY4Ny0yLjk4NC0xOC44MTktOC4zNHptMS4wNjUgMzcuOWMtMi4wMjYtLjUwNi0zLjg0OC0xLjM4NS00LjkxNy0yLjExNC44OTMtLjQyIDIuNDgyLS45OTIgNS4yMzgtMS41NiAxMy4zMzctMi43NDUgMTUuMzk3LTQuNjgzIDE5Ljg5NS0xMC4zOTQgMS4wMzEtMS4zMSAyLjItMi43OTQgMy44MTktNC42MDJsLjAwMi0uMDAyYzIuNDExLTIuNyAzLjUxNC0yLjI0MiA1LjUxNC0xLjQxMiAxLjYyMS42NyAzLjIgMi43MDIgMy44NCA0LjkzOC4zMDMgMS4wNTYuNjQzIDMuMDYtLjQ3IDQuNjItOS4zOTYgMTMuMTU2LTIzLjA4OCAxMi45ODctMzIuOTIxIDEwLjUyNnptNjkuNzk5IDY0Ljk1MmMtMTYuMzE2IDMuNDk2LTIyLjA5My00LjgyOS0yNS45LTE0LjM0Ni0yLjQ1Ny02LjE0NC0zLjY2NS0zMy44NS0yLjgwOC02NC40NDcuMDExLS40MDctLjA0Ny0uOC0uMTU5LTEuMTdhMTUuNDQ0IDE1LjQ0NCAwIDAgMC0uNDU2LTIuMTYyYy0xLjI3NC00LjQ1Mi00LjM3OS04LjE3Ni04LjEwNC05LjcyLTEuNDgtLjYxMy00LjE5Ni0xLjczOC03LjQ2LS45MDMuNjk2LTIuODY4IDEuOTAzLTYuMTA3IDMuMjEyLTkuNjE0bC41NDktMS40NzVjLjYxOC0xLjY2MyAxLjM5NC0zLjM4NiAyLjIxNC01LjIxIDQuNDMzLTkuODQ4IDEwLjUwNC0yMy4zMzcgMy45MTUtNTMuODEtMi40NjgtMTEuNDE0LTEwLjcxLTE2Ljk4OC0yMy4yMDQtMTUuNjkzLTcuNDkuNzc1LTE0LjM0MyAzLjc5Ny0xNy43NjEgNS41My0uNzM1LjM3Mi0xLjQwNy43MzItMi4wMzUgMS4wODIuOTU0LTExLjUgNC41NTgtMzIuOTkyIDE4LjA0LTQ2LjU5IDguNDg5LTguNTYgMTkuNzk0LTEyLjc4OCAzMy41NjgtMTIuNTYgMjcuMTQuNDQ0IDQ0LjU0NCAxNC4zNzIgNTQuMzY2IDI1Ljk3OSA4LjQ2NCAxMC4wMDEgMTMuMDQ3IDIwLjA3NiAxNC44NzYgMjUuNTEtMTMuNzU1LTEuMzk5LTIzLjExIDEuMzE2LTI3Ljg1MiA4LjA5Ni0xMC4zMTcgMTQuNzQ4IDUuNjQ0IDQzLjM3MiAxMy4zMTUgNTcuMTI5IDEuNDA3IDIuNTIxIDIuNjIxIDQuNyAzLjAwMyA1LjYyNiAyLjQ5OCA2LjA1NCA1LjczMiAxMC4wOTYgOC4wOTMgMTMuMDQ2LjcyNC45MDQgMS40MjYgMS43ODEgMS45NiAyLjU0Ny00LjE2NiAxLjIwMS0xMS42NDkgMy45NzYtMTAuOTY3IDE3Ljg0Ny0uNTUgNi45Ni00LjQ2MSAzOS41NDYtNi40NDggNTEuMDU5LTIuNjIzIDE1LjIxLTguMjIgMjAuODc1LTIzLjk1NyAyNC4yNXptNjguMTA0LTc3LjkzNmMtNC4yNiAxLjk3Ny0xMS4zODkgMy40Ni0xOC4xNjEgMy43NzktNy40OC4zNS0xMS4yODgtLjgzOC0xMi4xODQtMS41NjktLjQyLTguNjQ0IDIuNzk3LTkuNTQ3IDYuMjAyLTEwLjUwMy41MzUtLjE1IDEuMDU3LS4yOTcgMS41NjEtLjQ3My4zMTMuMjU1LjY1Ni41MDggMS4wMzIuNzU2IDYuMDEyIDMuOTY4IDE2LjczNSA0LjM5NiAzMS44NzQgMS4yNzFsLjE2Ni0uMDMzYy0yLjA0MiAxLjkwOS01LjUzNiA0LjQ3MS0xMC40OSA2Ljc3MnoiLz48L3N2Zz4=;" parent="329" vertex="1"><mxGeometry x="28.54709090909091" y="9" width="73.25810101010102" height="75.57575757575758" as="geometry"/></mxCell><mxCell id="169" value="" style="endArrow=classic;html=1;rounded=0;strokeWidth=1;exitX=0;exitY=0.5;exitDx=0;exitDy=0;entryX=1;entryY=0.5;entryDx=0;entryDy=0;" parent="143" source="314" target="319" edge="1"><mxGeometry width="50" height="50" relative="1" as="geometry"><mxPoint x="239" y="278.26000000000005" as="sourcePoint"/><mxPoint x="179" y="277.99999999999994" as="targetPoint"/></mxGeometry></mxCell><mxCell id="318" value="" style="group" parent="143" vertex="1" connectable="0"><mxGeometry x="29" y="252" width="91" height="90" as="geometry"/></mxCell><mxCell id="319" value="" style="rounded=1;whiteSpace=wrap;html=1;fontSize=15;" parent="318" vertex="1"><mxGeometry width="91.00000000000003" height="90" as="geometry"/></mxCell><mxCell id="321" value="&lt;div style=&quot;text-align: center;&quot;&gt;&lt;br&gt;&lt;/div&gt;" style="text;html=1;align=left;verticalAlign=middle;resizable=0;points=[];autosize=1;strokeColor=none;fillColor=none;fontSize=14;fontColor=none;" parent="318" vertex="1"><mxGeometry x="17.746017759099836" y="59.16919945725918" width="18" height="29" as="geometry"/></mxCell><mxCell id="322" value="&lt;div style=&quot;font-size: 14px;&quot;&gt;&lt;div style=&quot;&quot;&gt;&lt;span style=&quot;background-color: initial;&quot;&gt;jaeger_auth&lt;/span&gt;&lt;/div&gt;&lt;div style=&quot;&quot;&gt;&lt;span style=&quot;background-color: initial;&quot;&gt;:16686&lt;/span&gt;&lt;/div&gt;&lt;/div&gt;" style="text;html=1;align=center;verticalAlign=middle;resizable=0;points=[];autosize=1;strokeColor=none;fillColor=none;fontSize=15;" parent="318" vertex="1"><mxGeometry x="-0.9798267394469936" y="46.6676616915423" width="92" height="46" as="geometry"/></mxCell><mxCell id="323" value="" style="shape=image;verticalLabelPosition=bottom;labelBackgroundColor=default;verticalAlign=top;aspect=fixed;imageAspect=0;image=data:image/svg+xml,PHN2ZyB4bWxucz0iaHR0cDovL3d3dy53My5vcmcvMjAwMC9zdmciIHZpZXdCb3g9Ii0xMTMuNzYgLTk2Ljg0IDY0IDY0IiBoZWlnaHQ9IjY0IiB3aWR0aD0iNjQiPjxnIHRyYW5zZm9ybT0ibWF0cml4KC4zODA5NCAwIDAgLjM4MDk0IC02Ny41MTE0NjYgLTkyLjI2NzYzOSkiPjxwYXRoIGZpbGw9IiM2MGQwZTQiIGQ9Ik0tMy43MyAzNS4zODhzMTAuNTYzIDQuMjc1IDE3LjM1NCA1OS4zNTRjMCAwLTkuOCAzLjc3Mi0zLjc3MiAxMC4zMTJzNi44IDE4Ljg2MyA2LjggMTguODYzLTM1LjcxMyA1LjI4LTk3LjgzMy43NTRjMCAwLTI0Ljg5OC01MC44MDMtMTUuMS02OC40MDhsMTYuMzQ4LjUwM3MyMy42NCAxMS44MiAyMi42MzUtLjc1NGMwIDAgNC4zNTItLjQzMiA1LjAxMi0uODNzNS43NDcgOS4zOCAxOS40Mi02LjkzNmMwIDAgMjEuMjY4LTguMTI1IDI4Ljc5OC0xMi43NXptLTgxLjA3IDkuMzFTLTkxLjIzMyAyNi4yLTk5LjM2NyAzMC4wNTRzLjU5MiAxNy42NzQgMi44ODQgMjAuNjNjMCAuMDAxIDcuMDI0LTQuNTggMTEuNjgzLTUuOTg4eiIvPjxnIGZpbGwtcnVsZT0iZXZlbm9kZCI+PHBhdGggZD0iTS0zMC45NTcgMTM4Ljg5OGMtLjgwMy0xLjMwMi0yLjY3LTEuMjc1LTQuNTA0LTEuNTQyLTEuMi0uMTc3LTMuOTI4LS40NzMtNC0xLjk3NS0uMS0xLjY0IDIuMzE0LTIuMjQ2IDMuOTUtMi41OTIgMy45MTMtLjgyNyA3LjgxNC0uNjggMTIuNTI2LS42OCAyLjAyIDAgNC43MTQuMTI3IDQuOTM2IDEuNDguMTg1IDEuMTM2LS43NzUgMS45NDctMS41NDMgMi40NjgtLjY4Mi40NjMtMi4wNi45LTIuMDk3IDEuOTE0LS4wNjggMS43OTggMy4yNCAxLjQ3IDIuNDY4IDMuOTQ4LS4yODUuOTE2LTEuODc0IDEuNDQtMy4wODUgMS44LTMuODQgMS4xLTguMzUzIDEuNDc3LTEyLjc3MyAxLjg1Mi00IC4zNC05LjExOCAxLjEwNS0xMy44MjIuNDMyLTEuMzQ3LS4yLTMuMTI0LS43MDYtMy4yMDgtMS42NjUtLjEzNS0xLjUzNyAyLjQtMi4wMjIgMy43NjQtMi4yMjMgMy43Ny0uNTUgNy4zMDctLjMwOCAxMS40MTUtLjQ5MyAyLjg2NC0uMTMgNS43NC0uMSA1Ljk4NC0yLjcxNHptLTQwLjQxNy41NTZjMi43NzgtLjEzMyA2LjY4LjA0MiA5LjQ0Ljc0LjcyMi4xODMgMi4wOTUuNDggMi4wOTggMS4yMzQuMDA0LjgwNi0xLjgwOCAxLjE1LTIuODM4IDEuNDItNS44NjggMS41Mi0xMS44OCAyLTE4LjM4NyAyLjc3NS0xLjE4My4xNDMtMi40MTIuMjI0LTMuNzAzLjU1Ni0uNzUyLjE5NC0yLjU5NS43NDItMi41MyAxLjY2Ni4wODIgMS4xNCAzLjAzLjgzIDQuMjU4LjkyNiAxLjU4LjEyMiAzLjU4LjMxNCAzLjcwMiAxLjQ4LjIwOCAxLjk4Ny0zLjcxNyAyLjA3NS01LjY3NyAyLjIyLTUuNC40MDUtMTAuMDQyLjIwMy0xNS4wNTYtLjQzMi0uOTc3LS4xMjMtMi4yLS4zNTQtMy4yMDgtLjc0LS45LS4zNDctMi4xMzQtLjg2OC0yLjE2LTEuNzI4LS4wNC0xLjI4NSAxLjk3LTEuNzcgMy4wODUtMi4wMzYgNC4xNC0uOTgyIDguNjUyLTEuMzU4IDEyLjk1OC0yLjI4MyAyLjczNC0uNTg3IDUuNDI3LTEuNjMzIDcuNjUtMi41MyAyLjQyOC0uOTggNC43MjYtMi4yNDggNy4yMi0yLjk2MiAxLS4yODMgMS44LS4yNDMgMy4xNDYtLjMwOHptNTEuMjE0IDQuMzJjLjY0NC0uMDY1IDIuMzk3LjAwNyAyLjQwNi44NjMuMDE1IDEuMjUyLTMuOTM3IDEuMjQ4LTQgLjA2Mi0uMDQ3LS43NDIuODcyLS44NSAxLjYwNC0uOTI1em0tNS4wNiAxLjA1Yy44NC0uMDc4IDIuMjQ0LS4wMyAyLjI4NC44NjQuMDYgMS4zNTQtNCAxLjI5Ni0zLjk1IDAgLjAyOC0uNTg1Ljc4Ni0uNzgzIDEuNjY1LS44NjR6bS02LjA0NiAxLjA0NmMuMzctLjAyOCAxLjI2LS4wNyAxLjkxMy4wNjIuMjM3LjA0OCAxLjIwNy40MDUgMS4yMzQuNzQuMDUzLjYzNS0xLjI5Mi44NzQtMS45MTIuOTI1LTEuMjIyLjEwMy0zLjQzLS4wNTMtMy41MTgtLjgwMi0uMDg2LS43MzcgMS41NjYtLjg3MiAyLjI4My0uOTI1em0tOC4wMi42MThjLjk3LS4xMyAzLjE3NS0uMDgyIDMuMjA4Ljk4Ni4wNDggMS41MjctNC45IDEuNTM1LTQuOTM3LjA2Mi0uMDE4LS43OTUuOTc3LS45NDcgMS43My0xLjA0OHptLTkuMzguMTEyYy44MjMtLjA1NiAxLjY0NC0uMDU0IDIuNTMuMTI0LjQzLjA4NSAxLjc1Ni4zOTIgMS44Ljk4NS4wNjMgMS4xMzUtMy4xMzggMS4zNC00LjcgMS4yMzUtLjk0NS0uMDYyLTIuNzA4LS40MjgtMi43MTUtMS4xNzItLjAwNi0uNjMuOTUyLS44NDMgMS4yMzQtLjkyNi42NzMtLjE5NSAxLjA0OC0uMiAxLjg1LS4yNDZ6bS01Ny42OTQgMi40N2MtLjI5NS45LTMuMjIgMS4zOTgtNC4zMi43NC41NzQtMSAzLjAzMy0xLjI1NCA0LjMyLS43NHptLjY4IDEuNjE0Yy0uNzUzIDEuMTE0LTMuNjQzIDEuNTE4LTUuMDYuODAzLjc2Mi0xLjEwNCAzLjY0LTEuNTIyIDUuMDYtLjgwM3ptMS4xNzIgMS40OGMtLjgwNSAxLjAxMy0zLjY1IDEuNTE0LTUuMDYuNzQyLjU2My0xLjAzNCAzLjk0NS0xLjU1IDUuMDYtLjc0MnptNS4xODMuNzQyYy0uNTIzIDEuMjQ3LTQuMDQ4IDEuNzk4LTUuMjQ1LjgwMi42My0xLjMxMiAzLjkwNC0xLjczIDUuMjQ1LS44MDJ6bTQuMTk1LjI0NmMuNzg3LS4wNjIgMi4zNjYtLjEyNyAzLjIwOC4xMjMgMS41Ni40NjMuMzMyIDEuMy0uODYzIDEuNjA0LTEuMjMuMzIzLTIuNTY2LjQ3Ni00LjEzNS4zNy0uNzM4LS4wNS0xLjk4LS4yNDctMi4wMzYtLjc0LS4wNjgtLjU4NSAxLjEyNy0uODczIDEuNTQyLS45ODguOS0uMjUyIDEuNDctLjMwNSAyLjI4NC0uMzd6bTEyLjM0Mi42NzhjLS4wNy43ODMtMS4xMiAxLjIzMi0yLjAzNyAxLjU0M2ExMy4wMSAxMy4wMSAwIDAgMS0zLjA4NS42MTZjLS42ODUuMDQzLTIuMDQtLjAwNC0yLjE2LS40OTMtLjE4LS43MyAxLjQ2Ni0xLjMgMS45NzUtMS40OCAxLjA1My0uMzc4IDIuMDgzLS42IDMuMDIzLS42NzguOTE3LS4wNjggMS45NDUtLjA0IDIuMjg0LjQ5M3ptNTEuNTg0LTExOS4wODdjLjA3LjAxMi4wMzQuMDYyIDAgLjA2Mi00LjEzIDQuNjM1LTcuOTg4IDkuNi0xMi44MzQgMTMuNzYtLjU2Mi40ODMtMS41ODMgMS40Ny0yLjM0NSAxLjQyLS40MzItLjAyOC0uOTc2LS42MzMtMS40MTgtLjgwMy0yLjYtLjk5My01LjM2IDEuMDI2LTUuMjQ1IDMuODg4LS45NTguMjkzLTEuOTk0LjQtMy4wODUuNDkzLTEuMDM3LjEtMi4yNDIuMzUyLTMuMjcuMjQ3LS43Ni0uMDc4LTEuMjU1LS40NzYtMi4yODMtLjM3LS40NzMuMDUtLjg0NS4zNTgtMS40Mi40MzItLjkuMTE0LTIuMS0uMTkzLTMuMTQ3LS40MzItNi41Ni0xLjUtMTIuMTUtNC45Mi0xOC41NzMtNi4yOTMuNzkyLS40ODMgMS43OTQtLjc1NiAyLjcxNS0xLjEuMTU4LS4yOTgtLjMyLS43NzgtLjE4NS0xLjA1IDE1LjE5NiAxLjU4NCAyOC40NDMtMi4wNDIgMzkuOC01LjggMy45MzctMS4zMDMgNy43NzUtMi45NDYgMTEuMy00LjQ0MnoiLz48cGF0aCBmaWxsPSIjNjM4YjE4IiBkPSJNLTQyLjQ5NiAzOS4xODVjLTExLjM1NiAzLjc1OC0yNC42MDMgNy4zODUtMzkuOCA1LjgtLjEzNC4yNy4zNDIuNzUuMTg1IDEuMDUtLjkyLjM1NC0xLjkyMy42MjgtMi43MTUgMS4xMSA2LjQyMiAxLjM3MyAxMi4wMTMgNC43ODQgMTguNTczIDYuMjkzIDEuMDM4LjI0IDIuMjU4LjU0NiAzLjE0Ny40MzIuNTc0LS4wNzQuOTQ2LS4zODMgMS40Mi0uNDMyIDEuMDI4LS4xMDUgMS41MjIuMjkzIDIuMjgzLjM3IDEuMDMuMTA1IDIuMjMzLS4xNTggMy4yNy0uMjQ3IDEuMDkyLS4wOTMgMi4xMjctLjIgMy4wODUtLjQ5My0uMTE0LTIuODYyIDIuNjM1LTQuODggNS4yNDUtMy44ODguNDQzLjE3Ljk4Ny43NzQgMS40MTguODAzLjc2Mi4wNSAxLjc4My0uOTM3IDIuMzQ1LTEuNDIgNC44NDYtNC4xNiA4LjcwNi05LjEyNSAxMi44MzQtMTMuNzYuMDM0IDAgLjA3LS4wNSAwLS4wNjItMy41MTUgMS40OTYtNy4zNTMgMy4xNC0xMS4yOSA0LjQ0MnoiLz48cGF0aCBkPSJNLTM2Ljk0MiAxNDEuNjEzYy00LjEwOC4xODYtNy42NDUtLjA1Ni0xMS40MTUuNDkzLTEuMzc1LjItMy45LjY4Ni0zLjc2NCAyLjIyMy4wODQuOTYgMS44NiAxLjQ3NCAzLjIwOCAxLjY2NSA0LjcwNC42NzQgOS44MjItLjA5MyAxMy44MjItLjQzMiA0LjQyLS4zNzUgOC45MzMtLjc0IDEyLjc3My0xLjg1MiAxLjItLjM1IDIuOC0uODczIDMuMDg1LTEuOC43NzMtMi40OC0yLjUzNi0yLjE1LTIuNDY4LTMuOTQ4LjAzOC0xLjAwNSAxLjQxNi0xLjQ1IDIuMDk3LTEuOTE0Ljc2OC0uNTIgMS43MjgtMS4zMzIgMS41NDMtMi40NjgtLjIyMi0xLjM1NC0yLjkxNy0xLjQ4LTQuOTM2LTEuNDgtNC43IDAtOC42MTMtLjE0OC0xMi41MjYuNjgtMS42MzUuMzQ2LTQuMDQuOTUzLTMuOTUgMi41OTIuMDgzIDEuNTAyIDIuOCAxLjc5OCA0IDEuOTc1IDEuODM1LjI2NyAzLjcuMjQgNC41MDQgMS41NDItLjI0MyAyLjYxMy0zLjEyIDIuNTg0LTUuOTg0IDIuNzE0em0tMzcuNTc4LTEuODVjLTIuNDk0LjcxNC00Ljc5MiAxLjk4Mi03LjIyIDIuOTYyLTIuMjI0Ljg5Ni00LjkxNyAxLjk0Mi03LjY1IDIuNTMtNC4zMDYuOTI1LTguODE4IDEuMy0xMi45NTggMi4yODMtMS4xMTUuMjY2LTMuMTI0Ljc1LTMuMDg1IDIuMDM2LjAyNi44NiAxLjI2IDEuMzggMi4xNiAxLjcyOCAxIC4zODYgMi4yMy42MTcgMy4yMDguNzQgNS4wMTQuNjM1IDkuNjU0LjgzNyAxNS4wNTYuNDMyIDEuOTYtLjE0NiA1Ljg4NS0uMjMzIDUuNjc3LTIuMjItLjEyMi0xLjE2Ni0yLjEyMi0xLjM1OC0zLjcwMi0xLjQ4LTEuMjMtLjA5NS00LjE3Ni4yMTMtNC4yNTgtLjkyNi0uMDY1LS45MjQgMS43NzctMS40NzIgMi41My0xLjY2NiAxLjI5Mi0uMzMyIDIuNTItLjQxMyAzLjcwMy0uNTU2IDYuNTA4LS43ODQgMTIuNTItMS4yNTUgMTguMzg3LTIuNzc1IDEuMDMtLjI3IDIuODQyLS42MTQgMi44MzgtMS40Mi0uMDAzLS43NTYtMS4zNzYtMS4wNTItMi4wOTgtMS4yMzQtMi43Ni0uNjk4LTYuNjYzLS44NzMtOS40NC0uNzQtMS4zNDYuMDY0LTIuMTU2LjAyNC0zLjE0Ni4zMDh6bTUyLjc1NyA0LjkzNWMuMDczIDEuMTg3IDQuMDI1IDEuMiA0LS4wNjItLjAxLS44NTYtMS43NjMtLjkzLTIuNDA2LS44NjMtLjczMi4wNzYtMS42NS4xODMtMS42MDQuOTI1em0tNS4xMjIgMWMtLjA2MiAxLjI5NiA0IDEuMzU0IDMuOTUgMC0uMDQtLjg5Ni0xLjQ0NS0uOTQyLTIuMjg0LS44NjQtLjg3OC4wOC0xLjYzNi4yNzgtMS42NjUuODY0em0tNi42NjUgMS4wOThjLjA4OC43NSAyLjI5NS45MDQgMy41MTguODAyLjYyLS4wNSAxLjk2NS0uMyAxLjkxMi0uOTI1LS4wMjctLjMzNS0uOTk3LS42OTItMS4yMzQtLjc0LS42NTItLjEzMy0xLjU0Mi0uMS0xLjkxMy0uMDYyLS43MTcuMDUzLTIuMzcuMTg4LTIuMjgzLjkyNXptLTcuNDY1Ljc0Yy4wMzUgMS40NzMgNC45ODQgMS40NjUgNC45MzctLjA2Mi0uMDM0LTEuMDY4LTIuMjQtMS4xMTYtMy4yMDgtLjk4Ni0uNzUzLjEtMS43NDguMjUyLTEuNzMgMS4wNDh6bS05LjUwMy0uNjc4Yy0uMjgyLjA4My0xLjI0LjI5Ni0xLjIzNC45MjYuMDA3Ljc0NCAxLjc3IDEuMSAyLjcxNSAxLjE3MiAxLjU1Mi4xMDQgNC43NTItLjEgNC43LTEuMjM1LS4wMzMtLjU5NC0xLjM2LS45LTEuOC0uOTg1LS44ODYtLjE3OC0xLjcwNy0uMTgtMi41My0uMTI0LS44LjA1NS0xLjE3NS4wNS0xLjg1LjI0NnptLTYwLjE2IDIuOTYyYzEuMS42NTggNC4wMjQuMTcgNC4zMi0uNzQtMS4yODYtLjUxNC0zLjc0NS0uMjYtNC4zMi43NHptLS4wNjIgMS42NjZjMS40MTcuNzE1IDQuMzA3LjMxMiA1LjA2LS44MDMtMS40Mi0uNzE4LTQuMjk4LS4zLTUuMDYuODAzem0xLjE3MiAxLjQyYzEuNC43NyA0LjI1NS4yNyA1LjA2LS43NDItMS4xMTUtLjgtNC40OTctLjI5Mi01LjA2Ljc0MnptNC45OTguODAyYzEuMTk3Ljk5NiA0LjcyLjQ0NSA1LjI0NS0uODAyLTEuMzQtLjkyNy00LjYxNC0uNS01LjI0NS44MDJ6bTcuMTU3LS4xODhjLS40MTUuMTE1LTEuNi40MDMtMS41NDIuOTg4LjA1Ny40OTMgMS4yOTcuNyAyLjAzNi43NCAxLjU3LjEwNSAyLjkwNC0uMDQ3IDQuMTM1LS4zNyAxLjE5NS0uMzE1IDIuNDI0LTEuMTQyLjg2My0xLjYwNC0uODQyLS4yNS0yLjQyLS4xODUtMy4yMDgtLjEyMy0uODEzLjA2NC0xLjM3My4xMTctMi4yODQuMzd6bTEyLjM0My0uMTgyYy0uOTQuMDY4LTEuOTcuMy0zLjAyMy42NzgtLjUuMTgzLTIuMTU2Ljc1LTEuOTc1IDEuNDguMTIuNSAxLjQ3NS41MzYgMi4xNi40OTNhMTMuMDYgMTMuMDYgMCAwIDAgMy4wODUtLjYxNmMuOTE3LS4zIDEuOTY3LS43NiAyLjAzNy0xLjU0My0uMzQtLjUzMi0xLjM2OC0uNTYtMi4yODQtLjQ5M3oiLz48L2c+PHBhdGggZmlsbD0iI2UxY2FhMiIgZD0iTS0zMi4wMjQgMjQuOTVDLTY5LjEyIDQxLjA0Ny04Ny43MyAzNC4wMDQtODcuNzMgMzQuMDA0bDQuNCA4LjgwM2MyNi41MzMgMy4wMTggNTMuOC0xMS4yNTUgNTMuOC0xMS4yNTVsMS4zNjQtMy43MzhzLTIuMjYuNDg3LTMuNTYtMi45NnoiLz48cGF0aCBmaWxsPSIjNjM4YjE4IiBkPSJNLTI5LjMyIDE0LjE2N2wtLjQ3Mi0xLjYwM1MtNTkuNjkuODctNjYuNDggNC40NTMtODIuMDQgMTQuMjYyLTg4LjQ1NCAyMy44OGwtLjA5NCA3LjY0czE4LjQyMyA3LjY0IDU2LjQtOC44MzNjMCAwLS41MDMtNC41OTIgMi44My04LjUyeiIvPjxwYXRoIGQ9Ik0tMjcuMDIgMjUuMDQ4Yy0uNDUuMzkyLS44NzQuNjgtMS4zMi41OTMtMS4zNDgtLjI2NS0xLjk3LTIuODg0LTEuMzg4LTUuODVzMi4xNDgtNS4xNTUgMy40OTgtNC45YzEuMjk3LjI1NSAxLjkyIDIuNjg4IDEuNDQ4IDUuNTE0IDAgMC0xLjQzNiAyLjYzNS0yLjExNiA0LjQ4NXoiLz48cGF0aCBmaWxsPSIjZTFjYWEyIiBkPSJNLTguNjM1IDExLjMwN3MtNi43OS00LjQ2NC0xNC4wMiA1LjQ3YzAgMC0uOTQzLTUuOTEtNS43ODUtMy4zOTYgMCAwIC45NDMtOC40ODguMzE0LTkuNjgzIDAgMCAxLjg4Ny41NjYgMi40NTIgMS44MjMgMCAwIDQuOTY4LTQuODQgNC42NTMtMTEuNTY4IDAgMCAxLjMyLjE4OCAxLjMyIDEuODg2IDAgMCAxLjg1LTQuMDkyIDMuNjYzLTYuMjk4bC4xNzItLjI0MmM3LjI5My02LjM1LjU2NiAxMi41NzYuNTY2IDEyLjU3NnMtLjM5Mi45NC0uNzkzIDEuNDQ2IDMuNDU0LTEuMjg1IDMuNDA3LTIuNzQ3LjQ4MyAyLjA2MyAwIDIuN2MwIDAgNi4zNzgtNS4wNDUgNi41NjYtNy42ODcgMCAwIDEuMDA2IDIuMDEyLjc1NCAzLjY0NiAwIDAgNS42NTgtNC4yNzUgNS43ODUtNi4yODggMCAwIC42OSAxMC44NzctMTAuMDYgMTUuMDI3IDAgMCAxLjc2IDAgMy45Ni0uNDR6Ii8+PHBhdGggZmlsbD0iIzYzOGIxOCIgZD0iTS01LjA1IDI0LjMyMnMyMi42OTgtNS4wMyAxMC42MjYgMy4wOC0xMy44MzMgNy43MzQtMTMuODMzIDcuNzM0Uy01LjgwNSAzMS41LTUuMDUgMjQuMzIyek0tOC42MzQgMzUuNDVsLTIwLjg3NSA5LjExN3M2LjQ3Ny01LjUzMyA0LjI3Ni04LjU1MmMwIC4wMDEgMTAuOTQtMS42MzMgMTYuNi0uNTY1eiIvPjxwYXRoIGZpbGw9IiM2MGQwZTQiIGQ9Ik0tMjggMzMuODhjNS43ODQtMTYuMDMzIDguNjkyLTE3LjgzOCA4LjY5Mi0xNy44MzggMi43NDItMi45NSA2LjE5My00LjI1IDguOTE4LTMuMDAyIDIuMzYgMS4wOCAzLjYyNiAzLjgyMyAzLjYzNyA3LjEzN2wtLjAwMS4yMXMtLjQzNSA4LjA4Ni0yLjY5OCAxMi42NzZjMCAwLTguNDI1LTEuMTk1LTE3LjQ4IDEuMTk1eiIvPjxwYXRoIGQ9Ik0tMTkuNzQgMjYuNzE1czQuNTI2LTkuMDA4IDcuMjg4LTYuOTI2YzAgMCAuNjguODE1LTEuMDg2IDYuNzQ1IDAgMCA3LjMtOC45MTgtLjI3LTkuMTQ1LS4wMDEuMDAxLTUuMDctLjE4LTUuOTMgOS4zMjZ6TS05MC4xIDQ0LjM5N3MtNS45Ni05LjAxNi02LjUtNy4yMi4zNiA0Ljk3Mi41IDUuODQtNC41NTQtNS41NDItMS40MDgtNy44OCA3LjA0IDQuOTE0IDcuNCA5LjI1N3oiLz48cGF0aCBmaWxsPSIjNjM4YjE4IiBkPSJNLTk3LjA0NyA1My41MTVoLjIzNXMzLjQ1NC0yLjUxMyA0LjQ3NS0yLjkwNS0xLjI1NiAzLjc2OCA0Ljc4OCAzLjc2OC0xNS43Ljc4NS0yMC42NDUtMy41MzJjMCAwLS40My0xLjg2NyA2LjE5OC00Ljk0IDAgMCA0IDcuMTQ4IDQuOTUgNy42eiIvPjxwYXRoIGQ9Ik0tNzUuNzcgNTUuOTQ4Yy02LjgzNy0zLjAyLTExLjk1NC0zLjktMTEuOTU0LTMuOS0uMDUuMDA0LS4xMDIuMDA2LS4xNTMuMDA2LTEuMDc0IDAtMS45NDYtLjY5Ny0xLjk0Ni0xLjU1NnMuODcyLTEuNTU2IDEuOTQ2LTEuNTU2YTIuNjEgMi42MSAwIDAgMSAuMjY4LjAxNHM1LjAyLjg0IDEyLjgzIDQuMTAzbC44NS4zNWM3LjI2MiAyLjY4OCAxMC4xODYgMi43NiAxMC4xODYgMi43Ni45OC4wODMgMS4yMzguMDgzIDEuMzY4LS4wMTJzLjk0My0uNDEyLjk0My0uNDEyYzEuMDMzLjAyNyAxLjg2Mi43NDMgMS44NjIgMS42MjIgMCAuODQ2LTEuNDUgMS43NjctMi40MjggMS44NDQgMCAwLTUuMzc1LjQyNC0xMy40ODYtMy4xNnptNDguNi0xOC4xMTJjLjAxNy0uMDg1LjAyNS0uMTczLjAyNS0uMjY0IDAtLjc3OC0uNjQ0LTEuNC0xLjQzOC0xLjRhMS40NyAxLjQ3IDAgMCAwLS41NjkuMTE0bC01Ljk0NCA2LjQ4N2MtMi40MzYgMi43NTgtOC4zOTIgOS4yNzItMTAuODg2IDkuNTY1bC0xLjQwOC4xNDZjLS4xMTgtLjIzNC0uNzU0LS44LS43NTQtLjgtLjQtLjM1NS0uOTQtLjUwNS0xLjQ1NC0uMzQ4LS44Mi4yNS0xLjI2MiAxLjItLjk4NCAyLjA5OGExLjg1IDEuODUgMCAwIDAgLjU2NS44NjhzNC4xMjQgNC4xNzcgMTEuMjI0LTMuMjQ3bDcuNzQ2LTguMTg2czMuNi0zLjkzMiAzLjg0My00Ljg3eiIvPjxwYXRoIGZpbGw9IiNmZmYiIGQ9Ik0tMTQuNzU0IDY3LjA2NmMwIDcuODg1LTYuNCAxNC4yODMtMTQuMyAxNC4yODNTLTQzLjM1IDc0Ljk1Mi00My4zNSA2Ny4wNjZjMC03Ljg5MiA2LjQtMTQuMyAxNC4yOTYtMTQuM2ExNC4zIDE0LjMgMCAwIDEgMTQuMyAxNC4yOXptLTQ0LjQgMTAuNDM4YzAgNy44ODYtNi40IDE0LjI4My0xNC4zIDE0LjI4M1MtODcuNzQgODUuNC04Ny43NCA3Ny41MDRzNi40LTE0LjMgMTQuMjk3LTE0LjNhMTQuMyAxNC4zIDAgMCAxIDE0LjMgMTQuM3ptMTEuOTE2IDIyLjg5NmMuMzc3IDIuMTM3IDEuMjU3IDYuNjY0IDQuMjc1IDYuMjg2czEuODg3LTYuNDEzIDEuODg3LTYuNDEzLTUuMTU2LS4yNS01LjY2IDB6bS0xLjc2LjU5NHMtMi43NjggMS4xOC00Ljk3NyAyLjYyYzAgMCAxLjEgNS42MjQgNC43NyAzLjk0NSAwIDAgMi40MTUtLjUzMi4zNTQtNi4xODd6bS03LjAyOC0xMi40OTZzLTE3LjYgNS4zLTguOTY3IDE0LjJjNS42NiA1LjgzNCAxMy40OTQtNC4xIDE3LjY3Mi00LjAwNCAwIDAgLjk1OC0uNDM1IDIuOTYtLjE3NHMxNS4wNjIgMS4zMDYgMTYuMjgtMy45MTgtLjM0OC02LjA5NC0xLjMwNi02LjcwMy03LjgzNS00LjctMTguMTA4LTEuODI4eiIvPjxjaXJjbGUgcj0iNC40ODEiIGN5PSI4Mi40MSIgY3g9Ii03NC43MDIiLz48ZWxsaXBzZSByeT0iNC40NzYiIHJ4PSI0LjQ4MSIgY3k9IjcxLjcyMiIgY3g9Ii0zMC45NCIvPjxlbGxpcHNlIHJ5PSI0LjMyOCIgcng9IjcuOTMiIGN5PSI4Ny4yMjgiIGN4PSItNDkuNTg1IiB0cmFuc2Zvcm09Im1hdHJpeCguOTgwMSAtLjE5ODYgLjE5ODYgLjk4MDEgLTE4LjMwODUgLTguMTA5MikiLz48cGF0aCBmaWxsPSIjZTFjYWEyIiBkPSJNLTU3LjgwMiA5MS4zNDdzLTExLjA2NiA1LjE1NS01LjkgOS40MyA3LjY3LTIuNjQgMTUuMjE1LTMuODk3IDE2LjIyMi43NTQgMTcuOTgyLTIuNTE2IDIuNC01LjktOS45MzUtNy4wNDJjMCAwLTEuMTMgNS40MDgtNy42NyA2LjAzNnMtNy42NjgtLjUwNC05LjY4LTIuMDEyeiIvPjxwYXRoIGZpbGw9IiMyMzFmMjAiIGQ9Ik0yOS43NzcgMTE1LjY2NnMxOC4yNzIgMy44NzMtOC4xNDQgNy43NDdjMCAwIDYuMjU3LTIuNTgyIDguMTQ0LTcuNzQ3eiIvPjxwYXRoIGZpbGw9IiNlMWNhYTIiIGQ9Ik0xNy4yNjQgMTE3LjQ1M3MtLjU5Ny05LjMzMy02LjE1OC0xNC4zOTggNC42NjgtNi42NTMgNy44NDYtNS4yNjQgMTYuMzg2IDEwLjUyNyA0Ljc2NiAyMi4yNDVjMCAwLTQuOTY1IDMuNTc1LTYuMzU1LTIuMDg1eiIvPjxwYXRoIGQ9Ik0tOTkuNDg4IDExNS4zNjVzLS45NDMgNC43MTUtLjE4OCA2LjY5NmMwIDAtMTUuOTQtMi43MzYtLjc1NS02LjUwOHoiLz48cGF0aCBmaWxsPSIjZTFjYWEyIiBkPSJNLTkxLjg1IDEwNC43MDhzLTkuNzg3IDExLjU4LTQuNzE2IDIxLjAzYzQuMTUgNy43MzQgMTIuNTQzLTEuMDM2IDEyLjczMi0xLjMyeiIvPjwvZz48L3N2Zz4=;" parent="318" vertex="1"><mxGeometry x="27.299315217391364" y="6.716417910447761" width="37.72641520031747" height="37.72641520031747" as="geometry"/></mxCell><mxCell id="334" value="" style="group" parent="396" vertex="1" connectable="0"><mxGeometry x="613" y="211" width="130" height="134" as="geometry"/></mxCell><mxCell id="335" value="" style="rounded=1;whiteSpace=wrap;html=1;fontSize=15;" parent="334" vertex="1"><mxGeometry width="130.00000000000003" height="134" as="geometry"/></mxCell><mxCell id="336" value="&lt;div style=&quot;text-align: center;&quot;&gt;&lt;br&gt;&lt;/div&gt;" style="text;html=1;align=left;verticalAlign=middle;resizable=0;points=[];autosize=1;strokeColor=none;fillColor=none;fontSize=14;fontColor=none;" parent="334" vertex="1"><mxGeometry x="25.351453941571194" y="88.09636363636366" width="18" height="29" as="geometry"/></mxCell><mxCell id="337" value="&lt;div style=&quot;font-size: 14px;&quot;&gt;&lt;div style=&quot;&quot;&gt;&lt;div style=&quot;&quot;&gt;&lt;div style=&quot;&quot;&gt;auth providers&lt;/div&gt;&lt;/div&gt;&lt;/div&gt;&lt;/div&gt;" style="text;html=1;align=center;verticalAlign=middle;resizable=0;points=[];autosize=1;strokeColor=none;fillColor=none;fontSize=15;" parent="334" vertex="1"><mxGeometry x="12.673219006303793" y="89.60000000000002" width="107" height="29" as="geometry"/></mxCell><mxCell id="339" value="" style="sketch=0;outlineConnect=0;fontColor=#232F3E;gradientColor=none;fillColor=#232F3D;strokeColor=none;dashed=0;verticalLabelPosition=bottom;verticalAlign=top;align=center;html=1;fontSize=12;fontStyle=0;aspect=fixed;pointerEvents=1;shape=mxgraph.aws4.internet;dashPattern=1 2;" parent="334" vertex="1"><mxGeometry x="25.350000000000023" y="23" width="78" height="48" as="geometry"/></mxCell><mxCell id="199" value="" style="endArrow=classic;startArrow=classic;html=1;rounded=0;exitX=0;exitY=0.5;exitDx=0;exitDy=0;entryX=1;entryY=0.5;entryDx=0;entryDy=0;" parent="396" source="335" target="314" edge="1"><mxGeometry width="50" height="50" relative="1" as="geometry"><mxPoint x="1091.6940000000004" y="-209.81761904761902" as="sourcePoint"/><mxPoint x="825.0340000000001" y="-246.08363636363651" as="targetPoint"/><Array as="points"/></mxGeometry></mxCell><mxCell id="397" value="" style="group" parent="1" vertex="1" connectable="0"><mxGeometry x="-304" y="171" width="130" height="326" as="geometry"/></mxCell><mxCell id="274" value="" style="group" parent="397" vertex="1" connectable="0"><mxGeometry y="192" width="130" height="134" as="geometry"/></mxCell><mxCell id="275" value="" style="rounded=1;whiteSpace=wrap;html=1;fontSize=15;" parent="274" vertex="1"><mxGeometry width="130.00000000000003" height="134" as="geometry"/></mxCell><mxCell id="276" value="&lt;div style=&quot;text-align: center;&quot;&gt;&lt;br&gt;&lt;/div&gt;" style="text;html=1;align=left;verticalAlign=middle;resizable=0;points=[];autosize=1;strokeColor=none;fillColor=none;fontSize=14;fontColor=none;" parent="274" vertex="1"><mxGeometry x="25.351453941571194" y="88.09636363636366" width="18" height="29" as="geometry"/></mxCell><mxCell id="277" value="&lt;div style=&quot;font-size: 14px;&quot;&gt;&lt;div style=&quot;&quot;&gt;&lt;div style=&quot;&quot;&gt;users&lt;/div&gt;&lt;/div&gt;&lt;/div&gt;" style="text;html=1;align=center;verticalAlign=middle;resizable=0;points=[];autosize=1;strokeColor=none;fillColor=none;fontSize=15;" parent="274" vertex="1"><mxGeometry x="39.673219006303796" y="89.60000000000002" width="52" height="29" as="geometry"/></mxCell><mxCell id="359" value="" style="sketch=0;outlineConnect=0;fontColor=#232F3E;gradientColor=none;fillColor=#232F3D;strokeColor=none;dashed=0;verticalLabelPosition=bottom;verticalAlign=top;align=center;html=1;fontSize=12;fontStyle=0;aspect=fixed;pointerEvents=1;shape=mxgraph.aws4.users;dashPattern=1 2;" parent="274" vertex="1"><mxGeometry x="37" y="27" width="52" height="52" as="geometry"/></mxCell><mxCell id="363" value="" style="group" parent="397" vertex="1" connectable="0"><mxGeometry width="130" height="134" as="geometry"/></mxCell><mxCell id="350" value="" style="group" parent="363" vertex="1" connectable="0"><mxGeometry width="130" height="134" as="geometry"/></mxCell><mxCell id="351" value="" style="rounded=1;whiteSpace=wrap;html=1;fontSize=15;" parent="350" vertex="1"><mxGeometry width="130.00000000000003" height="134" as="geometry"/></mxCell><mxCell id="352" value="&lt;div style=&quot;text-align: center;&quot;&gt;&lt;br&gt;&lt;/div&gt;" style="text;html=1;align=left;verticalAlign=middle;resizable=0;points=[];autosize=1;strokeColor=none;fillColor=none;fontSize=14;fontColor=none;" parent="350" vertex="1"><mxGeometry x="25.351453941571194" y="88.09636363636366" width="18" height="29" as="geometry"/></mxCell><mxCell id="353" value="&lt;div style=&quot;font-size: 14px;&quot;&gt;&lt;div style=&quot;&quot;&gt;&lt;div style=&quot;&quot;&gt;clients&lt;/div&gt;&lt;/div&gt;&lt;/div&gt;" style="text;html=1;align=center;verticalAlign=middle;resizable=0;points=[];autosize=1;strokeColor=none;fillColor=none;fontSize=15;" parent="350" vertex="1"><mxGeometry x="36.673219006303796" y="89.60000000000002" width="58" height="29" as="geometry"/></mxCell><mxCell id="360" value="" style="group" parent="363" vertex="1" connectable="0"><mxGeometry x="18" y="23" width="96.76" height="51" as="geometry"/></mxCell><mxCell id="361" value="" style="sketch=0;outlineConnect=0;fontColor=#232F3E;gradientColor=none;fillColor=#232F3D;strokeColor=none;dashed=0;verticalLabelPosition=bottom;verticalAlign=top;align=center;html=1;fontSize=12;fontStyle=0;aspect=fixed;pointerEvents=1;shape=mxgraph.aws4.mobile_client;dashPattern=1 2;" parent="360" vertex="1"><mxGeometry width="26.804986740539146" height="50.994852823464726" as="geometry"/></mxCell><mxCell id="362" value="" style="sketch=0;outlineConnect=0;fontColor=#232F3E;gradientColor=none;fillColor=#232F3D;strokeColor=none;dashed=0;verticalLabelPosition=bottom;verticalAlign=top;align=center;html=1;fontSize=12;fontStyle=0;aspect=fixed;pointerEvents=1;shape=mxgraph.aws4.client;dashPattern=1 2;" parent="360" vertex="1"><mxGeometry x="45.76486486486487" y="1.3076923076923077" width="50.994852823464726" height="49.68729249465793" as="geometry"/></mxCell><mxCell id="207" value="" style="endArrow=classic;startArrow=classic;html=1;rounded=0;entryX=0.5;entryY=0;entryDx=0;entryDy=0;exitX=0.5;exitY=1;exitDx=0;exitDy=0;" parent="397" source="351" target="275" edge="1"><mxGeometry width="50" height="50" relative="1" as="geometry"><mxPoint x="530" y="335" as="sourcePoint"/><mxPoint x="354.3351666666672" y="225" as="targetPoint"/><Array as="points"/></mxGeometry></mxCell><mxCell id="412" value="" style="endArrow=classic;startArrow=classic;html=1;rounded=0;exitX=0;exitY=0.5;exitDx=0;exitDy=0;entryX=0.75;entryY=1;entryDx=0;entryDy=0;" parent="1" source="399" target="309" edge="1"><mxGeometry width="50" height="50" relative="1" as="geometry"><mxPoint x="-646" y="-302.9999999999998" as="sourcePoint"/><mxPoint x="-267.80999999999995" y="-651" as="targetPoint"/><Array as="points"><mxPoint x="-213" y="-447"/></Array></mxGeometry></mxCell><mxCell id="91" value="&lt;font style=&quot;font-size: 15px;&quot;&gt;ETL&lt;/font&gt;" style="text;html=1;align=center;verticalAlign=middle;resizable=0;points=[];autosize=1;strokeColor=none;fillColor=none;" parent="1" vertex="1"><mxGeometry x="-725" y="-634" width="46" height="30" as="geometry"/></mxCell><mxCell id="1d_qB0QXYS2EEvc3A-e--457" value="" style="endArrow=classic;startArrow=classic;html=1;rounded=0;exitX=0.015;exitY=0.621;exitDx=0;exitDy=0;entryX=1;entryY=0.5;entryDx=0;entryDy=0;exitPerimeter=0;" parent="1" target="344" edge="1" source="419"><mxGeometry width="50" height="50" relative="1" as="geometry"><mxPoint x="659" y="-220" as="sourcePoint"/><mxPoint x="274" y="-361.5000000000002" as="targetPoint"/><Array as="points"/></mxGeometry></mxCell><mxCell id="1d_qB0QXYS2EEvc3A-e--458" value="" style="endArrow=classic;startArrow=classic;html=1;rounded=0;exitX=-0.003;exitY=0.34;exitDx=0;exitDy=0;entryX=1;entryY=0.5;entryDx=0;entryDy=0;exitPerimeter=0;" parent="1" target="1d_qB0QXYS2EEvc3A-e--450" edge="1" source="419"><mxGeometry width="50" height="50" relative="1" as="geometry"><mxPoint x="659.7800000000002" y="-244.52200000000016" as="sourcePoint"/><mxPoint x="480.69000000000005" y="-328" as="targetPoint"/><Array as="points"/></mxGeometry></mxCell><mxCell id="418" value="" style="group" vertex="1" connectable="0" parent="1"><mxGeometry x="595" y="-303" width="130" height="134" as="geometry"/></mxCell><mxCell id="419" value="" style="rounded=1;whiteSpace=wrap;html=1;fontSize=15;" vertex="1" parent="418"><mxGeometry width="130.00000000000003" height="134" as="geometry"/></mxCell><mxCell id="420" value="&lt;div style=&quot;text-align: center;&quot;&gt;&lt;br&gt;&lt;/div&gt;" style="text;html=1;align=left;verticalAlign=middle;resizable=0;points=[];autosize=1;strokeColor=none;fillColor=none;fontSize=14;fontColor=none;" vertex="1" parent="418"><mxGeometry x="25.351453941571194" y="88.09636363636366" width="18" height="29" as="geometry"/></mxCell><mxCell id="421" value="&lt;div style=&quot;font-size: 14px;&quot;&gt;&lt;div style=&quot;&quot;&gt;&lt;div style=&quot;&quot;&gt;analytics team&lt;/div&gt;&lt;/div&gt;&lt;/div&gt;" style="text;html=1;align=center;verticalAlign=middle;resizable=0;points=[];autosize=1;strokeColor=none;fillColor=none;fontSize=15;" vertex="1" parent="418"><mxGeometry x="12.673219006303796" y="89.60000000000002" width="107" height="29" as="geometry"/></mxCell><mxCell id="422" value="" style="sketch=0;outlineConnect=0;fontColor=#232F3E;gradientColor=none;fillColor=#232F3D;strokeColor=none;dashed=0;verticalLabelPosition=bottom;verticalAlign=top;align=center;html=1;fontSize=12;fontStyle=0;aspect=fixed;pointerEvents=1;shape=mxgraph.aws4.users;dashPattern=1 2;" vertex="1" parent="418"><mxGeometry x="37" y="27" width="52" height="52" as="geometry"/></mxCell></root></mxGraphModel></diagram></mxfile>